font.ufo
<glyph name="exclam" format="1">
  <advance width="256"/>
  <unicode hex="0021"/>
  <outline>
    <contour>
      <point x="85" y="674" type="line"/>
      <point x="95" y="177" type="line"/>
      <point x="160" y="177" type="line"/>
      <point x="170" y="674" type="line"/>
    </contour>
    <contour>
      <point x="80" y="42" type="curve" smooth="yes"/>
      <point x="80" y="13"/>
      <point x="92" y="-6"/>
      <point x="128" y="-6" type="curve" smooth="yes"/>
      <point x="163" y="-6"/>
      <point x="175" y="13"/>
      <point x="175" y="42" type="curve" smooth="yes"/>
      <point x="175" y="72"/>
      <point x="163" y="91"/>
      <point x="128" y="91" type="curve" smooth="yes"/>
      <point x="92" y="91"/>
      <point x="80" y="72"/>
    </contour>
  </outline>
</glyph>
<glyph name="quotedbl" format="1">
  <advance width="361"/>
  <unicode hex="0022"/>
  <outline>
    <contour>
      <point x="209" y="748" type="line"/>
      <point x="209" y="538" type="line"/>
      <point x="278" y="538" type="line"/>
      <point x="278" y="748" type="line"/>
    </contour>
    <contour>
      <point x="81" y="748" type="line"/>
      <point x="81" y="538" type="line"/>
      <point x="150" y="538" type="line"/>
      <point x="150" y="748" type="line"/>
    </contour>
  </outline>
</glyph>
<glyph name="numbersign" format="1">
  <advance width="540"/>
  <unicode hex="0023"/>
  <outline>
    <contour>
      <point x="393" y="658" type="line"/>
      <point x="298" y="0" type="line"/>
      <point x="366" y="0" type="line"/>
      <point x="461" y="658" type="line"/>
    </contour>
    <contour>
      <point x="37" y="230" type="line"/>
      <point x="37" y="169" type="line"/>
      <point x="475" y="169" type="line"/>
      <point x="475" y="230" type="line"/>
    </contour>
    <contour>
      <point x="187" y="658" type="line"/>
      <point x="91" y="0" type="line"/>
      <point x="160" y="0" type="line"/>
      <point x="255" y="658" type="line"/>
    </contour>
    <contour>
      <point x="75" y="489" type="line"/>
      <point x="75" y="428" type="line"/>
      <point x="513" y="428" type="line"/>
      <point x="513" y="489" type="line"/>
    </contour>
  </outline>
</glyph>
<glyph name="dollar" format="1">
  <advance width="393"/>
  <unicode hex="0024"/>
  <outline>
    <contour>
      <point x="158" y="737" type="line"/>
      <point x="158" y="654" type="line"/>
      <point x="231" y="654" type="line"/>
      <point x="231" y="737" type="line"/>
    </contour>
    <contour>
      <point x="149" y="9" type="line"/>
      <point x="149" y="-72" type="line"/>
      <point x="222" y="-72" type="line"/>
      <point x="222" y="9" type="line"/>
    </contour>
    <component base="S"/>
  </outline>
</glyph>
<glyph name="ampersand" format="1">
  <advance width="462"/>
  <unicode hex="0026"/>
  <outline>
    <contour>
      <point x="54" y="528" type="curve"/>
      <point x="54" y="472" type="line" smooth="yes"/>
      <point x="54" y="410"/>
      <point x="80" y="367"/>
      <point x="130" y="348" type="curve"/>
      <point x="78" y="329"/>
      <point x="53" y="286"/>
      <point x="53" y="224" type="curve" smooth="yes"/>
      <point x="53" y="152" type="line" smooth="yes"/>
      <point x="53" y="60"/>
      <point x="112" y="-9"/>
      <point x="231" y="-9" type="curve" smooth="yes"/>
      <point x="349" y="-9"/>
      <point x="405" y="60"/>
      <point x="405" y="152" type="curve" smooth="yes"/>
      <point x="405" y="441" type="line"/>
      <point x="328" y="441" type="line"/>
      <point x="328" y="153" type="line" smooth="yes"/>
      <point x="328" y="98"/>
      <point x="299" y="61"/>
      <point x="231" y="61" type="curve" smooth="yes"/>
      <point x="162" y="61"/>
      <point x="132" y="98"/>
      <point x="132" y="153" type="curve" smooth="yes"/>
      <point x="132" y="222" type="line" smooth="yes"/>
      <point x="132" y="275"/>
      <point x="155" y="312"/>
      <point x="219" y="312" type="curve" smooth="yes"/>
      <point x="448" y="312" type="line"/>
      <point x="448" y="381" type="line"/>
      <point x="218" y="381" type="line" smooth="yes"/>
      <point x="153" y="381"/>
      <point x="133" y="418"/>
      <point x="133" y="473" type="curve" smooth="yes"/>
      <point x="133" y="523" type="line" smooth="yes"/>
      <point x="133" y="570"/>
      <point x="156" y="606"/>
      <point x="248" y="606" type="curve" smooth="yes"/>
      <point x="297" y="606"/>
      <point x="340" y="597"/>
      <point x="372" y="586" type="curve"/>
      <point x="372" y="661" type="line"/>
      <point x="345" y="670"/>
      <point x="300" y="679"/>
      <point x="247" y="679" type="curve" smooth="yes"/>
      <point x="111" y="679"/>
      <point x="54" y="617"/>
    </contour>
  </outline>
</glyph>
<glyph name="quotesingle" format="1">
  <advance width="233"/>
  <unicode hex="0027"/>
  <outline>
    <contour>
      <point x="81" y="748" type="line"/>
      <point x="81" y="538" type="line"/>
      <point x="152" y="538" type="line"/>
      <point x="152" y="748" type="line"/>
    </contour>
  </outline>
</glyph>
<glyph name="parenleft" format="1">
  <advance width="291"/>
  <unicode hex="0028"/>
  <outline>
    <contour>
      <point x="164" y="788" type="line"/>
      <point x="105" y="664"/>
      <point x="68" y="485"/>
      <point x="68" y="326" type="curve" smooth="yes"/>
      <point x="68" y="168"/>
      <point x="105" y="-13"/>
      <point x="164" y="-137" type="curve"/>
      <point x="233" y="-137" type="line"/>
      <point x="176" y="-5"/>
      <point x="137" y="168"/>
      <point x="137" y="326" type="curve" smooth="yes"/>
      <point x="137" y="484"/>
      <point x="176" y="657"/>
      <point x="233" y="788" type="curve"/>
    </contour>
  </outline>
</glyph>
<glyph name="parenright" format="1">
  <advance width="291"/>
  <unicode hex="0029"/>
  <outline>
    <contour>
      <point x="58" y="788" type="line"/>
      <point x="115" y="657"/>
      <point x="153" y="484"/>
      <point x="153" y="326" type="curve" smooth="yes"/>
      <point x="153" y="168"/>
      <point x="115" y="-5"/>
      <point x="58" y="-137" type="curve"/>
      <point x="127" y="-137" type="line"/>
      <point x="185" y="-13"/>
      <point x="223" y="168"/>
      <point x="223" y="326" type="curve" smooth="yes"/>
      <point x="223" y="485"/>
      <point x="185" y="664"/>
      <point x="127" y="788" type="curve"/>
    </contour>
  </outline>
</glyph>
<glyph name="asterisk" format="1">
  <advance width="501"/>
  <unicode hex="002A"/>
  <outline>
    <contour>
      <point x="279" y="501" type="curve" smooth="yes"/>
      <point x="338" y="420" type="line"/>
      <point x="393" y="461" type="line"/>
      <point x="334" y="542" type="line" smooth="yes"/>
      <point x="288" y="605"/>
      <point x="252" y="597"/>
      <point x="252" y="597" type="curve"/>
      <point x="252" y="597"/>
      <point x="232" y="564"/>
    </contour>
    <contour>
      <point x="169" y="541" type="curve" smooth="yes"/>
      <point x="110" y="461" type="line"/>
      <point x="166" y="420" type="line"/>
      <point x="225" y="501" type="line" smooth="yes"/>
      <point x="271" y="564"/>
      <point x="252" y="597"/>
      <point x="252" y="597" type="curve"/>
      <point x="252" y="597"/>
      <point x="215" y="605"/>
    </contour>
    <contour>
      <point x="57" y="624" type="line"/>
      <point x="152" y="593" type="line" smooth="yes"/>
      <point x="227" y="568"/>
      <point x="252" y="597"/>
      <point x="252" y="597" type="curve"/>
      <point x="252" y="597"/>
      <point x="248" y="634"/>
      <point x="173" y="659" type="curve" smooth="yes"/>
      <point x="78" y="689" type="line"/>
    </contour>
    <contour>
      <point x="217" y="790" type="line"/>
      <point x="217" y="690" type="line"/>
      <point x="217" y="612"/>
      <point x="252" y="597"/>
      <point x="252" y="597" type="curve"/>
      <point x="252" y="597"/>
      <point x="286" y="612"/>
      <point x="286" y="690" type="curve"/>
      <point x="286" y="790" type="line"/>
    </contour>
    <contour>
      <point x="330" y="659" type="line"/>
      <point x="255" y="634"/>
      <point x="252" y="597"/>
      <point x="252" y="597" type="curve"/>
      <point x="252" y="597"/>
      <point x="277" y="568"/>
      <point x="352" y="593" type="curve" smooth="yes"/>
      <point x="446" y="624" type="line"/>
      <point x="425" y="690" type="line"/>
    </contour>
  </outline>
</glyph>
<glyph name="plus" format="1">
  <advance width="446"/>
  <unicode hex="002B"/>
  <outline>
    <contour>
      <point x="187" y="506" type="line"/>
      <point x="187" y="144" type="line"/>
      <point x="259" y="144" type="line"/>
      <point x="259" y="506" type="line"/>
    </contour>
    <contour>
      <point x="42" y="358" type="line"/>
      <point x="42" y="293" type="line"/>
      <point x="404" y="293" type="line"/>
      <point x="404" y="358" type="line"/>
    </contour>
  </outline>
</glyph>
<glyph name="comma" format="1">
  <advance width="153"/>
  <unicode hex="002C"/>
  <outline>
    <contour>
      <point x="49" y="91" type="line"/>
      <point x="7" y="-127" type="line"/>
      <point x="53" y="-127" type="line"/>
      <point x="75" y="-85"/>
      <point x="126" y="15"/>
      <point x="126" y="56" type="curve" smooth="yes"/>
      <point x="126" y="79"/>
      <point x="111" y="91"/>
      <point x="88" y="91" type="curve" smooth="yes"/>
    </contour>
  </outline>
</glyph>
<glyph name="period" format="1">
  <advance width="160"/>
  <unicode hex="002E"/>
  <outline>
    <contour>
      <point x="32" y="42" type="curve" smooth="yes"/>
      <point x="32" y="13"/>
      <point x="44" y="-6"/>
      <point x="80" y="-6" type="curve" smooth="yes"/>
      <point x="115" y="-6"/>
      <point x="127" y="13"/>
      <point x="127" y="42" type="curve" smooth="yes"/>
      <point x="127" y="72"/>
      <point x="115" y="91"/>
      <point x="80" y="91" type="curve" smooth="yes"/>
      <point x="44" y="91"/>
      <point x="32" y="72"/>
    </contour>
  </outline>
</glyph>
<glyph name="slash" format="1">
  <advance width="386"/>
  <unicode hex="002F"/>
  <outline>
    <contour>
      <point x="298" y="789" type="line"/>
      <point x="33" y="-137" type="line"/>
      <point x="102" y="-137" type="line"/>
      <point x="368" y="789" type="line"/>
    </contour>
  </outline>
</glyph>
<glyph name="zero" format="1">
  <advance width="448"/>
  <unicode hex="0030"/>
  <outline>
    <contour>
      <point x="56" y="523" type="curve" smooth="yes"/>
      <point x="56" y="150" type="line" smooth="yes"/>
      <point x="56" y="59"/>
      <point x="105" y="-10"/>
      <point x="224" y="-10" type="curve" smooth="yes"/>
      <point x="343" y="-10"/>
      <point x="392" y="59"/>
      <point x="392" y="150" type="curve" smooth="yes"/>
      <point x="392" y="523" type="line" smooth="yes"/>
      <point x="392" y="615"/>
      <point x="343" y="684"/>
      <point x="224" y="684" type="curve" smooth="yes"/>
      <point x="105" y="684"/>
      <point x="56" y="615"/>
    </contour>
    <contour>
      <point x="313" y="522" type="curve" smooth="yes"/>
      <point x="313" y="152" type="line" smooth="yes"/>
      <point x="313" y="98"/>
      <point x="292" y="61"/>
      <point x="224" y="61" type="curve" smooth="yes"/>
      <point x="156" y="61"/>
      <point x="135" y="98"/>
      <point x="135" y="152" type="curve" smooth="yes"/>
      <point x="135" y="522" type="line" smooth="yes"/>
      <point x="135" y="576"/>
      <point x="156" y="613"/>
      <point x="224" y="613" type="curve" smooth="yes"/>
      <point x="292" y="613"/>
      <point x="313" y="576"/>
    </contour>
  </outline>
</glyph>
<glyph name="two" format="1">
  <advance width="405"/>
  <unicode hex="0032"/>
  <outline>
    <contour>
      <point x="53" y="661" type="curve"/>
      <point x="53" y="585" type="line"/>
      <point x="85" y="596"/>
      <point x="129" y="606"/>
      <point x="178" y="606" type="curve" smooth="yes"/>
      <point x="263" y="606"/>
      <point x="280" y="575"/>
      <point x="280" y="529" type="curve" smooth="yes"/>
      <point x="280" y="484" type="line"/>
      <point x="280" y="433"/>
      <point x="269" y="406"/>
      <point x="229" y="378" type="curve" smooth="yes"/>
      <point x="147" y="319" type="line" smooth="yes"/>
      <point x="86" y="277"/>
      <point x="42" y="237"/>
      <point x="42" y="147" type="curve" smooth="yes"/>
      <point x="42" y="0" type="line"/>
      <point x="360" y="0" type="line"/>
      <point x="360" y="72" type="line"/>
      <point x="122" y="72" type="line"/>
      <point x="122" y="142" type="line" smooth="yes"/>
      <point x="122" y="203"/>
      <point x="142" y="224"/>
      <point x="203" y="267" type="curve" smooth="yes"/>
      <point x="282" y="323" type="line" smooth="yes"/>
      <point x="339" y="362"/>
      <point x="358" y="403"/>
      <point x="359" y="477" type="curve" smooth="yes"/>
      <point x="359" y="534" type="line" smooth="yes"/>
      <point x="359" y="624"/>
      <point x="306" y="679"/>
      <point x="179" y="679" type="curve" smooth="yes"/>
      <point x="125" y="679"/>
      <point x="77" y="669"/>
    </contour>
  </outline>
</glyph>
<glyph name="colon" format="1">
  <advance width="208"/>
  <unicode hex="003A"/>
  <outline>
    <contour>
      <point x="32" y="393" type="curve" smooth="yes"/>
      <point x="32" y="363"/>
      <point x="44" y="344"/>
      <point x="80" y="344" type="curve" smooth="yes"/>
      <point x="115" y="344"/>
      <point x="127" y="363"/>
      <point x="127" y="393" type="curve" smooth="yes"/>
      <point x="127" y="422"/>
      <point x="115" y="442"/>
      <point x="80" y="442" type="curve" smooth="yes"/>
      <point x="44" y="442"/>
      <point x="32" y="422"/>
    </contour>
    <contour>
      <point x="32" y="42" type="curve" smooth="yes"/>
      <point x="32" y="13"/>
      <point x="44" y="-6"/>
      <point x="80" y="-6" type="curve" smooth="yes"/>
      <point x="115" y="-6"/>
      <point x="127" y="13"/>
      <point x="127" y="42" type="curve" smooth="yes"/>
      <point x="127" y="72"/>
      <point x="115" y="91"/>
      <point x="80" y="91" type="curve" smooth="yes"/>
      <point x="44" y="91"/>
      <point x="32" y="72"/>
    </contour>
  </outline>
</glyph>
<glyph name="semicolon" format="1">
  <advance width="206"/>
  <unicode hex="003B"/>
  <outline>
    <contour>
      <point x="49" y="91" type="line"/>
      <point x="7" y="-127" type="line"/>
      <point x="53" y="-127" type="line"/>
      <point x="75" y="-85"/>
      <point x="126" y="15"/>
      <point x="126" y="56" type="curve" smooth="yes"/>
      <point x="126" y="79"/>
      <point x="111" y="91"/>
      <point x="88" y="91" type="curve" smooth="yes"/>
    </contour>
    <contour>
      <point x="32" y="393" type="curve" smooth="yes"/>
      <point x="32" y="363"/>
      <point x="44" y="344"/>
      <point x="80" y="344" type="curve" smooth="yes"/>
      <point x="115" y="344"/>
      <point x="127" y="363"/>
      <point x="127" y="393" type="curve" smooth="yes"/>
      <point x="127" y="422"/>
      <point x="115" y="442"/>
      <point x="80" y="442" type="curve" smooth="yes"/>
      <point x="44" y="442"/>
      <point x="32" y="422"/>
    </contour>
  </outline>
</glyph>
<glyph name="less" format="1">
  <advance width="465"/>
  <unicode hex="003C"/>
  <outline>
    <contour>
      <point x="42" y="366" type="line"/>
      <point x="42" y="301" type="line"/>
      <point x="407" y="436" type="line"/>
      <point x="407" y="506" type="line"/>
    </contour>
    <contour>
      <point x="42" y="284" type="line"/>
      <point x="407" y="144" type="line"/>
      <point x="407" y="215" type="line"/>
      <point x="42" y="348" type="line"/>
    </contour>
  </outline>
</glyph>
<glyph name="equal" format="1">
  <advance width="443"/>
  <unicode hex="003D"/>
  <outline>
    <contour>
      <point x="38" y="448" type="line"/>
      <point x="38" y="383" type="line"/>
      <point x="403" y="383" type="line"/>
      <point x="403" y="448" type="line"/>
    </contour>
    <contour>
      <point x="38" y="267" type="line"/>
      <point x="38" y="201" type="line"/>
      <point x="403" y="201" type="line"/>
      <point x="403" y="267" type="line"/>
    </contour>
  </outline>
</glyph>
<glyph name="greater" format="1">
  <advance width="463"/>
  <unicode hex="003E"/>
  <outline>
    <contour>
      <point x="54" y="436" type="line"/>
      <point x="420" y="301" type="line"/>
      <point x="420" y="366" type="line"/>
      <point x="54" y="506" type="line"/>
    </contour>
    <contour>
      <point x="54" y="215" type="line"/>
      <point x="54" y="144" type="line"/>
      <point x="420" y="284" type="line"/>
      <point x="420" y="348" type="line"/>
    </contour>
  </outline>
</glyph>
<glyph name="question" format="1">
  <advance width="383"/>
  <unicode hex="003F"/>
  <outline>
    <contour>
      <point x="34" y="669" type="curve"/>
      <point x="34" y="593" type="line"/>
      <point x="65" y="603"/>
      <point x="111" y="611"/>
      <point x="155" y="611" type="curve" smooth="yes"/>
      <point x="237" y="611"/>
      <point x="258" y="584"/>
      <point x="258" y="535" type="curve" smooth="yes"/>
      <point x="258" y="444" type="line" smooth="yes"/>
      <point x="258" y="387"/>
      <point x="233" y="353"/>
      <point x="162" y="353" type="curve" smooth="yes"/>
      <point x="106" y="353" type="line"/>
      <point x="111" y="177" type="line"/>
      <point x="178" y="177" type="line"/>
      <point x="183" y="289" type="line"/>
      <point x="298" y="291"/>
      <point x="335" y="356"/>
      <point x="335" y="443" type="curve" smooth="yes"/>
      <point x="335" y="540" type="line" smooth="yes"/>
      <point x="335" y="629"/>
      <point x="281" y="684"/>
      <point x="154" y="684" type="curve" smooth="yes"/>
      <point x="103" y="684"/>
      <point x="59" y="676"/>
    </contour>
    <contour>
      <point x="97" y="42" type="curve" smooth="yes"/>
      <point x="97" y="13"/>
      <point x="109" y="-6"/>
      <point x="145" y="-6" type="curve" smooth="yes"/>
      <point x="179" y="-6"/>
      <point x="192" y="13"/>
      <point x="192" y="42" type="curve" smooth="yes"/>
      <point x="192" y="72"/>
      <point x="179" y="91"/>
      <point x="145" y="91" type="curve" smooth="yes"/>
      <point x="109" y="91"/>
      <point x="97" y="72"/>
    </contour>
  </outline>
</glyph>
<glyph name="at" format="1">
  <advance width="863"/>
  <unicode hex="0040"/>
  <outline>
    <contour>
      <point x="71" y="275" type="curve" smooth="yes"/>
      <point x="71" y="34"/>
      <point x="161" y="-115"/>
      <point x="435" y="-115" type="curve" smooth="yes"/>
      <point x="522" y="-115" type="line"/>
      <point x="522" y="-52" type="line"/>
      <point x="436" y="-52" type="line" smooth="yes"/>
      <point x="203" y="-52"/>
      <point x="141" y="73"/>
      <point x="141" y="275" type="curve" smooth="yes"/>
      <point x="141" y="477"/>
      <point x="202" y="603"/>
      <point x="436" y="603" type="curve" smooth="yes"/>
      <point x="670" y="603"/>
      <point x="731" y="486"/>
      <point x="731" y="283" type="curve" smooth="yes"/>
      <point x="731" y="131"/>
      <point x="695" y="87"/>
      <point x="639" y="87" type="curve" smooth="yes"/>
      <point x="591" y="87"/>
      <point x="569" y="109"/>
      <point x="569" y="164" type="curve" smooth="yes"/>
      <point x="569" y="391" type="line" smooth="yes"/>
      <point x="569" y="466"/>
      <point x="529" y="513"/>
      <point x="434" y="513" type="curve" smooth="yes"/>
      <point x="389" y="513"/>
      <point x="344" y="505"/>
      <point x="312" y="497" type="curve"/>
      <point x="312" y="437" type="line"/>
      <point x="359" y="449"/>
      <point x="391" y="455"/>
      <point x="434" y="455" type="curve" smooth="yes"/>
      <point x="491" y="455"/>
      <point x="504" y="428"/>
      <point x="504" y="389" type="curve" smooth="yes"/>
      <point x="504" y="333" type="line"/>
      <point x="400" y="300" type="line" smooth="yes"/>
      <point x="332" y="278"/>
      <point x="289" y="249"/>
      <point x="289" y="176" type="curve" smooth="yes"/>
      <point x="289" y="160" type="line" smooth="yes"/>
      <point x="289" y="87"/>
      <point x="332" y="47"/>
      <point x="410" y="47" type="curve" smooth="yes"/>
      <point x="497" y="47"/>
      <point x="532" y="83"/>
      <point x="532" y="83" type="curve"/>
      <point x="509" y="115" type="line"/>
      <point x="519" y="61"/>
      <point x="560" y="26"/>
      <point x="636" y="26" type="curve" smooth="yes"/>
      <point x="738" y="26"/>
      <point x="800" y="94"/>
      <point x="800" y="283" type="curve" smooth="yes"/>
      <point x="800" y="525"/>
      <point x="711" y="666"/>
      <point x="436" y="666" type="curve" smooth="yes"/>
      <point x="165" y="666"/>
      <point x="71" y="515"/>
    </contour>
    <contour>
      <point x="504" y="130" type="line"/>
      <point x="504" y="130"/>
      <point x="472" y="104"/>
      <point x="419" y="104" type="curve" smooth="yes"/>
      <point x="379" y="104"/>
      <point x="357" y="119"/>
      <point x="357" y="160" type="curve" smooth="yes"/>
      <point x="357" y="177" type="line" smooth="yes"/>
      <point x="357" y="223"/>
      <point x="379" y="234"/>
      <point x="421" y="247" type="curve" smooth="yes"/>
      <point x="504" y="272" type="line"/>
    </contour>
  </outline>
</glyph>
<glyph name="A" format="1">
  <advance width="443"/>
  <unicode hex="0041"/>
  <outline>
    <contour>
      <point x="204" y="674" type="line"/>
      <point x="349" y="0" type="line"/>
      <point x="427" y="0" type="line"/>
      <point x="277" y="674" type="line"/>
    </contour>
    <contour>
      <point x="102" y="253" type="line"/>
      <point x="102" y="185" type="line"/>
      <point x="335" y="185" type="line"/>
      <point x="335" y="253" type="line"/>
    </contour>
    <contour>
      <point x="166" y="674" type="line"/>
      <point x="16" y="0" type="line"/>
      <point x="94" y="0" type="line"/>
      <point x="236" y="674" type="line"/>
    </contour>
  </outline>
</glyph>
<glyph name="B" format="1">
  <advance width="470"/>
  <unicode hex="0042"/>
  <outline>
    <contour>
      <point x="122" y="349" type="line"/>
      <point x="122" y="304" type="line"/>
      <point x="244" y="304" type="line" smooth="yes"/>
      <point x="309" y="304"/>
      <point x="336" y="271"/>
      <point x="336" y="216" type="curve" smooth="yes"/>
      <point x="336" y="155" type="line" smooth="yes"/>
      <point x="336" y="101"/>
      <point x="309" y="68"/>
      <point x="244" y="68" type="curve" smooth="yes"/>
      <point x="111" y="68" type="line"/>
      <point x="111" y="0" type="line"/>
      <point x="252" y="0" type="line" smooth="yes"/>
      <point x="360" y="0"/>
      <point x="414" y="58"/>
      <point x="414" y="153" type="curve" smooth="yes"/>
      <point x="414" y="214" type="line" smooth="yes"/>
      <point x="414" y="295"/>
      <point x="372" y="349"/>
      <point x="269" y="349" type="curve" smooth="yes"/>
    </contour>
    <contour>
      <point x="66" y="674" type="line"/>
      <point x="66" y="0" type="line"/>
      <point x="145" y="0" type="line"/>
      <point x="145" y="674" type="line"/>
    </contour>
    <contour>
      <point x="111" y="674" type="line"/>
      <point x="111" y="606" type="line"/>
      <point x="238" y="606" type="line" smooth="yes"/>
      <point x="303" y="606"/>
      <point x="330" y="573"/>
      <point x="330" y="518" type="curve" smooth="yes"/>
      <point x="330" y="461" type="line" smooth="yes"/>
      <point x="330" y="406"/>
      <point x="303" y="374"/>
      <point x="238" y="374" type="curve" smooth="yes"/>
      <point x="122" y="374" type="line"/>
      <point x="122" y="328" type="line"/>
      <point x="263" y="328" type="line" smooth="yes"/>
      <point x="366" y="328"/>
      <point x="408" y="383"/>
      <point x="408" y="464" type="curve" smooth="yes"/>
      <point x="408" y="521" type="line" smooth="yes"/>
      <point x="408" y="616"/>
      <point x="354" y="674"/>
      <point x="246" y="674" type="curve" smooth="yes"/>
    </contour>
  </outline>
</glyph>
<glyph name="C" format="1">
  <advance width="396"/>
  <unicode hex="0043"/>
  <outline>
    <contour>
      <point x="56" y="534" type="curve" smooth="yes"/>
      <point x="56" y="139" type="line" smooth="yes"/>
      <point x="56" y="50"/>
      <point x="113" y="-5"/>
      <point x="240" y="-5" type="curve" smooth="yes"/>
      <point x="286" y="-5"/>
      <point x="332" y="2"/>
      <point x="360" y="11" type="curve"/>
      <point x="360" y="83" type="line"/>
      <point x="329" y="74"/>
      <point x="285" y="66"/>
      <point x="241" y="66" type="curve" smooth="yes"/>
      <point x="159" y="66"/>
      <point x="136" y="96"/>
      <point x="136" y="144" type="curve" smooth="yes"/>
      <point x="136" y="530" type="line" smooth="yes"/>
      <point x="136" y="578"/>
      <point x="159" y="607"/>
      <point x="241" y="607" type="curve" smooth="yes"/>
      <point x="284" y="607"/>
      <point x="327" y="600"/>
      <point x="358" y="590" type="curve"/>
      <point x="358" y="663" type="line"/>
      <point x="329" y="671"/>
      <point x="287" y="679"/>
      <point x="241" y="679" type="curve" smooth="yes"/>
      <point x="114" y="679"/>
      <point x="56" y="623"/>
    </contour>
  </outline>
</glyph>
<glyph name="D" format="1">
  <advance width="468"/>
  <unicode hex="0044"/>
  <outline>
    <contour>
      <point x="66" y="674" type="line"/>
      <point x="66" y="0" type="line"/>
      <point x="252" y="0" type="line" smooth="yes"/>
      <point x="363" y="0"/>
      <point x="412" y="63"/>
      <point x="412" y="154" type="curve" smooth="yes"/>
      <point x="412" y="523" type="line" smooth="yes"/>
      <point x="412" y="613"/>
      <point x="358" y="674"/>
      <point x="249" y="674" type="curve" smooth="yes"/>
    </contour>
    <contour>
      <point x="333" y="521" type="curve"/>
      <point x="333" y="157" type="line" smooth="yes"/>
      <point x="333" y="105"/>
      <point x="310" y="69"/>
      <point x="243" y="69" type="curve" smooth="yes"/>
      <point x="145" y="69" type="line"/>
      <point x="145" y="606" type="line"/>
      <point x="243" y="606" type="line" smooth="yes"/>
      <point x="310" y="606"/>
      <point x="333" y="572"/>
    </contour>
  </outline>
</glyph>
<glyph name="E" format="1">
  <advance width="400"/>
  <unicode hex="0045"/>
  <outline>
    <contour>
      <point x="66" y="674" type="line"/>
      <point x="66" y="0" type="line"/>
      <point x="364" y="0" type="line"/>
      <point x="364" y="69" type="line"/>
      <point x="145" y="69" type="line"/>
      <point x="145" y="305" type="line"/>
      <point x="335" y="305" type="line"/>
      <point x="335" y="375" type="line"/>
      <point x="145" y="375" type="line"/>
      <point x="145" y="604" type="line"/>
      <point x="364" y="604" type="line"/>
      <point x="364" y="674" type="line"/>
    </contour>
  </outline>
</glyph>
<glyph name="F" format="1">
  <advance width="374"/>
  <unicode hex="0046"/>
  <outline>
    <contour>
      <point x="66" y="674" type="line"/>
      <point x="66" y="0" type="line"/>
      <point x="146" y="0" type="line"/>
      <point x="146" y="290" type="line"/>
      <point x="344" y="290" type="line"/>
      <point x="344" y="360" type="line"/>
      <point x="146" y="360" type="line"/>
      <point x="146" y="604" type="line"/>
      <point x="355" y="604" type="line"/>
      <point x="355" y="674" type="line"/>
    </contour>
  </outline>
</glyph>
<glyph name="G" format="1">
  <advance width="450"/>
  <unicode hex="0047"/>
  <outline>
    <contour>
      <point x="56" y="529" type="curve" smooth="yes"/>
      <point x="56" y="139" type="line" smooth="yes"/>
      <point x="56" y="37"/>
      <point x="127" y="-5"/>
      <point x="229" y="-5" type="curve" smooth="yes"/>
      <point x="319" y="-5"/>
      <point x="361" y="17"/>
      <point x="392" y="35" type="curve"/>
      <point x="392" y="334" type="line"/>
      <point x="314" y="334" type="line"/>
      <point x="314" y="85" type="line"/>
      <point x="305" y="79"/>
      <point x="273" y="66"/>
      <point x="229" y="66" type="curve" smooth="yes"/>
      <point x="168" y="66"/>
      <point x="136" y="89"/>
      <point x="136" y="144" type="curve" smooth="yes"/>
      <point x="136" y="524" type="line" smooth="yes"/>
      <point x="136" y="575"/>
      <point x="164" y="606"/>
      <point x="249" y="606" type="curve" smooth="yes"/>
      <point x="296" y="606"/>
      <point x="339" y="597"/>
      <point x="370" y="586" type="curve"/>
      <point x="370" y="662" type="line"/>
      <point x="343" y="670"/>
      <point x="297" y="679"/>
      <point x="247" y="679" type="curve" smooth="yes"/>
      <point x="113" y="679"/>
      <point x="56" y="618"/>
    </contour>
  </outline>
</glyph>
<glyph name="H" format="1">
  <advance width="498"/>
  <unicode hex="0048"/>
  <outline>
    <contour>
      <point x="352" y="674" type="line"/>
      <point x="352" y="0" type="line"/>
      <point x="432" y="0" type="line"/>
      <point x="432" y="674" type="line"/>
    </contour>
    <contour>
      <point x="66" y="674" type="line"/>
      <point x="66" y="0" type="line"/>
      <point x="146" y="0" type="line"/>
      <point x="146" y="674" type="line"/>
    </contour>
    <contour>
      <point x="130" y="366" type="line"/>
      <point x="130" y="295" type="line"/>
      <point x="366" y="295" type="line"/>
      <point x="366" y="366" type="line"/>
    </contour>
  </outline>
</glyph>
<glyph name="I" format="1">
  <advance width="212"/>
  <unicode hex="0049"/>
  <outline>
    <contour>
      <point x="66" y="674" type="line"/>
      <point x="66" y="0" type="line"/>
      <point x="146" y="0" type="line"/>
      <point x="146" y="674" type="line"/>
    </contour>
  </outline>
</glyph>
<glyph name="J" format="1">
  <advance width="213"/>
  <unicode hex="004A"/>
  <outline>
    <contour>
      <point x="68" y="674" type="line"/>
      <point x="68" y="198" type="line" smooth="yes"/>
      <point x="68" y="99"/>
      <point x="54" y="36"/>
      <point x="31" y="-44" type="curve" smooth="yes"/>
      <point x="1" y="-149" type="line"/>
      <point x="82" y="-149" type="line"/>
      <point x="113" y="-45" type="line" smooth="yes"/>
      <point x="132" y="21"/>
      <point x="147" y="86"/>
      <point x="147" y="199" type="curve" smooth="yes"/>
      <point x="147" y="674" type="line"/>
    </contour>
  </outline>
</glyph>
<glyph name="K" format="1">
  <advance width="438"/>
  <unicode hex="004B"/>
  <outline>
    <contour>
      <point x="329" y="674" type="line"/>
      <point x="190" y="337" type="line"/>
      <point x="335" y="0" type="line"/>
      <point x="422" y="0" type="line"/>
      <point x="274" y="339" type="line"/>
      <point x="414" y="674" type="line"/>
    </contour>
    <contour>
      <point x="66" y="674" type="line"/>
      <point x="66" y="0" type="line"/>
      <point x="145" y="0" type="line"/>
      <point x="145" y="674" type="line"/>
    </contour>
  </outline>
</glyph>
<glyph name="L" format="1">
  <advance width="353"/>
  <unicode hex="004C"/>
  <outline>
    <contour>
      <point x="66" y="674" type="line"/>
      <point x="66" y="0" type="line"/>
      <point x="348" y="0" type="line"/>
      <point x="348" y="68" type="line"/>
      <point x="146" y="68" type="line"/>
      <point x="146" y="674" type="line"/>
    </contour>
  </outline>
</glyph>
<glyph name="M" format="1">
  <advance width="615"/>
  <unicode hex="004D"/>
  <outline>
    <contour>
      <point x="456" y="674" type="line"/>
      <point x="307" y="259" type="line"/>
      <point x="158" y="674" type="line"/>
      <point x="66" y="674" type="line"/>
      <point x="66" y="0" type="line"/>
      <point x="141" y="0" type="line"/>
      <point x="141" y="344" type="line"/>
      <point x="141" y="450"/>
      <point x="133" y="543"/>
      <point x="133" y="543" type="curve"/>
      <point x="267" y="179" type="line"/>
      <point x="346" y="179" type="line"/>
      <point x="480" y="543" type="line"/>
      <point x="480" y="543"/>
      <point x="473" y="459"/>
      <point x="473" y="343" type="curve"/>
      <point x="473" y="0" type="line"/>
      <point x="548" y="0" type="line"/>
      <point x="548" y="674" type="line"/>
    </contour>
  </outline>
</glyph>
<glyph name="N" format="1">
  <advance width="503"/>
  <unicode hex="004E"/>
  <outline>
    <contour>
      <point x="358" y="674" type="line"/>
      <point x="358" y="352" type="line"/>
      <point x="359" y="247"/>
      <point x="366" y="173"/>
      <point x="367" y="125" type="curve"/>
      <point x="348" y="173"/>
      <point x="324" y="244"/>
      <point x="288" y="337" type="curve"/>
      <point x="155" y="674" type="line"/>
      <point x="66" y="674" type="line"/>
      <point x="66" y="0" type="line"/>
      <point x="144" y="0" type="line"/>
      <point x="144" y="323" type="line"/>
      <point x="143" y="428"/>
      <point x="136" y="501"/>
      <point x="135" y="549" type="curve"/>
      <point x="154" y="501"/>
      <point x="179" y="430"/>
      <point x="215" y="337" type="curve"/>
      <point x="348" y="0" type="line"/>
      <point x="436" y="0" type="line"/>
      <point x="436" y="674" type="line"/>
    </contour>
  </outline>
</glyph>
<glyph name="O" format="1">
  <advance width="460"/>
  <unicode hex="004F"/>
  <outline>
    <contour>
      <point x="56" y="523" type="curve" smooth="yes"/>
      <point x="56" y="150" type="line" smooth="yes"/>
      <point x="56" y="59"/>
      <point x="111" y="-10"/>
      <point x="230" y="-10" type="curve" smooth="yes"/>
      <point x="349" y="-10"/>
      <point x="403" y="59"/>
      <point x="403" y="150" type="curve" smooth="yes"/>
      <point x="403" y="523" type="line" smooth="yes"/>
      <point x="403" y="615"/>
      <point x="349" y="684"/>
      <point x="230" y="684" type="curve" smooth="yes"/>
      <point x="111" y="684"/>
      <point x="56" y="615"/>
    </contour>
    <contour>
      <point x="325" y="521" type="curve" smooth="yes"/>
      <point x="325" y="153" type="line" smooth="yes"/>
      <point x="325" y="98"/>
      <point x="298" y="61"/>
      <point x="230" y="61" type="curve" smooth="yes"/>
      <point x="161" y="61"/>
      <point x="135" y="98"/>
      <point x="135" y="153" type="curve" smooth="yes"/>
      <point x="135" y="521" type="line" smooth="yes"/>
      <point x="135" y="576"/>
      <point x="161" y="612"/>
      <point x="230" y="612" type="curve" smooth="yes"/>
      <point x="298" y="612"/>
      <point x="325" y="575"/>
    </contour>
  </outline>
</glyph>
<glyph name="P" format="1">
  <advance width="442"/>
  <unicode hex="0050"/>
  <outline>
    <contour>
      <point x="66" y="674" type="line"/>
      <point x="66" y="0" type="line"/>
      <point x="145" y="0" type="line"/>
      <point x="145" y="228" type="line"/>
      <point x="236" y="228" type="line" smooth="yes"/>
      <point x="345" y="228"/>
      <point x="399" y="288"/>
      <point x="399" y="379" type="curve" smooth="yes"/>
      <point x="399" y="523" type="line" smooth="yes"/>
      <point x="399" y="613"/>
      <point x="345" y="674"/>
      <point x="236" y="674" type="curve" smooth="yes"/>
    </contour>
    <contour>
      <point x="321" y="517" type="curve" smooth="yes"/>
      <point x="321" y="384" type="line" smooth="yes"/>
      <point x="321" y="330"/>
      <point x="296" y="297"/>
      <point x="231" y="297" type="curve" smooth="yes"/>
      <point x="145" y="297" type="line"/>
      <point x="145" y="604" type="line"/>
      <point x="231" y="604" type="line" smooth="yes"/>
      <point x="296" y="604"/>
      <point x="321" y="572"/>
    </contour>
  </outline>
</glyph>
<glyph name="Q" format="1">
  <advance width="460"/>
  <unicode hex="0051"/>
  <outline>
    <contour>
      <point x="208" y="60" type="line"/>
      <point x="353" y="-99" type="line"/>
      <point x="450" y="-99" type="line"/>
      <point x="304" y="60" type="line"/>
    </contour>
    <component base="O"/>
  </outline>
</glyph>
<glyph name="R" format="1">
  <advance width="459"/>
  <unicode hex="0052"/>
  <outline>
    <contour>
      <point x="66" y="674" type="line"/>
      <point x="66" y="0" type="line"/>
      <point x="145" y="0" type="line"/>
      <point x="145" y="268" type="line"/>
      <point x="240" y="268" type="line" smooth="yes"/>
      <point x="351" y="268"/>
      <point x="399" y="329"/>
      <point x="399" y="421" type="curve" smooth="yes"/>
      <point x="399" y="523" type="line" smooth="yes"/>
      <point x="399" y="614"/>
      <point x="345" y="674"/>
      <point x="236" y="674" type="curve" smooth="yes"/>
    </contour>
    <contour>
      <point x="227" y="296" type="line"/>
      <point x="334" y="0" type="line"/>
      <point x="421" y="0" type="line"/>
      <point x="308" y="296" type="line"/>
    </contour>
    <contour>
      <point x="321" y="519" type="curve" smooth="yes"/>
      <point x="321" y="422" type="line" smooth="yes"/>
      <point x="321" y="366"/>
      <point x="296" y="335"/>
      <point x="231" y="335" type="curve" smooth="yes"/>
      <point x="145" y="335" type="line"/>
      <point x="145" y="605" type="line"/>
      <point x="231" y="605" type="line" smooth="yes"/>
      <point x="295" y="605"/>
      <point x="321" y="574"/>
    </contour>
  </outline>
</glyph>
<glyph name="T" format="1">
  <advance width="356"/>
  <unicode hex="0054"/>
  <outline>
    <contour>
      <point x="139" y="674" type="line"/>
      <point x="139" y="0" type="line"/>
      <point x="218" y="0" type="line"/>
      <point x="218" y="674" type="line"/>
    </contour>
    <contour>
      <point x="9" y="674" type="line"/>
      <point x="9" y="604" type="line"/>
      <point x="348" y="604" type="line"/>
      <point x="348" y="674" type="line"/>
    </contour>
  </outline>
</glyph>
<glyph name="U" format="1">
  <advance width="469"/>
  <unicode hex="0055"/>
  <outline>
    <contour>
      <point x="329" y="674" type="line"/>
      <point x="329" y="153" type="line" smooth="yes"/>
      <point x="329" y="98"/>
      <point x="303" y="61"/>
      <point x="234" y="61" type="curve" smooth="yes"/>
      <point x="166" y="61"/>
      <point x="140" y="98"/>
      <point x="140" y="153" type="curve" smooth="yes"/>
      <point x="140" y="674" type="line"/>
      <point x="61" y="674" type="line"/>
      <point x="61" y="150" type="line" smooth="yes"/>
      <point x="61" y="59"/>
      <point x="115" y="-10"/>
      <point x="234" y="-10" type="curve" smooth="yes"/>
      <point x="353" y="-10"/>
      <point x="407" y="59"/>
      <point x="407" y="150" type="curve" smooth="yes"/>
      <point x="407" y="674" type="line"/>
    </contour>
  </outline>
</glyph>
<glyph name="V" format="1">
  <advance width="426"/>
  <unicode hex="0056"/>
  <outline>
    <contour>
      <point x="332" y="674" type="line"/>
      <point x="264" y="344" type="line"/>
      <point x="247" y="255"/>
      <point x="227" y="139"/>
      <point x="214" y="75" type="curve"/>
      <point x="200" y="139"/>
      <point x="180" y="254"/>
      <point x="162" y="344" type="curve"/>
      <point x="93" y="674" type="line"/>
      <point x="12" y="674" type="line"/>
      <point x="158" y="0" type="line"/>
      <point x="269" y="0" type="line"/>
      <point x="414" y="674" type="line"/>
    </contour>
  </outline>
</glyph>
<glyph name="W" format="1">
  <advance width="607"/>
  <unicode hex="0057"/>
  <outline>
    <contour>
      <point x="514" y="674" type="line"/>
      <point x="452" y="290" type="line" smooth="yes"/>
      <point x="440" y="217"/>
      <point x="428" y="112"/>
      <point x="428" y="112" type="curve"/>
      <point x="428" y="112"/>
      <point x="414" y="217"/>
      <point x="404" y="290" type="curve" smooth="yes"/>
      <point x="343" y="674" type="line"/>
      <point x="265" y="674" type="line"/>
      <point x="204" y="291" type="line" smooth="yes"/>
      <point x="190" y="201"/>
      <point x="179" y="110"/>
      <point x="179" y="110" type="curve"/>
      <point x="179" y="110"/>
      <point x="170" y="202"/>
      <point x="156" y="290" type="curve" smooth="yes"/>
      <point x="94" y="674" type="line"/>
      <point x="19" y="674" type="line"/>
      <point x="128" y="0" type="line"/>
      <point x="220" y="0" type="line"/>
      <point x="275" y="330" type="line" smooth="yes"/>
      <point x="295" y="443"/>
      <point x="304" y="552"/>
      <point x="304" y="552" type="curve"/>
      <point x="304" y="552"/>
      <point x="314" y="446"/>
      <point x="334" y="329" type="curve" smooth="yes"/>
      <point x="389" y="0" type="line"/>
      <point x="479" y="0" type="line"/>
      <point x="588" y="674" type="line"/>
    </contour>
  </outline>
</glyph>
<glyph name="X" format="1">
  <advance width="399"/>
  <unicode hex="0058"/>
  <outline>
    <contour>
      <point x="302" y="674" type="line"/>
      <point x="200" y="424" type="line"/>
      <point x="98" y="674" type="line"/>
      <point x="12" y="674" type="line"/>
      <point x="158" y="336" type="line"/>
      <point x="12" y="0" type="line"/>
      <point x="98" y="0" type="line"/>
      <point x="200" y="248" type="line"/>
      <point x="301" y="0" type="line"/>
      <point x="387" y="0" type="line"/>
      <point x="240" y="336" type="line"/>
      <point x="387" y="674" type="line"/>
    </contour>
  </outline>
</glyph>
<glyph name="Y" format="1">
  <advance width="416"/>
  <unicode hex="0059"/>
  <outline>
    <contour>
      <point x="333" y="674" type="line"/>
      <point x="269" y="498" type="line"/>
      <point x="246" y="428"/>
      <point x="227" y="372"/>
      <point x="209" y="316" type="curve"/>
      <point x="192" y="372"/>
      <point x="174" y="428"/>
      <point x="149" y="499" type="curve"/>
      <point x="85" y="674" type="line"/>
      <point x="4" y="674" type="line"/>
      <point x="169" y="226" type="line"/>
      <point x="169" y="0" type="line"/>
      <point x="248" y="0" type="line"/>
      <point x="248" y="226" type="line"/>
      <point x="413" y="674" type="line"/>
    </contour>
  </outline>
</glyph>
<glyph name="Z" format="1">
  <advance width="386"/>
  <unicode hex="005A"/>
  <outline>
    <contour>
      <point x="33" y="674" type="line"/>
      <point x="33" y="605" type="line"/>
      <point x="274" y="605" type="line"/>
      <point x="27" y="68" type="line"/>
      <point x="27" y="0" type="line"/>
      <point x="355" y="0" type="line"/>
      <point x="355" y="68" type="line"/>
      <point x="110" y="68" type="line"/>
      <point x="358" y="607" type="line"/>
      <point x="358" y="674" type="line"/>
    </contour>
  </outline>
</glyph>
<glyph name="bracketleft" format="1">
  <advance width="303"/>
  <unicode hex="005B"/>
  <outline>
    <contour>
      <point x="82" y="415" type="line"/>
      <point x="82" y="-138" type="line"/>
      <point x="272" y="-138" type="line"/>
      <point x="272" y="-76" type="line"/>
      <point x="149" y="-76" type="line"/>
      <point x="149" y="415" type="line"/>
    </contour>
    <contour>
      <point x="82" y="794" type="line"/>
      <point x="82" y="412" type="line"/>
      <point x="149" y="412" type="line"/>
      <point x="149" y="732" type="line"/>
      <point x="272" y="732" type="line"/>
      <point x="272" y="794" type="line"/>
    </contour>
  </outline>
</glyph>
<glyph name="backslash" format="1">
  <advance width="401"/>
  <unicode hex="005C"/>
  <outline>
    <contour>
      <point x="33" y="794" type="line"/>
      <point x="303" y="-138" type="line"/>
      <point x="374" y="-138" type="line"/>
      <point x="104" y="794" type="line"/>
    </contour>
  </outline>
</glyph>
<glyph name="bracketright" format="1">
  <advance width="303"/>
  <unicode hex="005D"/>
  <outline>
    <contour>
      <point x="154" y="415" type="line"/>
      <point x="154" y="-76" type="line"/>
      <point x="31" y="-76" type="line"/>
      <point x="31" y="-138" type="line"/>
      <point x="221" y="-138" type="line"/>
      <point x="221" y="415" type="line"/>
    </contour>
    <contour>
      <point x="31" y="794" type="line"/>
      <point x="31" y="732" type="line"/>
      <point x="154" y="732" type="line"/>
      <point x="154" y="412" type="line"/>
      <point x="221" y="412" type="line"/>
      <point x="221" y="794" type="line"/>
    </contour>
  </outline>
</glyph>
<glyph name="asciicircum" format="1">
  <advance width="329"/>
  <unicode hex="005E"/>
  <outline>
    <contour>
      <point x="148" y="671" type="line"/>
      <point x="246" y="381" type="line"/>
      <point x="322" y="381" type="line"/>
      <point x="213" y="671" type="line"/>
    </contour>
    <contour>
      <point x="113" y="671" type="line"/>
      <point x="3" y="381" type="line"/>
      <point x="79" y="381" type="line"/>
      <point x="177" y="671" type="line"/>
    </contour>
  </outline>
</glyph>
<glyph name="underscore" format="1">
  <advance width="485"/>
  <unicode hex="005F"/>
  <outline>
    <contour>
      <point x="3" y="-11" type="line"/>
      <point x="3" y="-74" type="line"/>
      <point x="482" y="-74" type="line"/>
      <point x="482" y="-11" type="line"/>
    </contour>
  </outline>
</glyph>
<glyph name="grave" format="1">
  <advance width="350"/>
  <unicode hex="0060"/>
  <outline>
    <contour>
      <point x="120" y="723" type="line"/>
      <point x="181" y="615" type="line"/>
      <point x="230" y="615" type="line"/>
      <point x="191" y="723" type="line"/>
    </contour>
  </outline>
</glyph>
<glyph name="a" format="1">
  <advance width="426"/>
  <unicode hex="0061"/>
  <outline>
    <contour>
      <point x="58" y="557" type="curve"/>
      <point x="58" y="484" type="line"/>
      <point x="85" y="494"/>
      <point x="138" y="504"/>
      <point x="188" y="504" type="curve" smooth="yes"/>
      <point x="269" y="504"/>
      <point x="288" y="477"/>
      <point x="289" y="428" type="curve" smooth="yes"/>
      <point x="289" y="344" type="line"/>
      <point x="152" y="306" type="line" smooth="yes"/>
      <point x="67" y="282"/>
      <point x="30" y="238"/>
      <point x="30" y="166" type="curve" smooth="yes"/>
      <point x="30" y="134" type="line" smooth="yes"/>
      <point x="30" y="46"/>
      <point x="71" y="-3"/>
      <point x="169" y="-3" type="curve" smooth="yes"/>
      <point x="234" y="-3"/>
      <point x="263" y="17"/>
      <point x="290" y="41" type="curve"/>
      <point x="290" y="0" type="line"/>
      <point x="365" y="0" type="line"/>
      <point x="365" y="427" type="line" smooth="yes"/>
      <point x="365" y="521"/>
      <point x="318" y="576"/>
      <point x="192" y="576" type="curve" smooth="yes"/>
      <point x="137" y="576"/>
      <point x="85" y="566"/>
    </contour>
    <contour>
      <point x="288" y="96" type="line"/>
      <point x="265" y="77"/>
      <point x="228" y="60"/>
      <point x="185" y="60" type="curve" smooth="yes"/>
      <point x="127" y="60"/>
      <point x="108" y="85"/>
      <point x="108" y="133" type="curve" smooth="yes"/>
      <point x="108" y="163" type="line" smooth="yes"/>
      <point x="108" y="207"/>
      <point x="123" y="229"/>
      <point x="181" y="246" type="curve" smooth="yes"/>
      <point x="288" y="276" type="line"/>
    </contour>
  </outline>
</glyph>
<glyph name="b" format="1">
  <advance width="449"/>
  <unicode hex="0062"/>
  <outline>
    <contour>
      <point x="66" y="723" type="line"/>
      <point x="66" y="0" type="line"/>
      <point x="244" y="0" type="line"/>
      <point x="332" y="0"/>
      <point x="392" y="50"/>
      <point x="392" y="148" type="curve" smooth="yes"/>
      <point x="392" y="442" type="line" smooth="yes"/>
      <point x="392" y="528"/>
      <point x="339" y="574"/>
      <point x="260" y="574" type="curve" smooth="yes"/>
      <point x="213" y="574"/>
      <point x="168" y="559"/>
      <point x="145" y="550" type="curve"/>
      <point x="145" y="723" type="line"/>
    </contour>
    <contour>
      <point x="313" y="431" type="curve" smooth="yes"/>
      <point x="313" y="155" type="line" smooth="yes"/>
      <point x="313" y="97"/>
      <point x="281" y="72"/>
      <point x="225" y="72" type="curve" smooth="yes"/>
      <point x="145" y="72" type="line"/>
      <point x="145" y="477" type="line"/>
      <point x="175" y="489"/>
      <point x="209" y="500"/>
      <point x="244" y="500" type="curve" smooth="yes"/>
      <point x="287" y="500"/>
      <point x="313" y="479"/>
    </contour>
  </outline>
</glyph>
<glyph name="d" format="1">
  <advance width="448"/>
  <unicode hex="0064"/>
  <outline>
    <contour>
      <point x="303" y="723" type="line"/>
      <point x="303" y="571" type="line"/>
      <point x="214" y="571" type="line"/>
      <point x="118" y="571"/>
      <point x="56" y="516"/>
      <point x="56" y="418" type="curve"/>
      <point x="56" y="139" type="line" smooth="yes"/>
      <point x="56" y="49"/>
      <point x="104" y="-3"/>
      <point x="196" y="-3" type="curve"/>
      <point x="254" y="-3"/>
      <point x="286" y="18"/>
      <point x="305" y="34" type="curve"/>
      <point x="305" y="0" type="line"/>
      <point x="382" y="0" type="line"/>
      <point x="382" y="723" type="line"/>
    </contour>
    <contour>
      <point x="303" y="100" type="line"/>
      <point x="286" y="84"/>
      <point x="254" y="68"/>
      <point x="211" y="68" type="curve"/>
      <point x="160" y="68"/>
      <point x="135" y="94"/>
      <point x="135" y="146" type="curve" smooth="yes"/>
      <point x="135" y="417" type="line" smooth="yes"/>
      <point x="135" y="472"/>
      <point x="167" y="500"/>
      <point x="226" y="500" type="curve" smooth="yes"/>
      <point x="303" y="500" type="line"/>
    </contour>
  </outline>
</glyph>
<glyph name="e" format="1">
  <advance width="436"/>
  <unicode hex="0065"/>
  <outline>
    <contour>
      <point x="56" y="425" type="curve" smooth="yes"/>
      <point x="56" y="176" type="line"/>
      <point x="134" y="175" type="line"/>
      <point x="134" y="424" type="line" smooth="yes"/>
      <point x="134" y="477"/>
      <point x="158" y="513"/>
      <point x="222" y="513" type="curve" smooth="yes"/>
      <point x="286" y="513"/>
      <point x="310" y="477"/>
      <point x="310" y="424" type="curve" smooth="yes"/>
      <point x="310" y="273" type="line"/>
      <point x="386" y="273" type="line"/>
      <point x="386" y="425" type="line" smooth="yes"/>
      <point x="386" y="514"/>
      <point x="338" y="581"/>
      <point x="222" y="581" type="curve" smooth="yes"/>
      <point x="106" y="581"/>
      <point x="56" y="514"/>
    </contour>
    <contour>
      <point x="56" y="199" type="line"/>
      <point x="56" y="147" type="line" smooth="yes"/>
      <point x="56" y="47"/>
      <point x="116" y="-5"/>
      <point x="247" y="-5" type="curve" smooth="yes"/>
      <point x="304" y="-5"/>
      <point x="340" y="3"/>
      <point x="369" y="11" type="curve"/>
      <point x="369" y="84" type="line"/>
      <point x="342" y="75"/>
      <point x="300" y="66"/>
      <point x="251" y="66" type="curve" smooth="yes"/>
      <point x="165" y="66"/>
      <point x="134" y="95"/>
      <point x="134" y="151" type="curve" smooth="yes"/>
      <point x="134" y="199" type="line"/>
    </contour>
    <contour>
      <point x="115" y="312" type="line"/>
      <point x="115" y="247" type="line"/>
      <point x="386" y="247" type="line"/>
      <point x="386" y="312" type="line"/>
    </contour>
  </outline>
</glyph>
<glyph name="f" format="1">
  <advance width="275"/>
  <unicode hex="0066"/>
  <outline>
    <contour>
      <point x="87" y="603" type="curve" smooth="yes"/>
      <point x="87" y="571" type="line"/>
      <point x="30" y="571" type="line"/>
      <point x="30" y="505" type="line"/>
      <point x="87" y="505" type="line"/>
      <point x="87" y="0" type="line"/>
      <point x="166" y="0" type="line"/>
      <point x="166" y="505" type="line"/>
      <point x="269" y="505" type="line"/>
      <point x="269" y="571" type="line"/>
      <point x="166" y="571" type="line"/>
      <point x="166" y="603" type="line" smooth="yes"/>
      <point x="166" y="655"/>
      <point x="192" y="676"/>
      <point x="236" y="676" type="curve" smooth="yes"/>
      <point x="250" y="676"/>
      <point x="264" y="675"/>
      <point x="275" y="672" type="curve"/>
      <point x="275" y="738" type="line"/>
      <point x="261" y="740"/>
      <point x="244" y="742"/>
      <point x="229" y="742" type="curve" smooth="yes"/>
      <point x="134" y="742"/>
      <point x="87" y="690"/>
    </contour>
  </outline>
</glyph>
<glyph name="h" format="1">
  <advance width="452"/>
  <unicode hex="0068"/>
  <outline>
    <contour>
      <point x="66" y="723" type="line"/>
      <point x="66" y="0" type="line"/>
      <point x="145" y="0" type="line"/>
      <point x="145" y="476" type="line"/>
      <point x="170" y="489"/>
      <point x="207" y="500"/>
      <point x="243" y="500" type="curve" smooth="yes"/>
      <point x="286" y="500"/>
      <point x="311" y="479"/>
      <point x="311" y="431" type="curve" smooth="yes"/>
      <point x="311" y="0" type="line"/>
      <point x="391" y="0" type="line"/>
      <point x="391" y="442" type="line" smooth="yes"/>
      <point x="391" y="530"/>
      <point x="336" y="573"/>
      <point x="254" y="573" type="curve" smooth="yes"/>
      <point x="213" y="573"/>
      <point x="174" y="562"/>
      <point x="145" y="549" type="curve"/>
      <point x="145" y="723" type="line"/>
    </contour>
  </outline>
</glyph>
<glyph name="i" format="1">
  <advance width="212"/>
  <unicode hex="0069"/>
  <outline>
    <contour>
      <point x="66" y="566" type="line"/>
      <point x="66" y="0" type="line"/>
      <point x="145" y="0" type="line"/>
      <point x="145" y="566" type="line"/>
    </contour>
    <contour>
      <point x="58" y="679" type="curve" smooth="yes"/>
      <point x="58" y="650"/>
      <point x="71" y="631"/>
      <point x="106" y="631" type="curve" smooth="yes"/>
      <point x="141" y="631"/>
      <point x="153" y="650"/>
      <point x="153" y="679" type="curve" smooth="yes"/>
      <point x="153" y="709"/>
      <point x="141" y="728"/>
      <point x="106" y="728" type="curve" smooth="yes"/>
      <point x="71" y="728"/>
      <point x="58" y="709"/>
    </contour>
  </outline>
</glyph>
<glyph name="j" format="1">
  <advance width="212"/>
  <unicode hex="006A"/>
  <outline>
    <contour>
      <point x="66" y="566" type="line"/>
      <point x="66" y="-5" type="line" smooth="yes"/>
      <point x="66" y="-57"/>
      <point x="47" y="-79"/>
      <point x="2" y="-79" type="curve" smooth="yes"/>
      <point x="-7" y="-79"/>
      <point x="-16" y="-78"/>
      <point x="-24" y="-77" type="curve"/>
      <point x="-24" y="-148" type="line"/>
      <point x="-14" y="-150"/>
      <point x="-4" y="-151"/>
      <point x="6" y="-151" type="curve" smooth="yes"/>
      <point x="99" y="-151"/>
      <point x="145" y="-95"/>
      <point x="145" y="-5" type="curve" smooth="yes"/>
      <point x="145" y="566" type="line"/>
    </contour>
    <contour>
      <point x="58" y="679" type="curve" smooth="yes"/>
      <point x="58" y="650"/>
      <point x="71" y="631"/>
      <point x="106" y="631" type="curve" smooth="yes"/>
      <point x="141" y="631"/>
      <point x="153" y="650"/>
      <point x="153" y="679" type="curve" smooth="yes"/>
      <point x="153" y="709"/>
      <point x="141" y="728"/>
      <point x="106" y="728" type="curve" smooth="yes"/>
      <point x="71" y="728"/>
      <point x="58" y="709"/>
    </contour>
  </outline>
</glyph>
<glyph name="k" format="1">
  <advance width="405"/>
  <unicode hex="006B"/>
  <outline>
    <contour>
      <point x="297" y="571" type="line"/>
      <point x="176" y="298" type="line"/>
      <point x="304" y="0" type="line"/>
      <point x="390" y="0" type="line"/>
      <point x="258" y="297" type="line"/>
      <point x="380" y="571" type="line"/>
    </contour>
    <contour>
      <point x="66" y="723" type="line"/>
      <point x="66" y="0" type="line"/>
      <point x="144" y="0" type="line"/>
      <point x="144" y="723" type="line"/>
    </contour>
  </outline>
</glyph>
<glyph name="m" format="1">
  <advance width="698"/>
  <unicode hex="006D"/>
  <outline>
    <contour>
      <point x="361" y="533" type="curve"/>
      <point x="337" y="559"/>
      <point x="301" y="573"/>
      <point x="258" y="573" type="curve" smooth="yes"/>
      <point x="211" y="573"/>
      <point x="166" y="555"/>
      <point x="142" y="545" type="curve"/>
      <point x="142" y="571" type="line"/>
      <point x="66" y="571" type="line"/>
      <point x="66" y="0" type="line"/>
      <point x="145" y="0" type="line"/>
      <point x="145" y="475" type="line"/>
      <point x="175" y="490"/>
      <point x="207" y="500"/>
      <point x="243" y="500" type="curve" smooth="yes"/>
      <point x="286" y="500"/>
      <point x="311" y="479"/>
      <point x="311" y="431" type="curve" smooth="yes"/>
      <point x="311" y="0" type="line"/>
      <point x="391" y="0" type="line"/>
      <point x="391" y="432" type="line" smooth="yes"/>
      <point x="391" y="445"/>
      <point x="389" y="458"/>
      <point x="386" y="469" type="curve"/>
      <point x="419" y="490"/>
      <point x="453" y="500"/>
      <point x="488" y="500" type="curve" smooth="yes"/>
      <point x="531" y="500"/>
      <point x="557" y="479"/>
      <point x="557" y="431" type="curve" smooth="yes"/>
      <point x="557" y="0" type="line"/>
      <point x="636" y="0" type="line"/>
      <point x="636" y="442" type="line" smooth="yes"/>
      <point x="636" y="528"/>
      <point x="583" y="573"/>
      <point x="504" y="573" type="curve" smooth="yes"/>
      <point x="459" y="573"/>
      <point x="410" y="561"/>
    </contour>
  </outline>
</glyph>
<glyph name="n" format="1">
  <advance width="452"/>
  <unicode hex="006E"/>
  <outline>
    <contour>
      <point x="142" y="545" type="curve"/>
      <point x="142" y="571" type="line"/>
      <point x="66" y="571" type="line"/>
      <point x="66" y="0" type="line"/>
      <point x="145" y="0" type="line"/>
      <point x="145" y="475" type="line"/>
      <point x="175" y="490"/>
      <point x="207" y="500"/>
      <point x="243" y="500" type="curve"/>
      <point x="286" y="500"/>
      <point x="311" y="479"/>
      <point x="311" y="431" type="curve" smooth="yes"/>
      <point x="311" y="0" type="line"/>
      <point x="391" y="0" type="line"/>
      <point x="391" y="442" type="line" smooth="yes"/>
      <point x="391" y="528"/>
      <point x="338" y="573"/>
      <point x="258" y="573" type="curve"/>
      <point x="211" y="573"/>
      <point x="166" y="555"/>
    </contour>
  </outline>
</glyph>
<glyph name="o" format="1">
  <advance width="443"/>
  <unicode hex="006F"/>
  <outline>
    <contour>
      <point x="56" y="425" type="curve" smooth="yes"/>
      <point x="56" y="145" type="line" smooth="yes"/>
      <point x="56" y="56"/>
      <point x="105" y="-10"/>
      <point x="221" y="-10" type="curve" smooth="yes"/>
      <point x="337" y="-10"/>
      <point x="386" y="56"/>
      <point x="386" y="145" type="curve" smooth="yes"/>
      <point x="386" y="425" type="line" smooth="yes"/>
      <point x="386" y="515"/>
      <point x="337" y="581"/>
      <point x="221" y="581" type="curve" smooth="yes"/>
      <point x="105" y="581"/>
      <point x="56" y="515"/>
    </contour>
    <contour>
      <point x="308" y="424" type="curve" smooth="yes"/>
      <point x="308" y="147" type="line" smooth="yes"/>
      <point x="308" y="94"/>
      <point x="286" y="59"/>
      <point x="221" y="59" type="curve" smooth="yes"/>
      <point x="157" y="59"/>
      <point x="134" y="94"/>
      <point x="134" y="147" type="curve" smooth="yes"/>
      <point x="134" y="424" type="line" smooth="yes"/>
      <point x="134" y="476"/>
      <point x="157" y="512"/>
      <point x="221" y="512" type="curve" smooth="yes"/>
      <point x="286" y="512"/>
      <point x="308" y="476"/>
    </contour>
  </outline>
</glyph>
<glyph name="p" format="1">
  <advance width="449"/>
  <unicode hex="0070"/>
  <outline>
    <contour>
      <point x="142" y="544" type="curve"/>
      <point x="142" y="571" type="line"/>
      <point x="66" y="571" type="line"/>
      <point x="66" y="-149" type="line"/>
      <point x="145" y="-149" type="line"/>
      <point x="145" y="0" type="line"/>
      <point x="244" y="0" type="line" smooth="yes"/>
      <point x="332" y="0"/>
      <point x="392" y="53"/>
      <point x="392" y="149" type="curve" smooth="yes"/>
      <point x="392" y="442" type="line" smooth="yes"/>
      <point x="392" y="528"/>
      <point x="339" y="573"/>
      <point x="259" y="573" type="curve" smooth="yes"/>
      <point x="213" y="573"/>
      <point x="165" y="554"/>
    </contour>
    <contour>
      <point x="313" y="431" type="curve" smooth="yes"/>
      <point x="313" y="156" type="line" smooth="yes"/>
      <point x="313" y="100"/>
      <point x="282" y="72"/>
      <point x="225" y="72" type="curve" smooth="yes"/>
      <point x="145" y="72" type="line"/>
      <point x="145" y="475" type="line"/>
      <point x="175" y="490"/>
      <point x="207" y="500"/>
      <point x="243" y="500" type="curve" smooth="yes"/>
      <point x="286" y="500"/>
      <point x="313" y="479"/>
    </contour>
  </outline>
</glyph>
<glyph name="q" format="1">
  <advance width="448"/>
  <unicode hex="0071"/>
  <outline>
    <contour>
      <point x="217" y="571" type="line"/>
      <point x="117" y="571"/>
      <point x="56" y="511"/>
      <point x="56" y="414" type="curve" smooth="yes"/>
      <point x="56" y="144" type="line" smooth="yes"/>
      <point x="56" y="50"/>
      <point x="104" y="-2"/>
      <point x="199" y="-2" type="curve" smooth="yes"/>
      <point x="252" y="-2"/>
      <point x="285" y="13"/>
      <point x="304" y="26" type="curve"/>
      <point x="304" y="-149" type="line"/>
      <point x="382" y="-149" type="line"/>
      <point x="382" y="571" type="line"/>
    </contour>
    <contour>
      <point x="303" y="100" type="line"/>
      <point x="286" y="85"/>
      <point x="255" y="69"/>
      <point x="212" y="69" type="curve" smooth="yes"/>
      <point x="161" y="69"/>
      <point x="135" y="95"/>
      <point x="135" y="148" type="curve" smooth="yes"/>
      <point x="135" y="412" type="line" smooth="yes"/>
      <point x="135" y="471"/>
      <point x="170" y="500"/>
      <point x="228" y="500" type="curve" smooth="yes"/>
      <point x="303" y="500" type="line"/>
    </contour>
  </outline>
</glyph>
<glyph name="r" format="1">
  <advance width="286"/>
  <unicode hex="0072"/>
  <outline>
    <contour>
      <point x="257" y="574" type="line"/>
      <point x="202" y="574"/>
      <point x="182" y="555"/>
      <point x="142" y="528" type="curve"/>
      <point x="142" y="571" type="line"/>
      <point x="66" y="571" type="line"/>
      <point x="66" y="0" type="line"/>
      <point x="145" y="0" type="line"/>
      <point x="145" y="456" type="line"/>
      <point x="187" y="485"/>
      <point x="207" y="499"/>
      <point x="249" y="499" type="curve"/>
      <point x="281" y="499" type="line"/>
      <point x="281" y="574" type="line"/>
    </contour>
  </outline>
</glyph>
<glyph name="s" format="1">
  <advance width="364"/>
  <unicode hex="0073"/>
  <outline>
    <contour>
      <point x="28" y="435" type="curve" smooth="yes"/>
      <point x="28" y="402" type="line" smooth="yes"/>
      <point x="28" y="336"/>
      <point x="58" y="300"/>
      <point x="110" y="275" type="curve" smooth="yes"/>
      <point x="195" y="234" type="line" smooth="yes"/>
      <point x="245" y="209"/>
      <point x="258" y="193"/>
      <point x="258" y="158" type="curve" smooth="yes"/>
      <point x="258" y="139" type="line" smooth="yes"/>
      <point x="258" y="93"/>
      <point x="233" y="66"/>
      <point x="145" y="66" type="curve" smooth="yes"/>
      <point x="99" y="66"/>
      <point x="59" y="74"/>
      <point x="31" y="84" type="curve"/>
      <point x="31" y="11" type="line"/>
      <point x="60" y="2"/>
      <point x="97" y="-5"/>
      <point x="151" y="-5" type="curve" smooth="yes"/>
      <point x="277" y="-5"/>
      <point x="337" y="45"/>
      <point x="337" y="137" type="curve" smooth="yes"/>
      <point x="337" y="164" type="line"/>
      <point x="337" y="226"/>
      <point x="301" y="260"/>
      <point x="248" y="287" type="curve" smooth="yes"/>
      <point x="162" y="330" type="line" smooth="yes"/>
      <point x="119" y="351"/>
      <point x="105" y="366"/>
      <point x="105" y="408" type="curve" smooth="yes"/>
      <point x="105" y="432" type="line" smooth="yes"/>
      <point x="105" y="480"/>
      <point x="121" y="505"/>
      <point x="205" y="505" type="curve" smooth="yes"/>
      <point x="246" y="505"/>
      <point x="287" y="496"/>
      <point x="313" y="487" type="curve"/>
      <point x="313" y="559" type="line"/>
      <point x="285" y="568"/>
      <point x="242" y="576"/>
      <point x="201" y="576" type="curve" smooth="yes"/>
      <point x="75" y="576"/>
      <point x="28" y="526"/>
    </contour>
  </outline>
</glyph>
<glyph name="u" format="1">
  <advance width="453"/>
  <unicode hex="0075"/>
  <outline>
    <contour>
      <point x="308" y="571" type="line"/>
      <point x="308" y="97" type="line"/>
      <point x="305" y="96"/>
      <point x="269" y="68"/>
      <point x="217" y="68" type="curve" smooth="yes"/>
      <point x="166" y="68"/>
      <point x="141" y="95"/>
      <point x="141" y="148" type="curve" smooth="yes"/>
      <point x="141" y="571" type="line"/>
      <point x="61" y="571" type="line"/>
      <point x="61" y="139" type="line" smooth="yes"/>
      <point x="61" y="48"/>
      <point x="109" y="-2"/>
      <point x="201" y="-2" type="curve" smooth="yes"/>
      <point x="263" y="-2"/>
      <point x="306" y="24"/>
      <point x="311" y="27" type="curve"/>
      <point x="311" y="0" type="line"/>
      <point x="387" y="0" type="line"/>
      <point x="387" y="571" type="line"/>
    </contour>
  </outline>
</glyph>
<glyph name="v" format="1">
  <advance width="391"/>
  <unicode hex="0076"/>
  <outline>
    <contour>
      <point x="296" y="571" type="line"/>
      <point x="244" y="317" type="line" smooth="yes"/>
      <point x="218" y="189"/>
      <point x="196" y="57"/>
      <point x="196" y="57" type="curve"/>
      <point x="196" y="57"/>
      <point x="176" y="188"/>
      <point x="149" y="318" type="curve" smooth="yes"/>
      <point x="96" y="571" type="line"/>
      <point x="16" y="571" type="line"/>
      <point x="142" y="0" type="line"/>
      <point x="250" y="0" type="line"/>
      <point x="375" y="571" type="line"/>
    </contour>
  </outline>
</glyph>
<glyph name="w" format="1">
  <advance width="600"/>
  <unicode hex="0077"/>
  <outline>
    <contour>
      <point x="505" y="571" type="line"/>
      <point x="428" y="84" type="line"/>
      <point x="343" y="571" type="line"/>
      <point x="259" y="571" type="line"/>
      <point x="173" y="84" type="line"/>
      <point x="97" y="571" type="line"/>
      <point x="16" y="571" type="line"/>
      <point x="119" y="0" type="line"/>
      <point x="223" y="0" type="line"/>
      <point x="273" y="278" type="line"/>
      <point x="287" y="357"/>
      <point x="299" y="450"/>
      <point x="301" y="466" type="curve"/>
      <point x="303" y="450"/>
      <point x="318" y="346"/>
      <point x="330" y="277" type="curve" smooth="yes"/>
      <point x="378" y="0" type="line"/>
      <point x="483" y="0" type="line"/>
      <point x="585" y="571" type="line"/>
    </contour>
  </outline>
</glyph>
<glyph name="x" format="1">
  <advance width="367"/>
  <unicode hex="0078"/>
  <outline>
    <contour>
      <point x="275" y="571" type="line"/>
      <point x="184" y="364" type="line"/>
      <point x="92" y="571" type="line"/>
      <point x="9" y="571" type="line"/>
      <point x="142" y="286" type="line"/>
      <point x="9" y="0" type="line"/>
      <point x="92" y="0" type="line"/>
      <point x="184" y="209" type="line"/>
      <point x="275" y="0" type="line"/>
      <point x="358" y="0" type="line"/>
      <point x="223" y="286" type="line"/>
      <point x="358" y="571" type="line"/>
    </contour>
  </outline>
</glyph>
<glyph name="y" format="1">
  <advance width="394"/>
  <unicode hex="0079"/>
  <outline>
    <contour>
      <point x="298" y="571" type="line"/>
      <point x="240" y="297" type="line"/>
      <point x="216" y="175"/>
      <point x="197" y="57"/>
      <point x="197" y="57" type="curve"/>
      <point x="197" y="57"/>
      <point x="180" y="174"/>
      <point x="154" y="298" type="curve" smooth="yes"/>
      <point x="97" y="571" type="line"/>
      <point x="17" y="571" type="line"/>
      <point x="141" y="0" type="line"/>
      <point x="177" y="0" type="line"/>
      <point x="146" y="-149" type="line"/>
      <point x="222" y="-149" type="line"/>
      <point x="377" y="571" type="line"/>
    </contour>
  </outline>
</glyph>
<glyph name="z" format="1">
  <advance width="325"/>
  <unicode hex="007A"/>
  <outline>
    <contour>
      <point x="25" y="571" type="line"/>
      <point x="25" y="503" type="line"/>
      <point x="220" y="503" type="line"/>
      <point x="20" y="58" type="line"/>
      <point x="20" y="0" type="line"/>
      <point x="304" y="0" type="line"/>
      <point x="304" y="68" type="line"/>
      <point x="101" y="68" type="line"/>
      <point x="304" y="513" type="line"/>
      <point x="304" y="571" type="line"/>
    </contour>
  </outline>
</glyph>
<glyph name="braceleft" format="1">
  <advance width="357"/>
  <unicode hex="007B"/>
  <outline>
    <contour>
      <point x="206" y="658" type="line"/>
      <point x="206" y="697"/>
      <point x="226" y="722"/>
      <point x="283" y="722" type="curve" smooth="yes"/>
      <point x="301" y="722" type="line"/>
      <point x="301" y="789" type="line"/>
      <point x="280" y="789" type="line" smooth="yes"/>
      <point x="188" y="789"/>
      <point x="137" y="738"/>
      <point x="137" y="656" type="curve" smooth="yes"/>
      <point x="137" y="429" type="line" smooth="yes"/>
      <point x="137" y="386"/>
      <point x="111" y="360"/>
      <point x="61" y="360" type="curve" smooth="yes"/>
      <point x="58" y="360" type="line"/>
      <point x="58" y="293" type="line"/>
      <point x="61" y="293" type="line" smooth="yes"/>
      <point x="111" y="293"/>
      <point x="137" y="266"/>
      <point x="137" y="223" type="curve" smooth="yes"/>
      <point x="137" y="-4" type="line" smooth="yes"/>
      <point x="137" y="-86"/>
      <point x="188" y="-137"/>
      <point x="280" y="-137" type="curve" smooth="yes"/>
      <point x="301" y="-137" type="line"/>
      <point x="301" y="-70" type="line"/>
      <point x="283" y="-70" type="line" smooth="yes"/>
      <point x="226" y="-70"/>
      <point x="206" y="-45"/>
      <point x="206" y="-6" type="curve" smooth="yes"/>
      <point x="206" y="201" type="line" smooth="yes"/>
      <point x="206" y="274"/>
      <point x="189" y="317"/>
      <point x="119" y="326" type="curve"/>
      <point x="189" y="336"/>
      <point x="206" y="381"/>
      <point x="206" y="454" type="curve" smooth="yes"/>
    </contour>
  </outline>
</glyph>
<glyph name="bar" format="1">
  <advance width="209"/>
  <unicode hex="007C"/>
  <outline>
    <contour>
      <point x="75" y="811" type="line"/>
      <point x="75" y="-154" type="line"/>
      <point x="134" y="-154" type="line"/>
      <point x="134" y="811" type="line"/>
    </contour>
  </outline>
</glyph>
<glyph name="braceright" format="1">
  <advance width="356"/>
  <unicode hex="007D"/>
  <outline>
    <contour>
      <point x="294" y="360" type="line"/>
      <point x="245" y="360"/>
      <point x="219" y="386"/>
      <point x="219" y="429" type="curve" smooth="yes"/>
      <point x="219" y="656" type="line" smooth="yes"/>
      <point x="219" y="738"/>
      <point x="168" y="789"/>
      <point x="76" y="789" type="curve" smooth="yes"/>
      <point x="54" y="789" type="line"/>
      <point x="54" y="722" type="line"/>
      <point x="72" y="722" type="line" smooth="yes"/>
      <point x="130" y="722"/>
      <point x="149" y="697"/>
      <point x="149" y="658" type="curve" smooth="yes"/>
      <point x="149" y="454" type="line" smooth="yes"/>
      <point x="149" y="381"/>
      <point x="167" y="336"/>
      <point x="236" y="326" type="curve"/>
      <point x="167" y="317"/>
      <point x="149" y="274"/>
      <point x="149" y="201" type="curve" smooth="yes"/>
      <point x="149" y="-6" type="line" smooth="yes"/>
      <point x="149" y="-45"/>
      <point x="130" y="-70"/>
      <point x="72" y="-70" type="curve" smooth="yes"/>
      <point x="54" y="-70" type="line"/>
      <point x="54" y="-137" type="line"/>
      <point x="76" y="-137" type="line" smooth="yes"/>
      <point x="168" y="-137"/>
      <point x="219" y="-86"/>
      <point x="219" y="-4" type="curve" smooth="yes"/>
      <point x="219" y="223" type="line" smooth="yes"/>
      <point x="219" y="266"/>
      <point x="245" y="293"/>
      <point x="294" y="293" type="curve" smooth="yes"/>
      <point x="297" y="293" type="line"/>
      <point x="297" y="360" type="line"/>
    </contour>
  </outline>
</glyph>
<glyph name="asciitilde" format="1">
  <advance width="446"/>
  <unicode hex="007E"/>
  <outline>
    <contour>
      <point x="354" y="399" type="line"/>
      <point x="364" y="341"/>
      <point x="324" y="331"/>
      <point x="272" y="355" type="curve" smooth="yes"/>
      <point x="179" y="394" type="line" smooth="yes"/>
      <point x="104" y="426"/>
      <point x="24" y="402"/>
      <point x="24" y="313" type="curve"/>
      <point x="24" y="296"/>
      <point x="26" y="281"/>
      <point x="26" y="281" type="curve"/>
      <point x="91" y="281" type="line"/>
      <point x="81" y="338"/>
      <point x="124" y="348"/>
      <point x="174" y="325" type="curve"/>
      <point x="267" y="286" type="line"/>
      <point x="342" y="254"/>
      <point x="422" y="278"/>
      <point x="422" y="367" type="curve"/>
      <point x="422" y="385"/>
      <point x="419" y="399"/>
      <point x="419" y="399" type="curve"/>
    </contour>
  </outline>
</glyph>
<glyph name="cent" format="1">
  <advance width="398"/>
  <unicode hex="00A2"/>
  <outline>
    <contour>
      <point x="195" y="20" type="line"/>
      <point x="195" y="-76" type="line"/>
      <point x="267" y="-76" type="line"/>
      <point x="267" y="20" type="line"/>
    </contour>
    <contour>
      <point x="196" y="654" type="line"/>
      <point x="196" y="560" type="line"/>
      <point x="268" y="560" type="line"/>
      <point x="268" y="654" type="line"/>
    </contour>
    <component base="c" xOffset="8"/>
  </outline>
</glyph>
<glyph name="sterling" format="1">
  <advance width="465"/>
  <unicode hex="00A3"/>
  <outline>
    <contour>
      <point x="119" y="515" type="curve" smooth="yes"/>
      <point x="119" y="166" type="line" smooth="yes"/>
      <point x="119" y="74"/>
      <point x="57" y="74"/>
      <point x="46" y="71" type="curve"/>
      <point x="46" y="0" type="line"/>
      <point x="425" y="0" type="line"/>
      <point x="425" y="71" type="line"/>
      <point x="151" y="71" type="line"/>
      <point x="164" y="79"/>
      <point x="198" y="97"/>
      <point x="198" y="174" type="curve"/>
      <point x="198" y="511" type="line" smooth="yes"/>
      <point x="198" y="565"/>
      <point x="216" y="602"/>
      <point x="298" y="602" type="curve" smooth="yes"/>
      <point x="346" y="602"/>
      <point x="386" y="592"/>
      <point x="417" y="582" type="curve"/>
      <point x="417" y="657" type="line"/>
      <point x="391" y="666"/>
      <point x="347" y="676"/>
      <point x="296" y="676" type="curve" smooth="yes"/>
      <point x="173" y="676"/>
      <point x="119" y="613"/>
    </contour>
    <contour>
      <point x="58" y="380" type="line"/>
      <point x="58" y="313" type="line"/>
      <point x="366" y="313" type="line"/>
      <point x="366" y="380" type="line"/>
    </contour>
  </outline>
</glyph>
<glyph name="currency" format="1">
  <advance width="460"/>
  <unicode hex="00A4"/>
  <outline>
    <contour>
      <point x="70" y="378" type="curve" smooth="yes"/>
      <point x="70" y="295" type="line" smooth="yes"/>
      <point x="70" y="204"/>
      <point x="112" y="142"/>
      <point x="231" y="142" type="curve" smooth="yes"/>
      <point x="350" y="142"/>
      <point x="392" y="204"/>
      <point x="392" y="295" type="curve" smooth="yes"/>
      <point x="392" y="378" type="line" smooth="yes"/>
      <point x="392" y="470"/>
      <point x="350" y="532"/>
      <point x="231" y="532" type="curve" smooth="yes"/>
      <point x="112" y="532"/>
      <point x="70" y="470"/>
    </contour>
    <contour>
      <point x="38" y="174" type="line"/>
      <point x="87" y="125" type="line"/>
      <point x="167" y="203" type="line"/>
      <point x="117" y="251" type="line"/>
    </contour>
    <contour>
      <point x="302" y="195" type="line"/>
      <point x="374" y="125" type="line"/>
      <point x="423" y="174" type="line"/>
      <point x="351" y="244" type="line"/>
    </contour>
    <contour>
      <point x="316" y="377" type="curve" smooth="yes"/>
      <point x="316" y="297" type="line" smooth="yes"/>
      <point x="316" y="242"/>
      <point x="299" y="211"/>
      <point x="231" y="211" type="curve" smooth="yes"/>
      <point x="163" y="211"/>
      <point x="146" y="242"/>
      <point x="146" y="297" type="curve" smooth="yes"/>
      <point x="146" y="377" type="line" smooth="yes"/>
      <point x="146" y="432"/>
      <point x="163" y="463"/>
      <point x="231" y="463" type="curve" smooth="yes"/>
      <point x="299" y="463"/>
      <point x="316" y="432"/>
    </contour>
    <contour>
      <point x="38" y="500" type="line"/>
      <point x="117" y="423" type="line"/>
      <point x="168" y="470" type="line"/>
      <point x="88" y="549" type="line"/>
    </contour>
    <contour>
      <point x="302" y="478" type="line"/>
      <point x="344" y="422" type="line"/>
      <point x="424" y="500" type="line"/>
      <point x="374" y="549" type="line"/>
    </contour>
  </outline>
</glyph>
<glyph name="yen" format="1">
  <advance width="481"/>
  <unicode hex="00A5"/>
  <outline>
    <contour>
      <point x="378" y="658" type="line"/>
      <point x="279" y="391" type="line"/>
      <point x="249" y="305" type="line"/>
      <point x="219" y="391" type="line"/>
      <point x="118" y="658" type="line"/>
      <point x="40" y="658" type="line"/>
      <point x="133" y="416" type="line"/>
      <point x="41" y="416" type="line"/>
      <point x="41" y="354" type="line"/>
      <point x="156" y="354" type="line"/>
      <point x="194" y="259" type="line"/>
      <point x="41" y="259" type="line"/>
      <point x="41" y="197" type="line"/>
      <point x="210" y="197" type="line"/>
      <point x="210" y="0" type="line"/>
      <point x="286" y="0" type="line"/>
      <point x="286" y="197" type="line"/>
      <point x="452" y="197" type="line"/>
      <point x="452" y="259" type="line"/>
      <point x="301" y="259" type="line"/>
      <point x="339" y="354" type="line"/>
      <point x="452" y="354" type="line"/>
      <point x="452" y="416" type="line"/>
      <point x="362" y="416" type="line"/>
      <point x="455" y="658" type="line"/>
    </contour>
  </outline>
</glyph>
<glyph name="brokenbar" format="1">
  <advance width="209"/>
  <unicode hex="00A6"/>
  <outline>
    <contour>
      <point x="75" y="811" type="line"/>
      <point x="75" y="432" type="line"/>
      <point x="134" y="432" type="line"/>
      <point x="134" y="811" type="line"/>
    </contour>
    <contour>
      <point x="75" y="225" type="line"/>
      <point x="75" y="-154" type="line"/>
      <point x="134" y="-154" type="line"/>
      <point x="134" y="225" type="line"/>
    </contour>
  </outline>
</glyph>
<glyph name="section" format="1">
  <advance width="368"/>
  <unicode hex="00A7"/>
  <outline>
    <contour>
      <point x="31" y="534" type="curve" smooth="yes"/>
      <point x="31" y="521" type="line" smooth="yes"/>
      <point x="31" y="456"/>
      <point x="61" y="419"/>
      <point x="113" y="394" type="curve" smooth="yes"/>
      <point x="197" y="353" type="line" smooth="yes"/>
      <point x="248" y="328"/>
      <point x="262" y="313"/>
      <point x="262" y="278" type="curve" smooth="yes"/>
      <point x="262" y="262" type="line"/>
      <point x="339" y="262" type="line"/>
      <point x="339" y="283" type="line" smooth="yes"/>
      <point x="339" y="345"/>
      <point x="305" y="379"/>
      <point x="250" y="406" type="curve" smooth="yes"/>
      <point x="165" y="449" type="line" smooth="yes"/>
      <point x="122" y="469"/>
      <point x="108" y="480"/>
      <point x="108" y="528" type="curve" smooth="yes"/>
      <point x="108" y="580"/>
      <point x="124" y="605"/>
      <point x="208" y="605" type="curve" smooth="yes"/>
      <point x="249" y="605"/>
      <point x="290" y="597"/>
      <point x="316" y="588" type="curve"/>
      <point x="316" y="660" type="line"/>
      <point x="288" y="669"/>
      <point x="245" y="675"/>
      <point x="204" y="675" type="curve" smooth="yes"/>
      <point x="78" y="675"/>
      <point x="31" y="626"/>
    </contour>
    <contour>
      <point x="115" y="265" type="line"/>
      <point x="38" y="265" type="line"/>
      <point x="38" y="243" type="line" smooth="yes"/>
      <point x="38" y="178"/>
      <point x="69" y="141"/>
      <point x="121" y="117" type="curve" smooth="yes"/>
      <point x="205" y="75" type="line" smooth="yes"/>
      <point x="257" y="49"/>
      <point x="269" y="34"/>
      <point x="269" y="-3" type="curve" smooth="yes"/>
      <point x="269" y="-55"/>
      <point x="244" y="-78"/>
      <point x="155" y="-78" type="curve" smooth="yes"/>
      <point x="109" y="-78"/>
      <point x="69" y="-72"/>
      <point x="41" y="-62" type="curve"/>
      <point x="41" y="-135" type="line"/>
      <point x="71" y="-144"/>
      <point x="108" y="-149"/>
      <point x="162" y="-149" type="curve" smooth="yes"/>
      <point x="288" y="-149"/>
      <point x="347" y="-99"/>
      <point x="347" y="-7" type="curve" smooth="yes"/>
      <point x="347" y="5" type="line" smooth="yes"/>
      <point x="347" y="67"/>
      <point x="312" y="101"/>
      <point x="258" y="128" type="curve" smooth="yes"/>
      <point x="173" y="172" type="line" smooth="yes"/>
      <point x="130" y="192"/>
      <point x="115" y="208"/>
      <point x="115" y="250" type="curve" smooth="yes"/>
    </contour>
  </outline>
</glyph>
<glyph name="dieresis" format="1">
  <advance width="350"/>
  <unicode hex="00A8"/>
  <outline>
    <contour>
      <point x="66" y="668" type="curve" smooth="yes"/>
      <point x="66" y="645"/>
      <point x="76" y="629"/>
      <point x="106" y="629" type="curve" smooth="yes"/>
      <point x="135" y="629"/>
      <point x="146" y="645"/>
      <point x="146" y="668" type="curve" smooth="yes"/>
      <point x="146" y="691"/>
      <point x="135" y="707"/>
      <point x="106" y="707" type="curve" smooth="yes"/>
      <point x="76" y="707"/>
      <point x="66" y="691"/>
    </contour>
    <contour>
      <point x="204" y="668" type="curve" smooth="yes"/>
      <point x="204" y="645"/>
      <point x="214" y="629"/>
      <point x="244" y="629" type="curve" smooth="yes"/>
      <point x="274" y="629"/>
      <point x="284" y="645"/>
      <point x="284" y="668" type="curve" smooth="yes"/>
      <point x="284" y="691"/>
      <point x="274" y="707"/>
      <point x="244" y="707" type="curve" smooth="yes"/>
      <point x="214" y="707"/>
      <point x="204" y="691"/>
    </contour>
  </outline>
</glyph>
<glyph name="copyright" format="1">
  <advance width="689"/>
  <unicode hex="00A9"/>
  <outline>
    <contour>
      <point x="46" y="325" type="curve" smooth="yes"/>
      <point x="46" y="136"/>
      <point x="107" y="0"/>
      <point x="345" y="0" type="curve" smooth="yes"/>
      <point x="580" y="0"/>
      <point x="643" y="139"/>
      <point x="643" y="325" type="curve" smooth="yes"/>
      <point x="643" y="516"/>
      <point x="591" y="652"/>
      <point x="345" y="652" type="curve" smooth="yes"/>
      <point x="103" y="652"/>
      <point x="46" y="513"/>
    </contour>
    <contour>
      <point x="226" y="381" type="curve" smooth="yes"/>
      <point x="226" y="271" type="line" smooth="yes"/>
      <point x="226" y="194"/>
      <point x="259" y="147"/>
      <point x="358" y="147" type="curve" smooth="yes"/>
      <point x="388" y="147"/>
      <point x="417" y="152"/>
      <point x="433" y="154" type="curve"/>
      <point x="433" y="214" type="line"/>
      <point x="408" y="207"/>
      <point x="391" y="204"/>
      <point x="358" y="204" type="curve" smooth="yes"/>
      <point x="293" y="204"/>
      <point x="289" y="233"/>
      <point x="289" y="272" type="curve" smooth="yes"/>
      <point x="289" y="380" type="line" smooth="yes"/>
      <point x="289" y="418"/>
      <point x="293" y="448"/>
      <point x="358" y="448" type="curve" smooth="yes"/>
      <point x="390" y="448"/>
      <point x="408" y="445"/>
      <point x="432" y="438" type="curve"/>
      <point x="432" y="497" type="line"/>
      <point x="416" y="501"/>
      <point x="388" y="505"/>
      <point x="358" y="505" type="curve" smooth="yes"/>
      <point x="259" y="505"/>
      <point x="226" y="458"/>
    </contour>
    <contour>
      <point x="579" y="325" type="curve" smooth="yes"/>
      <point x="579" y="173"/>
      <point x="547" y="61"/>
      <point x="345" y="61" type="curve" smooth="yes"/>
      <point x="139" y="61"/>
      <point x="110" y="170"/>
      <point x="110" y="325" type="curve" smooth="yes"/>
      <point x="110" y="480"/>
      <point x="136" y="591"/>
      <point x="345" y="591" type="curve" smooth="yes"/>
      <point x="555" y="591"/>
      <point x="579" y="482"/>
    </contour>
  </outline>
</glyph>
<glyph name="ordfeminine" format="1">
  <advance width="338"/>
  <unicode hex="00AA"/>
  <outline>
    <contour>
      <point x="52" y="727" type="curve"/>
      <point x="52" y="674" type="line"/>
      <point x="81" y="684"/>
      <point x="136" y="693"/>
      <point x="167" y="693" type="curve" smooth="yes"/>
      <point x="222" y="693"/>
      <point x="239" y="675"/>
      <point x="241" y="642" type="curve"/>
      <point x="241" y="559" type="line"/>
      <point x="147" y="541" type="line" smooth="yes"/>
      <point x="79" y="526"/>
      <point x="34" y="498"/>
      <point x="34" y="434" type="curve" smooth="yes"/>
      <point x="34" y="398" type="line" smooth="yes"/>
      <point x="34" y="326"/>
      <point x="67" y="288"/>
      <point x="146" y="288" type="curve" smooth="yes"/>
      <point x="182" y="288"/>
      <point x="222" y="301"/>
      <point x="241" y="323" type="curve"/>
      <point x="241" y="288" type="line"/>
      <point x="296" y="288" type="line"/>
      <point x="296" y="640" type="line" smooth="yes"/>
      <point x="296" y="705"/>
      <point x="256" y="745"/>
      <point x="169" y="745" type="curve" smooth="yes"/>
      <point x="135" y="745"/>
      <point x="83" y="737"/>
    </contour>
    <contour>
      <point x="241" y="367" type="line"/>
      <point x="224" y="346"/>
      <point x="190" y="335"/>
      <point x="161" y="335" type="curve" smooth="yes"/>
      <point x="102" y="335"/>
      <point x="90" y="357"/>
      <point x="90" y="399" type="curve" smooth="yes"/>
      <point x="90" y="431" type="line" smooth="yes"/>
      <point x="90" y="467"/>
      <point x="114" y="484"/>
      <point x="157" y="493" type="curve" smooth="yes"/>
      <point x="241" y="508" type="line"/>
    </contour>
  </outline>
</glyph>
<glyph name="guillemotleft" format="1">
  <advance width="481"/>
  <unicode hex="00AB"/>
  <outline>
    <contour>
      <point x="366" y="505" type="line"/>
      <point x="245" y="322" type="line"/>
      <point x="366" y="139" type="line"/>
      <point x="446" y="139" type="line"/>
      <point x="324" y="322" type="line"/>
      <point x="446" y="505" type="line"/>
    </contour>
    <contour>
      <point x="182" y="505" type="line"/>
      <point x="61" y="322" type="line"/>
      <point x="182" y="139" type="line"/>
      <point x="262" y="139" type="line"/>
      <point x="140" y="322" type="line"/>
      <point x="262" y="505" type="line"/>
    </contour>
  </outline>
</glyph>
<glyph name="logicalnot" format="1">
  <advance width="463"/>
  <unicode hex="00AC"/>
  <outline>
    <contour>
      <point x="66" y="366" type="line"/>
      <point x="66" y="295" type="line"/>
      <point x="316" y="295" type="line"/>
      <point x="316" y="194" type="line"/>
      <point x="396" y="194" type="line"/>
      <point x="396" y="366" type="line"/>
    </contour>
  </outline>
</glyph>
<glyph name="softhyphen" format="1">
  <advance width="236"/>
  <unicode hex="00AD"/>
  <outline>
    <contour>
      <point x="40" y="358" type="line"/>
      <point x="40" y="293" type="line"/>
      <point x="201" y="293" type="line"/>
      <point x="201" y="358" type="line"/>
    </contour>
  </outline>
</glyph>
<glyph name="registered" format="1">
  <advance width="520"/>
  <unicode hex="00AE"/>
  <outline>
    <contour>
      <point x="73" y="519" type="curve" smooth="yes"/>
      <point x="73" y="380"/>
      <point x="115" y="305"/>
      <point x="274" y="305" type="curve" smooth="yes"/>
      <point x="438" y="305"/>
      <point x="478" y="383"/>
      <point x="478" y="519" type="curve" smooth="yes"/>
      <point x="478" y="660"/>
      <point x="436" y="736"/>
      <point x="275" y="736" type="curve" smooth="yes"/>
      <point x="116" y="736"/>
      <point x="73" y="659"/>
    </contour>
    <contour>
      <point x="280" y="506" type="line"/>
      <point x="324" y="391" type="line"/>
      <point x="374" y="391" type="line"/>
      <point x="325" y="506" type="line"/>
    </contour>
    <contour>
      <point x="431" y="519" type="curve" smooth="yes"/>
      <point x="431" y="401"/>
      <point x="413" y="347"/>
      <point x="274" y="347" type="curve" smooth="yes"/>
      <point x="138" y="347"/>
      <point x="121" y="400"/>
      <point x="121" y="519" type="curve" smooth="yes"/>
      <point x="121" y="641"/>
      <point x="138" y="694"/>
      <point x="275" y="694" type="curve" smooth="yes"/>
      <point x="411" y="694"/>
      <point x="431" y="642"/>
    </contour>
    <contour>
      <point x="200" y="652" type="line"/>
      <point x="200" y="391" type="line"/>
      <point x="246" y="391" type="line"/>
      <point x="246" y="487" type="line"/>
      <point x="272" y="487" type="line"/>
      <point x="330" y="487"/>
      <point x="363" y="511"/>
      <point x="363" y="572" type="curve" smooth="yes"/>
      <point x="363" y="629"/>
      <point x="330" y="652"/>
      <point x="272" y="652" type="curve" smooth="yes"/>
    </contour>
    <contour>
      <point x="320" y="572" type="curve" smooth="yes"/>
      <point x="320" y="534"/>
      <point x="305" y="526"/>
      <point x="268" y="526" type="curve" smooth="yes"/>
      <point x="246" y="526" type="line"/>
      <point x="246" y="613" type="line"/>
      <point x="274" y="613" type="line" smooth="yes"/>
      <point x="303" y="613"/>
      <point x="320" y="610"/>
    </contour>
  </outline>
</glyph>
<glyph name="degree" format="1">
  <advance width="377"/>
  <unicode hex="00B0"/>
  <outline>
    <contour>
      <point x="51" y="653" type="curve" smooth="yes"/>
      <point x="51" y="569"/>
      <point x="87" y="505"/>
      <point x="190" y="505" type="curve" smooth="yes"/>
      <point x="294" y="505"/>
      <point x="331" y="569"/>
      <point x="331" y="653" type="curve" smooth="yes"/>
      <point x="331" y="736"/>
      <point x="294" y="801"/>
      <point x="190" y="801" type="curve" smooth="yes"/>
      <point x="87" y="801"/>
      <point x="51" y="736"/>
    </contour>
    <contour>
      <point x="267" y="652" type="curve" smooth="yes"/>
      <point x="267" y="602"/>
      <point x="254" y="565"/>
      <point x="190" y="565" type="curve" smooth="yes"/>
      <point x="127" y="565"/>
      <point x="115" y="602"/>
      <point x="115" y="652" type="curve" smooth="yes"/>
      <point x="115" y="702"/>
      <point x="127" y="739"/>
      <point x="190" y="739" type="curve" smooth="yes"/>
      <point x="254" y="739"/>
      <point x="267" y="702"/>
    </contour>
  </outline>
</glyph>
<glyph name="plusminus" format="1">
  <advance width="443"/>
  <unicode hex="00B1"/>
  <outline>
    <contour>
      <point x="42" y="104" type="line"/>
      <point x="42" y="38" type="line"/>
      <point x="404" y="38" type="line"/>
      <point x="404" y="104" type="line"/>
    </contour>
    <contour>
      <point x="42" y="358" type="line"/>
      <point x="42" y="293" type="line"/>
      <point x="404" y="293" type="line"/>
      <point x="404" y="358" type="line"/>
    </contour>
    <contour>
      <point x="187" y="492" type="line"/>
      <point x="187" y="158" type="line"/>
      <point x="259" y="158" type="line"/>
      <point x="259" y="492" type="line"/>
    </contour>
  </outline>
</glyph>
<glyph name="twosuperior" format="1">
  <advance width="293"/>
  <unicode hex="00B2"/>
  <outline>
    <contour>
      <point x="42" y="735" type="curve"/>
      <point x="42" y="682" type="line"/>
      <point x="59" y="686"/>
      <point x="94" y="693"/>
      <point x="142" y="693" type="curve" smooth="yes"/>
      <point x="195" y="693"/>
      <point x="209" y="675"/>
      <point x="209" y="640" type="curve" smooth="yes"/>
      <point x="209" y="619" type="line" smooth="yes"/>
      <point x="209" y="587"/>
      <point x="206" y="565"/>
      <point x="173" y="544" type="curve" smooth="yes"/>
      <point x="106" y="499" type="line" smooth="yes"/>
      <point x="50" y="462"/>
      <point x="29" y="437"/>
      <point x="29" y="375" type="curve" smooth="yes"/>
      <point x="29" y="289" type="line"/>
      <point x="266" y="289" type="line"/>
      <point x="266" y="341" type="line"/>
      <point x="85" y="341" type="line"/>
      <point x="85" y="374" type="line" smooth="yes"/>
      <point x="85" y="416"/>
      <point x="89" y="424"/>
      <point x="143" y="460" type="curve" smooth="yes"/>
      <point x="207" y="505" type="line" smooth="yes"/>
      <point x="250" y="535"/>
      <point x="265" y="564"/>
      <point x="265" y="615" type="curve" smooth="yes"/>
      <point x="265" y="640" type="line" smooth="yes"/>
      <point x="265" y="707"/>
      <point x="226" y="745"/>
      <point x="143" y="745" type="curve" smooth="yes"/>
      <point x="95" y="745"/>
      <point x="53" y="738"/>
    </contour>
  </outline>
</glyph>
<glyph name="threesuperior" format="1">
  <advance width="304"/>
  <unicode hex="00B3"/>
  <outline>
    <contour>
      <point x="40" y="736" type="curve"/>
      <point x="40" y="684" type="line"/>
      <point x="63" y="688"/>
      <point x="86" y="693"/>
      <point x="133" y="693" type="curve" smooth="yes"/>
      <point x="186" y="693"/>
      <point x="202" y="675"/>
      <point x="202" y="640" type="curve" smooth="yes"/>
      <point x="202" y="601" type="line" smooth="yes"/>
      <point x="202" y="571"/>
      <point x="195" y="544"/>
      <point x="142" y="544" type="curve" smooth="yes"/>
      <point x="97" y="544" type="line"/>
      <point x="97" y="492" type="line"/>
      <point x="142" y="492" type="line" smooth="yes"/>
      <point x="195" y="492"/>
      <point x="202" y="468"/>
      <point x="202" y="438" type="curve" smooth="yes"/>
      <point x="202" y="390" type="line" smooth="yes"/>
      <point x="202" y="355"/>
      <point x="186" y="336"/>
      <point x="133" y="336" type="curve" smooth="yes"/>
      <point x="85" y="336"/>
      <point x="64" y="341"/>
      <point x="31" y="349" type="curve"/>
      <point x="31" y="296" type="line"/>
      <point x="56" y="290"/>
      <point x="86" y="285"/>
      <point x="134" y="285" type="curve" smooth="yes"/>
      <point x="217" y="285"/>
      <point x="258" y="323"/>
      <point x="258" y="389" type="curve" smooth="yes"/>
      <point x="258" y="438" type="line" smooth="yes"/>
      <point x="258" y="474"/>
      <point x="245" y="506"/>
      <point x="215" y="519" type="curve"/>
      <point x="245" y="532"/>
      <point x="258" y="567"/>
      <point x="258" y="601" type="curve" smooth="yes"/>
      <point x="258" y="644" type="line" smooth="yes"/>
      <point x="256" y="708"/>
      <point x="216" y="745"/>
      <point x="135" y="745" type="curve" smooth="yes"/>
      <point x="82" y="745"/>
      <point x="56" y="740"/>
    </contour>
  </outline>
</glyph>
<glyph name="mu.math" format="1">
  <advance width="456"/>
  <unicode hex="00B5"/>
  <outline>
    <contour>
      <point x="311" y="571" type="line"/>
      <point x="311" y="100" type="line"/>
      <point x="308" y="99"/>
      <point x="270" y="70"/>
      <point x="218" y="70" type="curve" smooth="yes"/>
      <point x="169" y="70"/>
      <point x="146" y="86"/>
      <point x="144" y="86" type="curve"/>
      <point x="144" y="571" type="line"/>
      <point x="64" y="571" type="line"/>
      <point x="64" y="-150" type="line"/>
      <point x="144" y="-150" type="line"/>
      <point x="144" y="10" type="line"/>
      <point x="159" y="5"/>
      <point x="187" y="-1"/>
      <point x="216" y="-1" type="curve" smooth="yes"/>
      <point x="271" y="1"/>
      <point x="310" y="25"/>
      <point x="314" y="27" type="curve"/>
      <point x="314" y="0" type="line"/>
      <point x="390" y="0" type="line"/>
      <point x="390" y="571" type="line"/>
    </contour>
  </outline>
</glyph>
<glyph name="paragraph" format="1">
  <advance width="409"/>
  <unicode hex="00B6"/>
  <outline>
    <contour>
      <point x="227" y="674" type="line"/>
      <point x="118" y="674"/>
      <point x="63" y="614"/>
      <point x="63" y="524" type="curve"/>
      <point x="63" y="433"/>
      <point x="118" y="372"/>
      <point x="227" y="372" type="curve" smooth="yes"/>
      <point x="260" y="372" type="line"/>
      <point x="260" y="1" type="line"/>
      <point x="339" y="1" type="line"/>
      <point x="339" y="674" type="line"/>
    </contour>
  </outline>
</glyph>
<glyph name="periodcentered" format="1">
  <advance width="222"/>
  <unicode hex="00B7"/>
  <outline>
    <contour>
      <point x="67" y="345" type="curve" smooth="yes"/>
      <point x="67" y="319"/>
      <point x="78" y="300"/>
      <point x="112" y="300" type="curve" smooth="yes"/>
      <point x="146" y="300"/>
      <point x="157" y="319"/>
      <point x="157" y="345" type="curve" smooth="yes"/>
      <point x="157" y="370"/>
      <point x="146" y="390"/>
      <point x="112" y="390" type="curve" smooth="yes"/>
      <point x="78" y="390"/>
      <point x="67" y="370"/>
    </contour>
  </outline>
</glyph>
<glyph name="cedilla" format="1">
  <advance width="350"/>
  <unicode hex="00B8"/>
  <outline>
    <contour>
      <point x="148" y="6" type="line"/>
      <point x="132" y="-70" type="line"/>
      <point x="145" y="-70" type="line" smooth="yes"/>
      <point x="179" y="-70"/>
      <point x="195" y="-81"/>
      <point x="195" y="-105" type="curve" smooth="yes"/>
      <point x="195" y="-129"/>
      <point x="175" y="-140"/>
      <point x="146" y="-140" type="curve" smooth="yes"/>
      <point x="131" y="-140"/>
      <point x="114" y="-138"/>
      <point x="104" y="-133" type="curve"/>
      <point x="104" y="-176" type="line"/>
      <point x="119" y="-180"/>
      <point x="138" y="-182"/>
      <point x="154" y="-182" type="curve" smooth="yes"/>
      <point x="205" y="-182"/>
      <point x="245" y="-156"/>
      <point x="245" y="-107" type="curve" smooth="yes"/>
      <point x="245" y="-63"/>
      <point x="214" y="-42"/>
      <point x="178" y="-40" type="curve"/>
      <point x="188" y="6" type="line"/>
    </contour>
  </outline>
</glyph>
<glyph name="onesuperior" format="1">
  <advance width="222"/>
  <unicode hex="00B9"/>
  <outline>
    <contour>
      <point x="108" y="740" type="line"/>
      <point x="21" y="674" type="line"/>
      <point x="21" y="609" type="line"/>
      <point x="115" y="683" type="line"/>
      <point x="115" y="289" type="line"/>
      <point x="171" y="289" type="line"/>
      <point x="171" y="740" type="line"/>
    </contour>
  </outline>
</glyph>
<glyph name="ordmasculine" format="1">
  <advance width="334"/>
  <unicode hex="00BA"/>
  <outline>
    <contour>
      <point x="46" y="639" type="curve" smooth="yes"/>
      <point x="46" y="391" type="line" smooth="yes"/>
      <point x="46" y="323"/>
      <point x="86" y="285"/>
      <point x="171" y="285" type="curve" smooth="yes"/>
      <point x="257" y="285"/>
      <point x="296" y="323"/>
      <point x="296" y="391" type="curve" smooth="yes"/>
      <point x="296" y="639" type="line" smooth="yes"/>
      <point x="296" y="707"/>
      <point x="257" y="745"/>
      <point x="171" y="745" type="curve" smooth="yes"/>
      <point x="86" y="745"/>
      <point x="46" y="707"/>
    </contour>
    <contour>
      <point x="240" y="643" type="curve" smooth="yes"/>
      <point x="240" y="390" type="line" smooth="yes"/>
      <point x="240" y="355"/>
      <point x="224" y="337"/>
      <point x="171" y="337" type="curve" smooth="yes"/>
      <point x="118" y="337"/>
      <point x="102" y="355"/>
      <point x="102" y="390" type="curve" smooth="yes"/>
      <point x="102" y="643" type="line" smooth="yes"/>
      <point x="102" y="675"/>
      <point x="120" y="693"/>
      <point x="171" y="693" type="curve" smooth="yes"/>
      <point x="222" y="693"/>
      <point x="239" y="675"/>
    </contour>
  </outline>
</glyph>
<glyph name="guillemotright" format="1">
  <advance width="480"/>
  <unicode hex="00BB"/>
  <outline>
    <contour>
      <point x="215" y="505" type="line"/>
      <point x="337" y="322" type="line"/>
      <point x="215" y="139" type="line"/>
      <point x="295" y="139" type="line"/>
      <point x="416" y="322" type="line"/>
      <point x="295" y="505" type="line"/>
    </contour>
    <contour>
      <point x="31" y="505" type="line"/>
      <point x="153" y="322" type="line"/>
      <point x="31" y="139" type="line"/>
      <point x="111" y="139" type="line"/>
      <point x="232" y="322" type="line"/>
      <point x="111" y="505" type="line"/>
    </contour>
  </outline>
</glyph>
<glyph name="onequarter" format="1">
  <advance width="791"/>
  <unicode hex="00BC"/>
  <outline>
    <contour>
      <point x="127" y="674" type="line"/>
      <point x="40" y="608" type="line"/>
      <point x="40" y="543" type="line"/>
      <point x="135" y="617" type="line"/>
      <point x="135" y="223" type="line"/>
      <point x="190" y="223" type="line"/>
      <point x="190" y="674" type="line"/>
    </contour>
    <contour>
      <point x="600" y="451" type="line"/>
      <point x="450" y="148" type="line"/>
      <point x="450" y="96" type="line"/>
      <point x="632" y="96" type="line"/>
      <point x="632" y="0" type="line"/>
      <point x="686" y="0" type="line"/>
      <point x="686" y="96" type="line"/>
      <point x="734" y="96" type="line"/>
      <point x="734" y="146" type="line"/>
      <point x="686" y="146" type="line"/>
      <point x="686" y="451" type="line"/>
    </contour>
    <contour>
      <point x="632" y="146" type="line"/>
      <point x="503" y="146" type="line"/>
      <point x="632" y="407" type="line"/>
    </contour>
    <contour>
      <point x="494" y="674" type="line"/>
      <point x="153" y="0" type="line"/>
      <point x="211" y="0" type="line"/>
      <point x="551" y="674" type="line"/>
    </contour>
  </outline>
</glyph>
<glyph name="threequarters" format="1">
  <advance width="829"/>
  <unicode hex="00BE"/>
  <outline>
    <contour>
      <point x="638" y="451" type="line"/>
      <point x="487" y="148" type="line"/>
      <point x="487" y="96" type="line"/>
      <point x="669" y="96" type="line"/>
      <point x="669" y="0" type="line"/>
      <point x="723" y="0" type="line"/>
      <point x="723" y="96" type="line"/>
      <point x="772" y="96" type="line"/>
      <point x="772" y="146" type="line"/>
      <point x="723" y="146" type="line"/>
      <point x="723" y="451" type="line"/>
    </contour>
    <contour>
      <point x="669" y="146" type="line"/>
      <point x="541" y="146" type="line"/>
      <point x="669" y="407" type="line"/>
    </contour>
    <contour>
      <point x="546" y="674" type="line"/>
      <point x="205" y="0" type="line"/>
      <point x="263" y="0" type="line"/>
      <point x="603" y="674" type="line"/>
    </contour>
    <contour>
      <point x="49" y="671" type="curve"/>
      <point x="49" y="618" type="line"/>
      <point x="72" y="623"/>
      <point x="94" y="627"/>
      <point x="142" y="627" type="curve" smooth="yes"/>
      <point x="195" y="627"/>
      <point x="211" y="609"/>
      <point x="211" y="574" type="curve" smooth="yes"/>
      <point x="211" y="535" type="line" smooth="yes"/>
      <point x="211" y="505"/>
      <point x="204" y="479"/>
      <point x="151" y="479" type="curve" smooth="yes"/>
      <point x="106" y="479" type="line"/>
      <point x="106" y="427" type="line"/>
      <point x="151" y="427" type="line" smooth="yes"/>
      <point x="204" y="426"/>
      <point x="211" y="402"/>
      <point x="211" y="372" type="curve" smooth="yes"/>
      <point x="211" y="324" type="line" smooth="yes"/>
      <point x="211" y="289"/>
      <point x="194" y="271"/>
      <point x="141" y="271" type="curve" smooth="yes"/>
      <point x="94" y="271"/>
      <point x="73" y="275"/>
      <point x="40" y="283" type="curve"/>
      <point x="40" y="230" type="line"/>
      <point x="64" y="224"/>
      <point x="95" y="219"/>
      <point x="142" y="219" type="curve" smooth="yes"/>
      <point x="225" y="219"/>
      <point x="266" y="257"/>
      <point x="266" y="323" type="curve" smooth="yes"/>
      <point x="266" y="372" type="line" smooth="yes"/>
      <point x="266" y="408"/>
      <point x="254" y="440"/>
      <point x="224" y="453" type="curve"/>
      <point x="253" y="466"/>
      <point x="266" y="501"/>
      <point x="266" y="535" type="curve" smooth="yes"/>
      <point x="266" y="578" type="line" smooth="yes"/>
      <point x="265" y="643"/>
      <point x="225" y="679"/>
      <point x="143" y="679" type="curve" smooth="yes"/>
      <point x="91" y="679"/>
      <point x="65" y="674"/>
    </contour>
  </outline>
</glyph>
<glyph name="AE" format="1">
  <advance width="666"/>
  <unicode hex="00C6"/>
  <outline>
    <contour>
      <point x="307" y="674" type="line"/>
      <point x="7" y="0" type="line"/>
      <point x="88" y="0" type="line"/>
      <point x="378" y="674" type="line"/>
    </contour>
    <contour>
      <point x="143" y="253" type="line"/>
      <point x="143" y="185" type="line"/>
      <point x="394" y="185" type="line"/>
      <point x="394" y="253" type="line"/>
    </contour>
    <contour>
      <point x="354" y="674" type="line"/>
      <point x="354" y="0" type="line"/>
      <point x="649" y="0" type="line"/>
      <point x="649" y="69" type="line"/>
      <point x="430" y="69" type="line"/>
      <point x="430" y="305" type="line"/>
      <point x="620" y="305" type="line"/>
      <point x="620" y="375" type="line"/>
      <point x="430" y="375" type="line"/>
      <point x="430" y="604" type="line"/>
      <point x="649" y="604" type="line"/>
      <point x="649" y="674" type="line"/>
    </contour>
  </outline>
</glyph>
<glyph name="Eth" format="1">
  <advance width="470"/>
  <unicode hex="00D0"/>
  <outline>
    <contour>
      <point x="-3" y="364" type="line"/>
      <point x="-3" y="297" type="line"/>
      <point x="251" y="297" type="line"/>
      <point x="251" y="364" type="line"/>
    </contour>
    <component base="D" xOffset="3"/>
  </outline>
</glyph>
<glyph name="multiply" format="1">
  <advance width="386"/>
  <unicode hex="00D7"/>
  <outline>
    <contour>
      <point x="32" y="440" type="line"/>
      <point x="308" y="165" type="line"/>
      <point x="354" y="211" type="line"/>
      <point x="78" y="487" type="line"/>
    </contour>
    <contour>
      <point x="31" y="211" type="line"/>
      <point x="78" y="165" type="line"/>
      <point x="353" y="440" type="line"/>
      <point x="307" y="487" type="line"/>
    </contour>
  </outline>
</glyph>
<glyph name="Oslash" format="1">
  <advance width="460"/>
  <unicode hex="00D8"/>
  <outline>
    <contour>
      <point x="348" y="674" type="line"/>
      <point x="55" y="0" type="line"/>
      <point x="112" y="0" type="line"/>
      <point x="405" y="674" type="line"/>
    </contour>
    <component base="O"/>
  </outline>
</glyph>
<glyph name="Thorn" format="1">
  <advance width="432"/>
  <unicode hex="00DE"/>
  <outline>
    <contour>
      <point x="136" y="554" type="line"/>
      <point x="136" y="486" type="line"/>
      <point x="239" y="486" type="line" smooth="yes"/>
      <point x="304" y="486"/>
      <point x="329" y="453"/>
      <point x="329" y="399" type="curve" smooth="yes"/>
      <point x="329" y="275" type="line" smooth="yes"/>
      <point x="329" y="221"/>
      <point x="304" y="190"/>
      <point x="239" y="190" type="curve" smooth="yes"/>
      <point x="140" y="190" type="line"/>
      <point x="140" y="120" type="line"/>
      <point x="243" y="120" type="line" smooth="yes"/>
      <point x="351" y="120"/>
      <point x="406" y="180"/>
      <point x="406" y="271" type="curve" smooth="yes"/>
      <point x="406" y="403" type="line" smooth="yes"/>
      <point x="406" y="494"/>
      <point x="351" y="554"/>
      <point x="243" y="554" type="curve" smooth="yes"/>
    </contour>
    <contour>
      <point x="76" y="674" type="line"/>
      <point x="76" y="0" type="line"/>
      <point x="153" y="0" type="line"/>
      <point x="153" y="674" type="line"/>
    </contour>
  </outline>
</glyph>
<glyph name="germandbls" format="1">
  <advance width="540"/>
  <unicode hex="00DF"/>
  <outline>
    <contour>
      <point x="66" y="547" type="curve" smooth="yes"/>
      <point x="66" y="0" type="line"/>
      <point x="142" y="0" type="line"/>
      <point x="142" y="543" type="line" smooth="yes"/>
      <point x="142" y="614"/>
      <point x="176" y="646"/>
      <point x="254" y="646" type="curve" smooth="yes"/>
      <point x="323" y="646"/>
      <point x="352" y="615"/>
      <point x="352" y="561" type="curve" smooth="yes"/>
      <point x="352" y="481"/>
      <point x="269" y="459"/>
      <point x="269" y="379" type="curve" smooth="yes"/>
      <point x="269" y="366" type="line" smooth="yes"/>
      <point x="269" y="311"/>
      <point x="298" y="283"/>
      <point x="375" y="242" type="curve" smooth="yes"/>
      <point x="424" y="215"/>
      <point x="442" y="195"/>
      <point x="442" y="159" type="curve" smooth="yes"/>
      <point x="442" y="142" type="line" smooth="yes"/>
      <point x="442" y="98"/>
      <point x="419" y="67"/>
      <point x="333" y="67" type="curve" smooth="yes"/>
      <point x="288" y="67"/>
      <point x="251" y="75"/>
      <point x="224" y="85" type="curve"/>
      <point x="224" y="11" type="line"/>
      <point x="252" y="3"/>
      <point x="285" y="-4"/>
      <point x="339" y="-4" type="curve" smooth="yes"/>
      <point x="463" y="-4"/>
      <point x="519" y="51"/>
      <point x="519" y="138" type="curve" smooth="yes"/>
      <point x="519" y="165" type="line" smooth="yes"/>
      <point x="519" y="223"/>
      <point x="485" y="255"/>
      <point x="428" y="287" type="curve" smooth="yes"/>
      <point x="361" y="323"/>
      <point x="348" y="345"/>
      <point x="348" y="372" type="curve" smooth="yes"/>
      <point x="348" y="382" type="line" smooth="yes"/>
      <point x="348" y="435"/>
      <point x="431" y="465"/>
      <point x="431" y="563" type="curve" smooth="yes"/>
      <point x="431" y="660"/>
      <point x="362" y="717"/>
      <point x="254" y="717" type="curve" smooth="yes"/>
      <point x="132" y="717"/>
      <point x="66" y="658"/>
    </contour>
  </outline>
</glyph>
<glyph name="ae" format="1">
  <advance width="650"/>
  <unicode hex="00E6"/>
  <outline>
    <contour>
      <point x="327" y="530" type="curve"/>
      <point x="301" y="559"/>
      <point x="257" y="576"/>
      <point x="191" y="576" type="curve" smooth="yes"/>
      <point x="136" y="576"/>
      <point x="84" y="565"/>
      <point x="58" y="557" type="curve"/>
      <point x="58" y="483" type="line"/>
      <point x="85" y="493"/>
      <point x="137" y="504"/>
      <point x="188" y="504" type="curve" smooth="yes"/>
      <point x="269" y="504"/>
      <point x="288" y="476"/>
      <point x="288" y="430" type="curve" smooth="yes"/>
      <point x="288" y="346" type="line"/>
      <point x="152" y="306" type="line" smooth="yes"/>
      <point x="68" y="282"/>
      <point x="32" y="238"/>
      <point x="32" y="166" type="curve" smooth="yes"/>
      <point x="32" y="133" type="line" smooth="yes"/>
      <point x="32" y="46"/>
      <point x="77" y="-4"/>
      <point x="175" y="-4" type="curve" smooth="yes"/>
      <point x="237" y="-4"/>
      <point x="295" y="14"/>
      <point x="329" y="41" type="curve"/>
      <point x="359" y="11"/>
      <point x="409" y="-5"/>
      <point x="480" y="-5" type="curve" smooth="yes"/>
      <point x="538" y="-5"/>
      <point x="574" y="3"/>
      <point x="603" y="11" type="curve"/>
      <point x="603" y="84" type="line"/>
      <point x="575" y="75"/>
      <point x="533" y="66"/>
      <point x="485" y="66" type="curve" smooth="yes"/>
      <point x="401" y="66"/>
      <point x="365" y="94"/>
      <point x="365" y="151" type="curve" smooth="yes"/>
      <point x="365" y="247" type="line"/>
      <point x="619" y="247" type="line"/>
      <point x="619" y="425" type="line" smooth="yes"/>
      <point x="619" y="514"/>
      <point x="572" y="581"/>
      <point x="456" y="581" type="curve" smooth="yes"/>
      <point x="395" y="581"/>
      <point x="352" y="556"/>
    </contour>
    <contour>
      <point x="289" y="92" type="line"/>
      <point x="265" y="73"/>
      <point x="227" y="60"/>
      <point x="185" y="60" type="curve" smooth="yes"/>
      <point x="129" y="60"/>
      <point x="108" y="84"/>
      <point x="108" y="133" type="curve"/>
      <point x="108" y="163" type="line" smooth="yes"/>
      <point x="108" y="207"/>
      <point x="123" y="230"/>
      <point x="181" y="246" type="curve" smooth="yes"/>
      <point x="289" y="277" type="line"/>
    </contour>
    <contour>
      <point x="544" y="424" type="curve" smooth="yes"/>
      <point x="544" y="312" type="line"/>
      <point x="365" y="312" type="line"/>
      <point x="365" y="424" type="line"/>
      <point x="365" y="477"/>
      <point x="392" y="513"/>
      <point x="456" y="513" type="curve" smooth="yes"/>
      <point x="520" y="513"/>
      <point x="544" y="477"/>
    </contour>
  </outline>
</glyph>
<glyph name="igrave" format="1">
  <advance width="212"/>
  <unicode hex="00EC"/>
  <outline>
    <contour>
      <point x="66" y="566" type="line"/>
      <point x="66" y="0" type="line"/>
      <point x="145" y="0" type="line"/>
      <point x="145" y="566" type="line"/>
    </contour>
    <component base="grave" xOffset="-101"/>
  </outline>
</glyph>
<glyph name="iacute" format="1">
  <advance width="212"/>
  <unicode hex="00ED"/>
  <outline>
    <contour>
      <point x="66" y="566" type="line"/>
      <point x="66" y="0" type="line"/>
      <point x="145" y="0" type="line"/>
      <point x="145" y="566" type="line"/>
    </contour>
    <component base="acute" xOffset="-39"/>
  </outline>
</glyph>
<glyph name="icircumflex" format="1">
  <advance width="212"/>
  <unicode hex="00EE"/>
  <outline>
    <contour>
      <point x="66" y="566" type="line"/>
      <point x="66" y="0" type="line"/>
      <point x="145" y="0" type="line"/>
      <point x="145" y="566" type="line"/>
    </contour>
    <component base="circumflex" xOffset="-68"/>
  </outline>
</glyph>
<glyph name="eth" format="1">
  <advance width="453"/>
  <unicode hex="00F0"/>
  <outline>
    <contour>
      <point x="149" y="674" type="line"/>
      <point x="215" y="607"/>
      <point x="274" y="515"/>
      <point x="300" y="415" type="curve"/>
      <point x="283" y="431"/>
      <point x="253" y="446"/>
      <point x="212" y="446" type="curve" smooth="yes"/>
      <point x="106" y="446"/>
      <point x="61" y="384"/>
      <point x="61" y="295" type="curve" smooth="yes"/>
      <point x="61" y="148" type="line" smooth="yes"/>
      <point x="61" y="57"/>
      <point x="111" y="-9"/>
      <point x="226" y="-9" type="curve" smooth="yes"/>
      <point x="341" y="-9"/>
      <point x="391" y="57"/>
      <point x="391" y="148" type="curve"/>
      <point x="391" y="307" type="line" smooth="yes"/>
      <point x="391" y="477"/>
      <point x="297" y="619"/>
      <point x="247" y="674" type="curve"/>
    </contour>
    <contour>
      <point x="314" y="351" type="curve"/>
      <point x="314" y="149" type="line"/>
      <point x="314" y="97"/>
      <point x="293" y="61"/>
      <point x="226" y="61" type="curve" smooth="yes"/>
      <point x="159" y="61"/>
      <point x="138" y="98"/>
      <point x="138" y="149" type="curve" smooth="yes"/>
      <point x="138" y="293" type="line" smooth="yes"/>
      <point x="138" y="348"/>
      <point x="161" y="382"/>
      <point x="226" y="382" type="curve"/>
      <point x="266" y="382"/>
      <point x="299" y="367"/>
    </contour>
    <contour>
      <point x="133" y="554" type="line"/>
      <point x="133" y="500" type="line"/>
      <point x="384" y="625" type="line"/>
      <point x="384" y="678" type="line"/>
    </contour>
  </outline>
</glyph>
<glyph name="divide" format="1">
  <advance width="443"/>
  <unicode hex="00F7"/>
  <outline>
    <contour>
      <point x="40" y="357" type="line"/>
      <point x="40" y="291" type="line"/>
      <point x="402" y="291" type="line"/>
      <point x="402" y="357" type="line"/>
    </contour>
    <contour>
      <point x="178" y="151" type="curve" smooth="yes"/>
      <point x="178" y="126"/>
      <point x="190" y="106"/>
      <point x="224" y="106" type="curve" smooth="yes"/>
      <point x="257" y="106"/>
      <point x="268" y="126"/>
      <point x="268" y="151" type="curve" smooth="yes"/>
      <point x="268" y="177"/>
      <point x="257" y="196"/>
      <point x="223" y="196" type="curve" smooth="yes"/>
      <point x="189" y="196"/>
      <point x="178" y="177"/>
    </contour>
    <contour>
      <point x="178" y="494" type="curve" smooth="yes"/>
      <point x="178" y="469"/>
      <point x="189" y="449"/>
      <point x="223" y="449" type="curve" smooth="yes"/>
      <point x="257" y="449"/>
      <point x="268" y="469"/>
      <point x="268" y="494" type="curve" smooth="yes"/>
      <point x="268" y="520"/>
      <point x="257" y="539"/>
      <point x="223" y="539" type="curve" smooth="yes"/>
      <point x="189" y="539"/>
      <point x="178" y="520"/>
    </contour>
  </outline>
</glyph>
<glyph name="oslash" format="1">
  <advance width="443"/>
  <unicode hex="00F8"/>
  <outline>
    <contour>
      <point x="342" y="571" type="line"/>
      <point x="58" y="0" type="line"/>
      <point x="108" y="0" type="line"/>
      <point x="392" y="571" type="line"/>
    </contour>
    <component base="o"/>
  </outline>
</glyph>
<glyph name="thorn" format="1">
  <advance width="456"/>
  <unicode hex="00FE"/>
  <outline>
    <contour>
      <point x="66" y="723" type="line"/>
      <point x="66" y="-173" type="line"/>
      <point x="145" y="-173" type="line"/>
      <point x="145" y="0" type="line"/>
      <point x="244" y="0" type="line" smooth="yes"/>
      <point x="332" y="0"/>
      <point x="392" y="53"/>
      <point x="392" y="149" type="curve" smooth="yes"/>
      <point x="392" y="442" type="line" smooth="yes"/>
      <point x="392" y="528"/>
      <point x="339" y="573"/>
      <point x="259" y="573" type="curve" smooth="yes"/>
      <point x="213" y="573"/>
      <point x="168" y="556"/>
      <point x="145" y="546" type="curve"/>
      <point x="145" y="723" type="line"/>
    </contour>
    <contour>
      <point x="313" y="432" type="curve" smooth="yes"/>
      <point x="313" y="155" type="line" smooth="yes"/>
      <point x="313" y="99"/>
      <point x="282" y="71"/>
      <point x="225" y="71" type="curve" smooth="yes"/>
      <point x="145" y="71" type="line"/>
      <point x="145" y="476" type="line"/>
      <point x="175" y="490"/>
      <point x="207" y="501"/>
      <point x="243" y="501" type="curve" smooth="yes"/>
      <point x="286" y="501"/>
      <point x="313" y="479"/>
    </contour>
  </outline>
</glyph>
<glyph name="dcaron" format="1">
  <advance width="456"/>
  <unicode hex="010F"/>
  <outline>
    <contour>
      <point x="303" y="723" type="line"/>
      <point x="303" y="571" type="line"/>
      <point x="214" y="571" type="line"/>
      <point x="118" y="571"/>
      <point x="56" y="516"/>
      <point x="56" y="418" type="curve"/>
      <point x="56" y="139" type="line" smooth="yes"/>
      <point x="56" y="49"/>
      <point x="104" y="-3"/>
      <point x="196" y="-3" type="curve"/>
      <point x="254" y="-3"/>
      <point x="286" y="18"/>
      <point x="305" y="34" type="curve"/>
      <point x="305" y="0" type="line"/>
      <point x="382" y="0" type="line"/>
      <point x="382" y="723" type="line"/>
    </contour>
    <contour>
      <point x="303" y="100" type="line"/>
      <point x="286" y="84"/>
      <point x="254" y="68"/>
      <point x="211" y="68" type="curve"/>
      <point x="160" y="68"/>
      <point x="135" y="94"/>
      <point x="135" y="146" type="curve" smooth="yes"/>
      <point x="135" y="417" type="line" smooth="yes"/>
      <point x="135" y="472"/>
      <point x="167" y="500"/>
      <point x="226" y="500" type="curve" smooth="yes"/>
      <point x="303" y="500" type="line"/>
    </contour>
    <contour>
      <point x="449" y="721" type="line"/>
      <point x="422" y="596" type="line"/>
      <point x="458" y="596" type="line"/>
      <point x="472" y="617"/>
      <point x="506" y="671"/>
      <point x="506" y="695" type="curve" smooth="yes"/>
      <point x="506" y="713"/>
      <point x="495" y="721"/>
      <point x="478" y="721" type="curve" smooth="yes"/>
    </contour>
  </outline>
</glyph>
<glyph name="Dcroat" format="1">
  <advance width="470"/>
  <unicode hex="0110"/>
  <outline>
    <contour>
      <point x="8" y="369" type="line"/>
      <point x="8" y="302" type="line"/>
      <point x="245" y="302" type="line"/>
      <point x="245" y="369" type="line"/>
    </contour>
    <component base="D" xOffset="3"/>
  </outline>
</glyph>
<glyph name="dcroat" format="1">
  <advance width="449"/>
  <unicode hex="0111"/>
  <outline>
    <contour>
      <point x="179" y="676" type="line"/>
      <point x="179" y="628" type="line"/>
      <point x="423" y="628" type="line"/>
      <point x="423" y="676" type="line"/>
    </contour>
    <component base="d" xOffset="1"/>
  </outline>
</glyph>
<glyph name="gcommaaccent" format="1">
  <advance width="447"/>
  <unicode hex="0123"/>
  <outline>
    <contour>
      <point x="90" y="148" type="curve" smooth="yes"/>
      <point x="90" y="132" type="line" smooth="yes"/>
      <point x="90" y="75"/>
      <point x="135" y="46"/>
      <point x="215" y="46" type="curve" smooth="yes"/>
      <point x="276" y="46" type="line" smooth="yes"/>
      <point x="335" y="46"/>
      <point x="345" y="23"/>
      <point x="345" y="-9" type="curve" smooth="yes"/>
      <point x="345" y="-18" type="line" smooth="yes"/>
      <point x="345" y="-57"/>
      <point x="317" y="-81"/>
      <point x="229" y="-81" type="curve" smooth="yes"/>
      <point x="195" y="-81" type="line" smooth="yes"/>
      <point x="124" y="-81"/>
      <point x="75" y="-65"/>
      <point x="36" y="-42" type="curve"/>
      <point x="36" y="-117" type="line"/>
      <point x="66" y="-134"/>
      <point x="120" y="-149"/>
      <point x="196" y="-149" type="curve" smooth="yes"/>
      <point x="236" y="-149" type="line" smooth="yes"/>
      <point x="368" y="-149"/>
      <point x="420" y="-99"/>
      <point x="420" y="-19" type="curve" smooth="yes"/>
      <point x="420" y="-5" type="line" smooth="yes"/>
      <point x="420" y="72"/>
      <point x="379" y="113"/>
      <point x="281" y="113" type="curve" smooth="yes"/>
      <point x="223" y="113" type="line" smooth="yes"/>
      <point x="176" y="113"/>
      <point x="161" y="126"/>
      <point x="161" y="156" type="curve" smooth="yes"/>
      <point x="161" y="190"/>
      <point x="178" y="206"/>
      <point x="214" y="206" type="curve"/>
      <point x="200" y="211"/>
      <point x="182" y="217"/>
      <point x="165" y="217" type="curve"/>
      <point x="125" y="219"/>
      <point x="90" y="193"/>
    </contour>
    <contour>
      <point x="42" y="434" type="curve" smooth="yes"/>
      <point x="42" y="353" type="line" smooth="yes"/>
      <point x="42" y="264"/>
      <point x="95" y="206"/>
      <point x="212" y="206" type="curve" smooth="yes"/>
      <point x="328" y="206"/>
      <point x="382" y="264"/>
      <point x="382" y="353" type="curve" smooth="yes"/>
      <point x="382" y="434" type="line" smooth="yes"/>
      <point x="382" y="523"/>
      <point x="328" y="581"/>
      <point x="212" y="581" type="curve" smooth="yes"/>
      <point x="95" y="581"/>
      <point x="42" y="523"/>
    </contour>
    <contour>
      <point x="303" y="433" type="curve" smooth="yes"/>
      <point x="303" y="354" type="line" smooth="yes"/>
      <point x="303" y="301"/>
      <point x="277" y="273"/>
      <point x="212" y="273" type="curve" smooth="yes"/>
      <point x="146" y="273"/>
      <point x="120" y="301"/>
      <point x="120" y="354" type="curve" smooth="yes"/>
      <point x="120" y="433" type="line" smooth="yes"/>
      <point x="120" y="487"/>
      <point x="146" y="515"/>
      <point x="212" y="515" type="curve" smooth="yes"/>
      <point x="277" y="515"/>
      <point x="303" y="487"/>
    </contour>
    <contour>
      <point x="413" y="616" type="line"/>
      <point x="361" y="616"/>
      <point x="324" y="589"/>
      <point x="316" y="535" type="curve"/>
      <point x="335" y="515" type="line"/>
      <point x="348" y="531"/>
      <point x="367" y="541"/>
      <point x="395" y="541" type="curve" smooth="yes"/>
      <point x="428" y="541" type="line"/>
      <point x="428" y="616" type="line"/>
    </contour>
    <contour>
      <point x="239" y="615" type="line"/>
      <point x="265" y="740" type="line"/>
      <point x="229" y="740" type="line"/>
      <point x="215" y="719"/>
      <point x="181" y="665"/>
      <point x="181" y="641" type="curve" smooth="yes"/>
      <point x="181" y="623"/>
      <point x="193" y="615"/>
      <point x="209" y="615" type="curve" smooth="yes"/>
    </contour>
  </outline>
</glyph>
<glyph name="imacron" format="1">
  <advance width="212"/>
  <unicode hex="012B"/>
  <outline>
    <contour>
      <point x="66" y="566" type="line"/>
      <point x="66" y="0" type="line"/>
      <point x="145" y="0" type="line"/>
      <point x="145" y="566" type="line"/>
    </contour>
    <component base="macron" xOffset="-69"/>
  </outline>
</glyph>
<glyph name="Kcommaaccent" format="1">
  <advance width="438"/>
  <unicode hex="0136"/>
  <outline>
    <contour>
      <point x="329" y="674" type="line"/>
      <point x="190" y="337" type="line"/>
      <point x="335" y="0" type="line"/>
      <point x="422" y="0" type="line"/>
      <point x="274" y="339" type="line"/>
      <point x="414" y="674" type="line"/>
    </contour>
    <contour>
      <point x="66" y="674" type="line"/>
      <point x="66" y="0" type="line"/>
      <point x="145" y="0" type="line"/>
      <point x="145" y="674" type="line"/>
    </contour>
    <contour>
      <point x="208" y="-61" type="line"/>
      <point x="182" y="-186" type="line"/>
      <point x="218" y="-186" type="line"/>
      <point x="232" y="-165"/>
      <point x="266" y="-111"/>
      <point x="266" y="-87" type="curve" smooth="yes"/>
      <point x="266" y="-69"/>
      <point x="254" y="-61"/>
      <point x="238" y="-61" type="curve" smooth="yes"/>
    </contour>
  </outline>
</glyph>
<glyph name="kcommaaccent" format="1">
  <advance width="405"/>
  <unicode hex="0137"/>
  <outline>
    <contour>
      <point x="297" y="571" type="line"/>
      <point x="176" y="298" type="line"/>
      <point x="304" y="0" type="line"/>
      <point x="390" y="0" type="line"/>
      <point x="258" y="297" type="line"/>
      <point x="380" y="571" type="line"/>
    </contour>
    <contour>
      <point x="66" y="723" type="line"/>
      <point x="66" y="0" type="line"/>
      <point x="144" y="0" type="line"/>
      <point x="144" y="723" type="line"/>
    </contour>
    <contour>
      <point x="187" y="-61" type="line"/>
      <point x="160" y="-186" type="line"/>
      <point x="196" y="-186" type="line"/>
      <point x="211" y="-165"/>
      <point x="244" y="-111"/>
      <point x="244" y="-87" type="curve" smooth="yes"/>
      <point x="244" y="-69"/>
      <point x="233" y="-61"/>
      <point x="216" y="-61" type="curve" smooth="yes"/>
    </contour>
  </outline>
</glyph>
<glyph name="Lcommaaccent" format="1">
  <advance width="353"/>
  <unicode hex="013B"/>
  <outline>
    <contour>
      <point x="66" y="674" type="line"/>
      <point x="66" y="0" type="line"/>
      <point x="348" y="0" type="line"/>
      <point x="348" y="68" type="line"/>
      <point x="146" y="68" type="line"/>
      <point x="146" y="674" type="line"/>
    </contour>
    <contour>
      <point x="178" y="-61" type="line"/>
      <point x="152" y="-186" type="line"/>
      <point x="188" y="-186" type="line"/>
      <point x="202" y="-165"/>
      <point x="236" y="-111"/>
      <point x="236" y="-87" type="curve" smooth="yes"/>
      <point x="236" y="-69"/>
      <point x="224" y="-61"/>
      <point x="208" y="-61" type="curve" smooth="yes"/>
    </contour>
  </outline>
</glyph>
<glyph name="lcommaaccent" format="1">
  <advance width="212"/>
  <unicode hex="013C"/>
  <outline>
    <contour>
      <point x="66" y="723" type="line"/>
      <point x="66" y="0" type="line"/>
      <point x="145" y="0" type="line"/>
      <point x="145" y="723" type="line"/>
    </contour>
    <contour>
      <point x="80" y="-61" type="line"/>
      <point x="53" y="-186" type="line"/>
      <point x="89" y="-186" type="line"/>
      <point x="104" y="-165"/>
      <point x="137" y="-111"/>
      <point x="137" y="-87" type="curve" smooth="yes"/>
      <point x="137" y="-69"/>
      <point x="126" y="-61"/>
      <point x="109" y="-61" type="curve" smooth="yes"/>
    </contour>
  </outline>
</glyph>
<glyph name="Lcaron" format="1">
  <advance width="353"/>
  <unicode hex="013D"/>
  <outline>
    <contour>
      <point x="212" y="721" type="line"/>
      <point x="186" y="596" type="line"/>
      <point x="221" y="596" type="line"/>
      <point x="236" y="617"/>
      <point x="269" y="671"/>
      <point x="269" y="695" type="curve" smooth="yes"/>
      <point x="269" y="713"/>
      <point x="258" y="721"/>
      <point x="242" y="721" type="curve" smooth="yes"/>
    </contour>
    <component base="L"/>
  </outline>
</glyph>
<glyph name="lcaron" format="1">
  <advance width="212"/>
  <unicode hex="013E"/>
  <outline>
    <contour>
      <point x="66" y="723" type="line"/>
      <point x="66" y="0" type="line"/>
      <point x="145" y="0" type="line"/>
      <point x="145" y="723" type="line"/>
    </contour>
    <contour>
      <point x="212" y="721" type="line"/>
      <point x="186" y="596" type="line"/>
      <point x="221" y="596" type="line"/>
      <point x="236" y="617"/>
      <point x="269" y="671"/>
      <point x="269" y="695" type="curve" smooth="yes"/>
      <point x="269" y="713"/>
      <point x="258" y="721"/>
      <point x="242" y="721" type="curve" smooth="yes"/>
    </contour>
  </outline>
</glyph>
<glyph name="Lslash" format="1">
  <advance width="353"/>
  <unicode hex="0141"/>
  <outline>
    <contour>
      <point x="14" y="310" type="line"/>
      <point x="14" y="250" type="line"/>
      <point x="244" y="365" type="line"/>
      <point x="244" y="426" type="line"/>
    </contour>
    <component base="L" xOffset="3"/>
  </outline>
</glyph>
<glyph name="lslash" format="1">
  <advance width="213"/>
  <unicode hex="0142"/>
  <outline>
    <contour>
      <point x="13" y="464" type="line"/>
      <point x="13" y="403" type="line"/>
      <point x="200" y="505" type="line"/>
      <point x="200" y="566" type="line"/>
    </contour>
    <component base="l" xOffset="1"/>
  </outline>
</glyph>
<glyph name="Ncommaaccent" format="1">
  <advance width="503"/>
  <unicode hex="0145"/>
  <outline>
    <contour>
      <point x="358" y="674" type="line"/>
      <point x="358" y="352" type="line"/>
      <point x="359" y="247"/>
      <point x="366" y="173"/>
      <point x="367" y="125" type="curve"/>
      <point x="348" y="173"/>
      <point x="324" y="244"/>
      <point x="288" y="337" type="curve"/>
      <point x="155" y="674" type="line"/>
      <point x="66" y="674" type="line"/>
      <point x="66" y="0" type="line"/>
      <point x="144" y="0" type="line"/>
      <point x="144" y="323" type="line"/>
      <point x="143" y="428"/>
      <point x="136" y="501"/>
      <point x="135" y="549" type="curve"/>
      <point x="154" y="501"/>
      <point x="179" y="430"/>
      <point x="215" y="337" type="curve"/>
      <point x="348" y="0" type="line"/>
      <point x="436" y="0" type="line"/>
      <point x="436" y="674" type="line"/>
    </contour>
    <contour>
      <point x="215" y="-61" type="line"/>
      <point x="188" y="-186" type="line"/>
      <point x="224" y="-186" type="line"/>
      <point x="239" y="-165"/>
      <point x="272" y="-111"/>
      <point x="272" y="-87" type="curve" smooth="yes"/>
      <point x="272" y="-69"/>
      <point x="261" y="-61"/>
      <point x="244" y="-61" type="curve" smooth="yes"/>
    </contour>
  </outline>
</glyph>
<glyph name="ncommaaccent" format="1">
  <advance width="452"/>
  <unicode hex="0146"/>
  <outline>
    <contour>
      <point x="142" y="545" type="curve"/>
      <point x="142" y="571" type="line"/>
      <point x="66" y="571" type="line"/>
      <point x="66" y="0" type="line"/>
      <point x="145" y="0" type="line"/>
      <point x="145" y="475" type="line"/>
      <point x="175" y="490"/>
      <point x="207" y="500"/>
      <point x="243" y="500" type="curve"/>
      <point x="286" y="500"/>
      <point x="311" y="479"/>
      <point x="311" y="431" type="curve" smooth="yes"/>
      <point x="311" y="0" type="line"/>
      <point x="391" y="0" type="line"/>
      <point x="391" y="442" type="line" smooth="yes"/>
      <point x="391" y="528"/>
      <point x="338" y="573"/>
      <point x="258" y="573" type="curve"/>
      <point x="211" y="573"/>
      <point x="166" y="555"/>
    </contour>
    <contour>
      <point x="195" y="-61" type="line"/>
      <point x="169" y="-186" type="line"/>
      <point x="205" y="-186" type="line"/>
      <point x="219" y="-165"/>
      <point x="253" y="-111"/>
      <point x="253" y="-87" type="curve" smooth="yes"/>
      <point x="253" y="-69"/>
      <point x="241" y="-61"/>
      <point x="225" y="-61" type="curve" smooth="yes"/>
    </contour>
  </outline>
</glyph>
<glyph name="OE" format="1">
  <advance width="674"/>
  <unicode hex="0152"/>
  <outline>
    <contour>
      <point x="239" y="674" type="line"/>
      <point x="130" y="674"/>
      <point x="76" y="613"/>
      <point x="76" y="523" type="curve" smooth="yes"/>
      <point x="76" y="154" type="line" smooth="yes"/>
      <point x="76" y="63"/>
      <point x="125" y="0"/>
      <point x="236" y="0" type="curve" smooth="yes"/>
      <point x="368" y="0" type="line"/>
      <point x="368" y="69" type="line"/>
      <point x="245" y="69" type="line" smooth="yes"/>
      <point x="178" y="69"/>
      <point x="155" y="105"/>
      <point x="155" y="157" type="curve" smooth="yes"/>
      <point x="155" y="521" type="line" smooth="yes"/>
      <point x="155" y="572"/>
      <point x="178" y="606"/>
      <point x="245" y="606" type="curve" smooth="yes"/>
      <point x="378" y="606" type="line"/>
      <point x="378" y="674" type="line"/>
    </contour>
    <component base="E" xOffset="281"/>
  </outline>
</glyph>
<glyph name="oe" format="1">
  <advance width="702"/>
  <unicode hex="0153"/>
  <outline>
    <contour>
      <point x="64" y="425" type="curve" smooth="yes"/>
      <point x="64" y="145" type="line" smooth="yes"/>
      <point x="64" y="56"/>
      <point x="113" y="-10"/>
      <point x="229" y="-10" type="curve" smooth="yes"/>
      <point x="345" y="-10"/>
      <point x="394" y="56"/>
      <point x="394" y="145" type="curve" smooth="yes"/>
      <point x="394" y="425" type="line" smooth="yes"/>
      <point x="394" y="515"/>
      <point x="345" y="581"/>
      <point x="229" y="581" type="curve" smooth="yes"/>
      <point x="113" y="581"/>
      <point x="64" y="515"/>
    </contour>
    <contour>
      <point x="316" y="424" type="curve" smooth="yes"/>
      <point x="316" y="147" type="line" smooth="yes"/>
      <point x="316" y="94"/>
      <point x="293" y="59"/>
      <point x="229" y="59" type="curve" smooth="yes"/>
      <point x="164" y="59"/>
      <point x="142" y="94"/>
      <point x="142" y="147" type="curve" smooth="yes"/>
      <point x="142" y="424" type="line" smooth="yes"/>
      <point x="142" y="476"/>
      <point x="164" y="512"/>
      <point x="229" y="512" type="curve" smooth="yes"/>
      <point x="293" y="512"/>
      <point x="316" y="476"/>
    </contour>
    <component base="e" xOffset="260"/>
  </outline>
</glyph>
<glyph name="Rcommaaccent" format="1">
  <advance width="459"/>
  <unicode hex="0156"/>
  <outline>
    <contour>
      <point x="66" y="674" type="line"/>
      <point x="66" y="0" type="line"/>
      <point x="145" y="0" type="line"/>
      <point x="145" y="268" type="line"/>
      <point x="240" y="268" type="line" smooth="yes"/>
      <point x="351" y="268"/>
      <point x="399" y="329"/>
      <point x="399" y="421" type="curve" smooth="yes"/>
      <point x="399" y="523" type="line" smooth="yes"/>
      <point x="399" y="614"/>
      <point x="345" y="674"/>
      <point x="236" y="674" type="curve" smooth="yes"/>
    </contour>
    <contour>
      <point x="227" y="296" type="line"/>
      <point x="334" y="0" type="line"/>
      <point x="421" y="0" type="line"/>
      <point x="308" y="296" type="line"/>
    </contour>
    <contour>
      <point x="321" y="519" type="curve" smooth="yes"/>
      <point x="321" y="422" type="line" smooth="yes"/>
      <point x="321" y="366"/>
      <point x="296" y="335"/>
      <point x="231" y="335" type="curve" smooth="yes"/>
      <point x="145" y="335" type="line"/>
      <point x="145" y="605" type="line"/>
      <point x="231" y="605" type="line" smooth="yes"/>
      <point x="295" y="605"/>
      <point x="321" y="574"/>
    </contour>
    <contour>
      <point x="204" y="-61" type="line"/>
      <point x="177" y="-186" type="line"/>
      <point x="213" y="-186" type="line"/>
      <point x="228" y="-165"/>
      <point x="261" y="-111"/>
      <point x="261" y="-87" type="curve" smooth="yes"/>
      <point x="261" y="-69"/>
      <point x="250" y="-61"/>
      <point x="233" y="-61" type="curve" smooth="yes"/>
    </contour>
  </outline>
</glyph>
<glyph name="rcommaaccent" format="1">
  <advance width="286"/>
  <unicode hex="0157"/>
  <outline>
    <contour>
      <point x="257" y="574" type="line"/>
      <point x="202" y="574"/>
      <point x="182" y="555"/>
      <point x="142" y="528" type="curve"/>
      <point x="142" y="571" type="line"/>
      <point x="66" y="571" type="line"/>
      <point x="66" y="0" type="line"/>
      <point x="145" y="0" type="line"/>
      <point x="145" y="456" type="line"/>
      <point x="187" y="485"/>
      <point x="207" y="499"/>
      <point x="249" y="499" type="curve"/>
      <point x="281" y="499" type="line"/>
      <point x="281" y="574" type="line"/>
    </contour>
    <contour>
      <point x="80" y="-61" type="line"/>
      <point x="53" y="-186" type="line"/>
      <point x="89" y="-186" type="line"/>
      <point x="104" y="-165"/>
      <point x="137" y="-111"/>
      <point x="137" y="-87" type="curve" smooth="yes"/>
      <point x="137" y="-69"/>
      <point x="126" y="-61"/>
      <point x="109" y="-61" type="curve" smooth="yes"/>
    </contour>
  </outline>
</glyph>
<glyph name="Scedilla" format="1">
  <advance width="393"/>
  <unicode hex="015E"/>
  <outline>
    <contour>
      <point x="27" y="535" type="curve" smooth="yes"/>
      <point x="27" y="476" type="line" smooth="yes"/>
      <point x="27" y="407"/>
      <point x="59" y="365"/>
      <point x="115" y="335" type="curve" smooth="yes"/>
      <point x="229" y="272" type="line"/>
      <point x="270" y="250"/>
      <point x="283" y="230"/>
      <point x="283" y="187" type="curve" smooth="yes"/>
      <point x="283" y="148" type="line" smooth="yes"/>
      <point x="283" y="101"/>
      <point x="252" y="68"/>
      <point x="168" y="68" type="curve" smooth="yes"/>
      <point x="117" y="68"/>
      <point x="65" y="79"/>
      <point x="33" y="91" type="curve"/>
      <point x="33" y="15" type="line"/>
      <point x="58" y="6"/>
      <point x="111" y="-5"/>
      <point x="169" y="-5" type="curve" smooth="yes"/>
      <point x="301" y="-5"/>
      <point x="362" y="51"/>
      <point x="362" y="142" type="curve" smooth="yes"/>
      <point x="362" y="197" type="line"/>
      <point x="362" y="261"/>
      <point x="336" y="300"/>
      <point x="281" y="330" type="curve" smooth="yes"/>
      <point x="165" y="395" type="line" smooth="yes"/>
      <point x="123" y="418"/>
      <point x="107" y="440"/>
      <point x="107" y="486" type="curve" smooth="yes"/>
      <point x="107" y="531" type="line" smooth="yes"/>
      <point x="107" y="579"/>
      <point x="137" y="606"/>
      <point x="206" y="606" type="curve" smooth="yes"/>
      <point x="258" y="606"/>
      <point x="305" y="598"/>
      <point x="335" y="587" type="curve"/>
      <point x="335" y="662" type="line"/>
      <point x="309" y="670"/>
      <point x="263" y="679"/>
      <point x="205" y="679" type="curve" smooth="yes"/>
      <point x="85" y="679"/>
      <point x="27" y="623"/>
    </contour>
    <contour>
      <point x="159" y="-61" type="line"/>
      <point x="132" y="-186" type="line"/>
      <point x="168" y="-186" type="line"/>
      <point x="183" y="-165"/>
      <point x="216" y="-111"/>
      <point x="216" y="-87" type="curve" smooth="yes"/>
      <point x="216" y="-69"/>
      <point x="205" y="-61"/>
      <point x="188" y="-61" type="curve" smooth="yes"/>
    </contour>
  </outline>
</glyph>
<glyph name="Tcedilla" format="1">
  <advance width="356"/>
  <unicode hex="0162"/>
  <outline>
    <contour>
      <point x="139" y="674" type="line"/>
      <point x="139" y="0" type="line"/>
      <point x="218" y="0" type="line"/>
      <point x="218" y="674" type="line"/>
    </contour>
    <contour>
      <point x="9" y="674" type="line"/>
      <point x="9" y="604" type="line"/>
      <point x="348" y="604" type="line"/>
      <point x="348" y="674" type="line"/>
    </contour>
    <contour>
      <point x="153" y="-61" type="line"/>
      <point x="127" y="-186" type="line"/>
      <point x="163" y="-186" type="line"/>
      <point x="177" y="-165"/>
      <point x="211" y="-111"/>
      <point x="211" y="-87" type="curve" smooth="yes"/>
      <point x="211" y="-69"/>
      <point x="199" y="-61"/>
      <point x="183" y="-61" type="curve" smooth="yes"/>
    </contour>
  </outline>
</glyph>
<glyph name="tcedilla" format="1">
  <advance width="293"/>
  <unicode hex="0163"/>
  <outline>
    <contour>
      <point x="92" y="674" type="line"/>
      <point x="69" y="571" type="line"/>
      <point x="5" y="571" type="line"/>
      <point x="5" y="502" type="line"/>
      <point x="67" y="502" type="line"/>
      <point x="67" y="125" type="line" smooth="yes"/>
      <point x="67" y="42"/>
      <point x="110" y="-5"/>
      <point x="202" y="-5" type="curve" smooth="yes"/>
      <point x="236" y="-5"/>
      <point x="271" y="4"/>
      <point x="278" y="6" type="curve"/>
      <point x="278" y="77" type="line"/>
      <point x="270" y="75"/>
      <point x="241" y="66"/>
      <point x="211" y="66" type="curve" smooth="yes"/>
      <point x="168" y="66"/>
      <point x="145" y="84"/>
      <point x="145" y="129" type="curve" smooth="yes"/>
      <point x="145" y="502" type="line"/>
      <point x="269" y="502" type="line"/>
      <point x="269" y="571" type="line"/>
      <point x="145" y="571" type="line"/>
      <point x="145" y="674" type="line"/>
    </contour>
    <contour>
      <point x="150" y="-61" type="line"/>
      <point x="123" y="-186" type="line"/>
      <point x="159" y="-186" type="line"/>
      <point x="174" y="-165"/>
      <point x="207" y="-111"/>
      <point x="207" y="-87" type="curve" smooth="yes"/>
      <point x="207" y="-69"/>
      <point x="196" y="-61"/>
      <point x="179" y="-61" type="curve" smooth="yes"/>
    </contour>
  </outline>
</glyph>
<glyph name="florin" format="1">
  <advance width="315"/>
  <unicode hex="0192"/>
  <outline>
    <contour>
      <point x="148" y="585" type="curve" smooth="yes"/>
      <point x="75" y="134" type="line" smooth="yes"/>
      <point x="67" y="83"/>
      <point x="50" y="62"/>
      <point x="5" y="62" type="curve" smooth="yes"/>
      <point x="-3" y="62"/>
      <point x="-11" y="63"/>
      <point x="-17" y="63" type="curve"/>
      <point x="-17" y="-2" type="line"/>
      <point x="-7" y="-3"/>
      <point x="3" y="-4"/>
      <point x="12" y="-4" type="curve" smooth="yes"/>
      <point x="108" y="-4"/>
      <point x="141" y="48"/>
      <point x="154" y="135" type="curve" smooth="yes"/>
      <point x="227" y="586" type="line" smooth="yes"/>
      <point x="235" y="637"/>
      <point x="253" y="658"/>
      <point x="298" y="658" type="curve" smooth="yes"/>
      <point x="307" y="658"/>
      <point x="315" y="658"/>
      <point x="323" y="657" type="curve"/>
      <point x="323" y="722" type="line"/>
      <point x="312" y="724"/>
      <point x="301" y="724"/>
      <point x="290" y="724" type="curve" smooth="yes"/>
      <point x="195" y="724"/>
      <point x="162" y="672"/>
    </contour>
    <contour>
      <point x="43" y="490" type="line"/>
      <point x="43" y="424" type="line"/>
      <point x="283" y="424" type="line"/>
      <point x="283" y="490" type="line"/>
    </contour>
  </outline>
</glyph>
<glyph name="Tcommaaccent" format="1">
  <advance width="356"/>
  <unicode hex="021A"/>
  <outline>
    <contour>
      <point x="139" y="674" type="line"/>
      <point x="139" y="0" type="line"/>
      <point x="218" y="0" type="line"/>
      <point x="218" y="674" type="line"/>
    </contour>
    <contour>
      <point x="9" y="674" type="line"/>
      <point x="9" y="604" type="line"/>
      <point x="348" y="604" type="line"/>
      <point x="348" y="674" type="line"/>
    </contour>
    <contour>
      <point x="150" y="-61" type="line"/>
      <point x="123" y="-186" type="line"/>
      <point x="159" y="-186" type="line"/>
      <point x="174" y="-165"/>
      <point x="207" y="-111"/>
      <point x="207" y="-87" type="curve" smooth="yes"/>
      <point x="207" y="-69"/>
      <point x="196" y="-61"/>
      <point x="179" y="-61" type="curve" smooth="yes"/>
    </contour>
  </outline>
</glyph>
<glyph name="tcommaaccent" format="1">
  <advance width="293"/>
  <unicode hex="021B"/>
  <outline>
    <contour>
      <point x="92" y="674" type="line"/>
      <point x="69" y="571" type="line"/>
      <point x="5" y="571" type="line"/>
      <point x="5" y="502" type="line"/>
      <point x="67" y="502" type="line"/>
      <point x="67" y="125" type="line" smooth="yes"/>
      <point x="67" y="42"/>
      <point x="110" y="-5"/>
      <point x="202" y="-5" type="curve" smooth="yes"/>
      <point x="236" y="-5"/>
      <point x="271" y="4"/>
      <point x="278" y="6" type="curve"/>
      <point x="278" y="77" type="line"/>
      <point x="270" y="75"/>
      <point x="241" y="66"/>
      <point x="211" y="66" type="curve" smooth="yes"/>
      <point x="168" y="66"/>
      <point x="145" y="84"/>
      <point x="145" y="129" type="curve" smooth="yes"/>
      <point x="145" y="502" type="line"/>
      <point x="269" y="502" type="line"/>
      <point x="269" y="571" type="line"/>
      <point x="145" y="571" type="line"/>
      <point x="145" y="674" type="line"/>
    </contour>
    <contour>
      <point x="152" y="-61" type="line"/>
      <point x="126" y="-186" type="line"/>
      <point x="161" y="-186" type="line"/>
      <point x="176" y="-165"/>
      <point x="209" y="-111"/>
      <point x="209" y="-87" type="curve" smooth="yes"/>
      <point x="209" y="-69"/>
      <point x="198" y="-61"/>
      <point x="182" y="-61" type="curve" smooth="yes"/>
    </contour>
  </outline>
</glyph>
<glyph name="circumflex" format="1">
  <advance width="350"/>
  <unicode hex="02C6"/>
  <outline>
    <contour>
      <point x="148" y="723" type="line"/>
      <point x="211" y="615" type="line"/>
      <point x="258" y="615" type="line"/>
      <point x="207" y="723" type="line"/>
    </contour>
    <contour>
      <point x="143" y="723" type="line"/>
      <point x="92" y="615" type="line"/>
      <point x="138" y="615" type="line"/>
      <point x="202" y="723" type="line"/>
    </contour>
  </outline>
</glyph>
<glyph name="caron" format="1">
  <advance width="350"/>
  <unicode hex="02C7"/>
  <outline>
    <contour>
      <point x="211" y="723" type="line"/>
      <point x="148" y="615" type="line"/>
      <point x="207" y="615" type="line"/>
      <point x="258" y="723" type="line"/>
    </contour>
    <contour>
      <point x="92" y="723" type="line"/>
      <point x="143" y="615" type="line"/>
      <point x="202" y="615" type="line"/>
      <point x="138" y="723" type="line"/>
    </contour>
  </outline>
</glyph>
<glyph name="macronmod" format="1">
  <advance width="350"/>
  <unicode hex="02C9"/>
  <outline>
    <contour>
      <point x="62" y="694" type="line"/>
      <point x="62" y="644" type="line"/>
      <point x="288" y="644" type="line"/>
      <point x="288" y="694" type="line"/>
    </contour>
  </outline>
</glyph>
<glyph name="breve" format="1">
  <advance width="350"/>
  <unicode hex="02D8"/>
  <outline>
    <contour>
      <point x="233" y="723" type="line"/>
      <point x="232" y="687"/>
      <point x="212" y="663"/>
      <point x="175" y="663" type="curve" smooth="yes"/>
      <point x="138" y="663"/>
      <point x="118" y="687"/>
      <point x="117" y="723" type="curve"/>
      <point x="64" y="723" type="line"/>
      <point x="66" y="662"/>
      <point x="106" y="615"/>
      <point x="175" y="615" type="curve" smooth="yes"/>
      <point x="244" y="615"/>
      <point x="284" y="661"/>
      <point x="286" y="723" type="curve"/>
    </contour>
  </outline>
</glyph>
<glyph name="dotaccent" format="1">
  <advance width="350"/>
  <unicode hex="02D9"/>
  <outline>
    <contour>
      <point x="133" y="688" type="curve" smooth="yes"/>
      <point x="133" y="666"/>
      <point x="144" y="649"/>
      <point x="174" y="649" type="curve" smooth="yes"/>
      <point x="203" y="649"/>
      <point x="214" y="666"/>
      <point x="214" y="688" type="curve" smooth="yes"/>
      <point x="214" y="711"/>
      <point x="203" y="728"/>
      <point x="174" y="728" type="curve" smooth="yes"/>
      <point x="144" y="728"/>
      <point x="133" y="711"/>
    </contour>
  </outline>
</glyph>
<glyph name="ring" format="1">
  <advance width="350"/>
  <unicode hex="02DA"/>
  <outline>
    <contour>
      <point x="100" y="669" type="curve" smooth="yes"/>
      <point x="100" y="629"/>
      <point x="127" y="595"/>
      <point x="175" y="595" type="curve" smooth="yes"/>
      <point x="224" y="595"/>
      <point x="250" y="629"/>
      <point x="250" y="669" type="curve" smooth="yes"/>
      <point x="250" y="709"/>
      <point x="224" y="742"/>
      <point x="175" y="742" type="curve" smooth="yes"/>
      <point x="127" y="742"/>
      <point x="100" y="709"/>
    </contour>
    <contour>
      <point x="209" y="669" type="curve" smooth="yes"/>
      <point x="209" y="647"/>
      <point x="196" y="634"/>
      <point x="175" y="634" type="curve" smooth="yes"/>
      <point x="154" y="634"/>
      <point x="141" y="647"/>
      <point x="141" y="669" type="curve" smooth="yes"/>
      <point x="141" y="689"/>
      <point x="154" y="703"/>
      <point x="175" y="703" type="curve" smooth="yes"/>
      <point x="196" y="703"/>
      <point x="209" y="689"/>
    </contour>
  </outline>
</glyph>
<glyph name="ogonek" format="1">
  <advance width="350"/>
  <unicode hex="02DB"/>
  <outline>
    <contour>
      <point x="187" y="0" type="line"/>
      <point x="152" y="-27"/>
      <point x="126" y="-68"/>
      <point x="126" y="-109" type="curve" smooth="yes"/>
      <point x="126" y="-154"/>
      <point x="155" y="-179"/>
      <point x="209" y="-179" type="curve" smooth="yes"/>
      <point x="225" y="-179" type="line"/>
      <point x="225" y="-129" type="line"/>
      <point x="213" y="-129" type="line" smooth="yes"/>
      <point x="189" y="-129"/>
      <point x="177" y="-119"/>
      <point x="177" y="-93" type="curve" smooth="yes"/>
      <point x="177" y="-59"/>
      <point x="195" y="-24"/>
      <point x="225" y="0" type="curve"/>
    </contour>
  </outline>
</glyph>
<glyph name="tilde" format="1">
  <advance width="350"/>
  <unicode hex="02DC"/>
  <outline>
    <contour>
      <point x="247" y="715" type="line"/>
      <point x="247" y="704" type="line" smooth="yes"/>
      <point x="247" y="684"/>
      <point x="242" y="673"/>
      <point x="225" y="673" type="curve" smooth="yes"/>
      <point x="198" y="673"/>
      <point x="166" y="713"/>
      <point x="118" y="713" type="curve" smooth="yes"/>
      <point x="70" y="713"/>
      <point x="49" y="679"/>
      <point x="49" y="635" type="curve" smooth="yes"/>
      <point x="49" y="623" type="line"/>
      <point x="102" y="623" type="line"/>
      <point x="102" y="633" type="line" smooth="yes"/>
      <point x="102" y="654"/>
      <point x="108" y="665"/>
      <point x="124" y="665" type="curve" smooth="yes"/>
      <point x="156" y="665"/>
      <point x="185" y="625"/>
      <point x="232" y="625" type="curve" smooth="yes"/>
      <point x="276" y="625"/>
      <point x="300" y="654"/>
      <point x="300" y="702" type="curve" smooth="yes"/>
      <point x="300" y="715" type="line"/>
    </contour>
  </outline>
</glyph>
<glyph name="hungarumlaut" format="1">
  <advance width="350"/>
  <unicode hex="02DD"/>
  <outline>
    <contour>
      <point x="206" y="723" type="line"/>
      <point x="166" y="615" type="line"/>
      <point x="210" y="615" type="line"/>
      <point x="273" y="723" type="line"/>
    </contour>
    <contour>
      <point x="117" y="723" type="line"/>
      <point x="76" y="615" type="line"/>
      <point x="121" y="615" type="line"/>
      <point x="183" y="723" type="line"/>
    </contour>
  </outline>
</glyph>
<glyph name="pi" format="1">
  <advance width="452"/>
  <unicode hex="03C0"/>
  <outline>
    <contour>
      <point x="66" y="571" type="line"/>
      <point x="66" y="0" type="line"/>
      <point x="145" y="0" type="line"/>
      <point x="145" y="502" type="line"/>
      <point x="311" y="502" type="line"/>
      <point x="311" y="0" type="line"/>
      <point x="391" y="0" type="line"/>
      <point x="391" y="502" type="line"/>
      <point x="458" y="502" type="line"/>
      <point x="458" y="571" type="line"/>
    </contour>
  </outline>
</glyph>
<glyph name="dvCandrabindu" format="1">
  <advance width="0"/>
  <unicode hex="0901"/>
  <outline>
    <contour>
      <point x="-69" y="652" type="move" name="_abvm.bindu"/>
    </contour>
    <contour>
      <point x="-149" y="884" type="curve" smooth="yes"/>
      <point x="-149" y="859"/>
      <point x="-138" y="841"/>
      <point x="-105" y="841" type="curve" smooth="yes"/>
      <point x="-72" y="841"/>
      <point x="-62" y="859"/>
      <point x="-62" y="884" type="curve" smooth="yes"/>
      <point x="-62" y="909"/>
      <point x="-72" y="928"/>
      <point x="-105" y="928" type="curve" smooth="yes"/>
      <point x="-138" y="928"/>
      <point x="-149" y="909"/>
    </contour>
    <contour>
      <point x="-10" y="844" type="line"/>
      <point x="-10" y="794"/>
      <point x="-38" y="779"/>
      <point x="-105" y="779" type="curve" smooth="yes"/>
      <point x="-173" y="779"/>
      <point x="-201" y="794"/>
      <point x="-201" y="844" type="curve"/>
      <point x="-271" y="844" type="line"/>
      <point x="-271" y="842" type="line"/>
      <point x="-271" y="749"/>
      <point x="-213" y="716"/>
      <point x="-105" y="716" type="curve" smooth="yes"/>
      <point x="1" y="716"/>
      <point x="59" y="749"/>
      <point x="59" y="842" type="curve"/>
      <point x="59" y="844" type="line"/>
    </contour>
  </outline>
</glyph>
<glyph name="dvAnusvara" format="1">
  <advance width="0"/>
  <unicode hex="0902"/>
  <outline>
    <contour>
      <point x="-69" y="652" type="move" name="_abvm.bindu"/>
    </contour>
    <contour>
      <point x="-151" y="772" type="curve" smooth="yes"/>
      <point x="-151" y="746"/>
      <point x="-140" y="727"/>
      <point x="-106" y="727" type="curve" smooth="yes"/>
      <point x="-72" y="727"/>
      <point x="-61" y="746"/>
      <point x="-61" y="772" type="curve" smooth="yes"/>
      <point x="-61" y="798"/>
      <point x="-72" y="817"/>
      <point x="-106" y="817" type="curve" smooth="yes"/>
      <point x="-140" y="817"/>
      <point x="-151" y="798"/>
    </contour>
  </outline>
</glyph>
<glyph name="dvVisarga" format="1">
  <advance width="205"/>
  <unicode hex="0903"/>
  <outline>
    <contour>
      <point x="44" y="388" type="curve" smooth="yes"/>
      <point x="44" y="362"/>
      <point x="55" y="343"/>
      <point x="89" y="343" type="curve" smooth="yes"/>
      <point x="123" y="343"/>
      <point x="134" y="362"/>
      <point x="134" y="388" type="curve" smooth="yes"/>
      <point x="134" y="414"/>
      <point x="123" y="433"/>
      <point x="89" y="433" type="curve" smooth="yes"/>
      <point x="55" y="433"/>
      <point x="44" y="414"/>
    </contour>
    <contour>
      <point x="44" y="45" type="curve" smooth="yes"/>
      <point x="44" y="19"/>
      <point x="55" y="0"/>
      <point x="89" y="0" type="curve" smooth="yes"/>
      <point x="123" y="0"/>
      <point x="134" y="19"/>
      <point x="134" y="45" type="curve" smooth="yes"/>
      <point x="134" y="71"/>
      <point x="123" y="90"/>
      <point x="89" y="90" type="curve" smooth="yes"/>
      <point x="55" y="90"/>
      <point x="44" y="71"/>
    </contour>
  </outline>
</glyph>
<glyph name="dvA" format="1">
  <advance width="567"/>
  <unicode hex="0905"/>
  <outline>
    <contour>
      <point x="241" y="175" type="line"/>
      <point x="241" y="130"/>
      <point x="215" y="101"/>
      <point x="148" y="101" type="curve" smooth="yes"/>
      <point x="111" y="101"/>
      <point x="69" y="108"/>
      <point x="37" y="117" type="curve"/>
      <point x="37" y="49" type="line"/>
      <point x="69" y="40"/>
      <point x="108" y="35"/>
      <point x="148" y="35" type="curve" smooth="yes"/>
      <point x="260" y="35"/>
      <point x="312" y="88"/>
      <point x="312" y="173" type="curve"/>
      <point x="312" y="244" type="line" smooth="yes"/>
      <point x="312" y="291"/>
      <point x="301" y="335"/>
      <point x="262" y="352" type="curve"/>
      <point x="301" y="369"/>
      <point x="312" y="414"/>
      <point x="312" y="459" type="curve" smooth="yes"/>
      <point x="312" y="518" type="line" smooth="yes"/>
      <point x="312" y="604"/>
      <point x="260" y="657"/>
      <point x="148" y="657" type="curve" smooth="yes"/>
      <point x="105" y="657"/>
      <point x="73" y="651"/>
      <point x="48" y="643" type="curve"/>
      <point x="48" y="573" type="line"/>
      <point x="78" y="583"/>
      <point x="110" y="590"/>
      <point x="148" y="590" type="curve" smooth="yes"/>
      <point x="216" y="590"/>
      <point x="241" y="561"/>
      <point x="241" y="516" type="curve" smooth="yes"/>
      <point x="241" y="459" type="line" smooth="yes"/>
      <point x="241" y="418"/>
      <point x="230" y="386"/>
      <point x="161" y="386" type="curve" smooth="yes"/>
      <point x="101" y="386" type="line"/>
      <point x="101" y="319" type="line"/>
      <point x="161" y="319" type="line" smooth="yes"/>
      <point x="230" y="318"/>
      <point x="241" y="286"/>
      <point x="241" y="244" type="curve" smooth="yes"/>
    </contour>
    <contour>
      <point x="425" y="652" type="line"/>
      <point x="425" y="0" type="line"/>
      <point x="497" y="0" type="line"/>
      <point x="497" y="590" type="line"/>
      <point x="592" y="590" type="line"/>
      <point x="592" y="652" type="line"/>
    </contour>
    <contour>
      <point x="283" y="213" type="line"/>
      <point x="441" y="213" type="line"/>
      <point x="441" y="276" type="line"/>
      <point x="283" y="276" type="line"/>
    </contour>
  </outline>
</glyph>
<glyph name="dvII" format="1">
  <advance width="400"/>
  <unicode hex="0908"/>
  <outline>
    <contour>
      <point x="329" y="652" type="line"/>
      <point x="313" y="683"/>
      <point x="296" y="725"/>
      <point x="296" y="756" type="curve" smooth="yes"/>
      <point x="296" y="805"/>
      <point x="330" y="820"/>
      <point x="371" y="820" type="curve" smooth="yes"/>
      <point x="384" y="820"/>
      <point x="397" y="818"/>
      <point x="407" y="817" type="curve"/>
      <point x="407" y="881" type="line"/>
      <point x="397" y="882"/>
      <point x="380" y="885"/>
      <point x="354" y="885" type="curve" smooth="yes"/>
      <point x="288" y="885"/>
      <point x="224" y="855"/>
      <point x="224" y="765" type="curve" smooth="yes"/>
      <point x="224" y="723"/>
      <point x="241" y="683"/>
      <point x="258" y="652" type="curve"/>
    </contour>
    <contour>
      <point x="118" y="170" type="line"/>
      <point x="49" y="170" type="line"/>
      <point x="49" y="-67" type="line"/>
      <point x="118" y="-67" type="line"/>
      <point x="118" y="32" type="line"/>
      <point x="138" y="27"/>
      <point x="170" y="23"/>
      <point x="207" y="23" type="curve" smooth="yes"/>
      <point x="318" y="23"/>
      <point x="362" y="66"/>
      <point x="362" y="151" type="curve" smooth="yes"/>
      <point x="362" y="189" type="line" smooth="yes"/>
      <point x="362" y="272"/>
      <point x="314" y="314"/>
      <point x="211" y="314" type="curve" smooth="yes"/>
      <point x="188" y="314" type="line" smooth="yes"/>
      <point x="128" y="314"/>
      <point x="112" y="338"/>
      <point x="112" y="375" type="curve" smooth="yes"/>
      <point x="112" y="380" type="line" smooth="yes"/>
      <point x="112" y="417"/>
      <point x="128" y="440"/>
      <point x="188" y="440" type="curve" smooth="yes"/>
      <point x="334" y="440" type="line"/>
      <point x="334" y="590" type="line"/>
      <point x="426" y="590" type="line"/>
      <point x="426" y="652" type="line"/>
      <point x="-26" y="652" type="line"/>
      <point x="-26" y="590" type="line"/>
      <point x="262" y="590" type="line"/>
      <point x="262" y="504" type="line"/>
      <point x="188" y="504" type="line" smooth="yes"/>
      <point x="88" y="504"/>
      <point x="40" y="464"/>
      <point x="40" y="381" type="curve" smooth="yes"/>
      <point x="40" y="374" type="line" smooth="yes"/>
      <point x="40" y="291"/>
      <point x="89" y="251"/>
      <point x="188" y="251" type="curve" smooth="yes"/>
      <point x="211" y="251" type="line" smooth="yes"/>
      <point x="274" y="251"/>
      <point x="290" y="225"/>
      <point x="290" y="188" type="curve" smooth="yes"/>
      <point x="290" y="153" type="line" smooth="yes"/>
      <point x="290" y="111"/>
      <point x="265" y="89"/>
      <point x="201" y="89" type="curve" smooth="yes"/>
      <point x="167" y="89"/>
      <point x="140" y="92"/>
      <point x="118" y="96" type="curve"/>
    </contour>
  </outline>
</glyph>
<glyph name="dvU" format="1">
  <advance width="401"/>
  <unicode hex="0909"/>
  <outline>
    <contour>
      <point x="305" y="652" type="move" name="abvm.bindu"/>
    </contour>
    <contour>
      <point x="335" y="231" type="line"/>
      <point x="335" y="278"/>
      <point x="322" y="321"/>
      <point x="285" y="336" type="curve"/>
      <point x="322" y="349"/>
      <point x="335" y="393"/>
      <point x="335" y="440" type="curve" smooth="yes"/>
      <point x="335" y="524" type="line" smooth="yes"/>
      <point x="335" y="571"/>
      <point x="324" y="590"/>
      <point x="324" y="590" type="curve"/>
      <point x="426" y="590" type="line"/>
      <point x="426" y="652" type="line"/>
      <point x="-26" y="652" type="line"/>
      <point x="-26" y="590" type="line"/>
      <point x="250" y="590" type="line"/>
      <point x="250" y="590"/>
      <point x="263" y="568"/>
      <point x="263" y="523" type="curve" smooth="yes"/>
      <point x="263" y="441" type="line" smooth="yes"/>
      <point x="263" y="403"/>
      <point x="254" y="370"/>
      <point x="187" y="370" type="curve" smooth="yes"/>
      <point x="123" y="370" type="line"/>
      <point x="123" y="303" type="line"/>
      <point x="184" y="303" type="line" smooth="yes"/>
      <point x="252" y="302"/>
      <point x="263" y="268"/>
      <point x="263" y="228" type="curve" smooth="yes"/>
      <point x="263" y="137" type="line" smooth="yes"/>
      <point x="263" y="89"/>
      <point x="232" y="63"/>
      <point x="155" y="63" type="curve" smooth="yes"/>
      <point x="116" y="63"/>
      <point x="82" y="70"/>
      <point x="47" y="81" type="curve"/>
      <point x="47" y="12" type="line"/>
      <point x="84" y="2"/>
      <point x="114" y="-4"/>
      <point x="156" y="-4" type="curve" smooth="yes"/>
      <point x="277" y="-4"/>
      <point x="335" y="45"/>
      <point x="335" y="136" type="curve"/>
    </contour>
  </outline>
</glyph>
<glyph name="dvvR" format="1">
  <advance width="685"/>
  <unicode hex="090B"/>
  <outline>
    <contour>
      <point x="450" y="133" type="curve" smooth="yes"/>
      <point x="450" y="33"/>
      <point x="519" y="-8"/>
      <point x="604" y="-8" type="curve" smooth="yes"/>
      <point x="626" y="-8"/>
      <point x="645" y="-7"/>
      <point x="666" y="-3" type="curve"/>
      <point x="666" y="60" type="line"/>
      <point x="644" y="55"/>
      <point x="627" y="54"/>
      <point x="609" y="54" type="curve" smooth="yes"/>
      <point x="565" y="54"/>
      <point x="521" y="71"/>
      <point x="521" y="135" type="curve" smooth="yes"/>
      <point x="521" y="196"/>
      <point x="544" y="221"/>
      <point x="595" y="221" type="curve" smooth="yes"/>
      <point x="637" y="221" type="line"/>
      <point x="637" y="502" type="line"/>
      <point x="567" y="502" type="line"/>
      <point x="567" y="493" type="line" smooth="yes"/>
      <point x="567" y="446"/>
      <point x="541" y="421"/>
      <point x="476" y="421" type="curve" smooth="yes"/>
      <point x="440" y="421"/>
      <point x="402" y="425"/>
      <point x="362" y="435" type="curve"/>
      <point x="362" y="367" type="line"/>
      <point x="399" y="359"/>
      <point x="440" y="353"/>
      <point x="475" y="353" type="curve" smooth="yes"/>
      <point x="517" y="353"/>
      <point x="550" y="363"/>
      <point x="569" y="383" type="curve"/>
      <point x="569" y="274" type="line"/>
      <point x="491" y="271"/>
      <point x="450" y="224"/>
    </contour>
    <contour>
      <point x="316" y="252" type="curve"/>
      <point x="320" y="252" type="line"/>
      <point x="318" y="241"/>
      <point x="314" y="182"/>
      <point x="314" y="87" type="curve"/>
      <point x="314" y="0" type="line"/>
      <point x="384" y="0" type="line"/>
      <point x="384" y="590" type="line"/>
      <point x="710" y="590" type="line"/>
      <point x="710" y="652" type="line"/>
      <point x="-26" y="652" type="line"/>
      <point x="-26" y="590" type="line"/>
      <point x="312" y="590" type="line"/>
      <point x="312" y="484" type="line"/>
      <point x="289" y="490"/>
      <point x="256" y="497"/>
      <point x="212" y="497" type="curve" smooth="yes"/>
      <point x="96" y="497"/>
      <point x="41" y="444"/>
      <point x="41" y="351" type="curve" smooth="yes"/>
      <point x="41" y="289" type="line"/>
      <point x="112" y="289" type="line"/>
      <point x="112" y="349" type="line" smooth="yes"/>
      <point x="112" y="400"/>
      <point x="140" y="431"/>
      <point x="218" y="431" type="curve" smooth="yes"/>
      <point x="256" y="431"/>
      <point x="289" y="424"/>
      <point x="312" y="417" type="curve"/>
      <point x="312" y="331" type="line"/>
      <point x="38" y="47" type="line"/>
      <point x="38" y="43" type="line"/>
      <point x="129" y="43" type="line"/>
      <point x="249" y="168" type="line" smooth="yes"/>
      <point x="292" y="213"/>
      <point x="312" y="241"/>
    </contour>
  </outline>
</glyph>
<glyph name="dvvL" format="1">
  <advance width="621"/>
  <unicode hex="090C"/>
  <outline>
    <contour>
      <point x="552" y="127" type="curve"/>
      <point x="552" y="192" type="line"/>
      <point x="552" y="192"/>
      <point x="497" y="195"/>
      <point x="485" y="195" type="curve" smooth="yes"/>
      <point x="394" y="195"/>
      <point x="347" y="151"/>
      <point x="347" y="58" type="curve" smooth="yes"/>
      <point x="347" y="-35"/>
      <point x="402" y="-78"/>
      <point x="490" y="-78" type="curve" smooth="yes"/>
      <point x="523" y="-78"/>
      <point x="547" y="-71"/>
      <point x="555" y="-70" type="curve"/>
      <point x="555" y="-2" type="line"/>
      <point x="543" y="-4"/>
      <point x="525" y="-10"/>
      <point x="491" y="-10" type="curve" smooth="yes"/>
      <point x="450" y="-10"/>
      <point x="418" y="0"/>
      <point x="418" y="58" type="curve" smooth="yes"/>
      <point x="418" y="110"/>
      <point x="438" y="130"/>
      <point x="490" y="130" type="curve" smooth="yes"/>
      <point x="500" y="130"/>
      <point x="540" y="129"/>
    </contour>
    <contour>
      <point x="48" y="156" type="line"/>
      <point x="48" y="57"/>
      <point x="97" y="0"/>
      <point x="215" y="0" type="curve" smooth="yes"/>
      <point x="236" y="0"/>
      <point x="254" y="2"/>
      <point x="268" y="4" type="curve"/>
      <point x="268" y="70" type="line"/>
      <point x="256" y="68"/>
      <point x="235" y="65"/>
      <point x="217" y="65" type="curve" smooth="yes"/>
      <point x="137" y="65"/>
      <point x="120" y="106"/>
      <point x="120" y="158" type="curve" smooth="yes"/>
      <point x="120" y="346" type="line" smooth="yes"/>
      <point x="120" y="385"/>
      <point x="132" y="414"/>
      <point x="192" y="414" type="curve" smooth="yes"/>
      <point x="249" y="414"/>
      <point x="264" y="385"/>
      <point x="264" y="348" type="curve" smooth="yes"/>
      <point x="264" y="211" type="line"/>
      <point x="336" y="211" type="line"/>
      <point x="336" y="348" type="line" smooth="yes"/>
      <point x="336" y="385"/>
      <point x="355" y="414"/>
      <point x="412" y="414" type="curve" smooth="yes"/>
      <point x="436" y="414"/>
      <point x="460" y="410"/>
      <point x="480" y="401" type="curve"/>
      <point x="480" y="159" type="line"/>
      <point x="552" y="159" type="line"/>
      <point x="552" y="590" type="line"/>
      <point x="647" y="590" type="line"/>
      <point x="647" y="652" type="line"/>
      <point x="-26" y="652" type="line"/>
      <point x="-26" y="590" type="line"/>
      <point x="480" y="590" type="line"/>
      <point x="480" y="468" type="line"/>
      <point x="456" y="477"/>
      <point x="436" y="481"/>
      <point x="409" y="481" type="curve" smooth="yes"/>
      <point x="355" y="481"/>
      <point x="319" y="463"/>
      <point x="299" y="435" type="curve"/>
      <point x="281" y="461"/>
      <point x="246" y="481"/>
      <point x="190" y="481" type="curve" smooth="yes"/>
      <point x="94" y="481"/>
      <point x="48" y="430"/>
      <point x="48" y="347" type="curve" smooth="yes"/>
    </contour>
  </outline>
</glyph>
<glyph name="dvEcandra" format="1">
  <advance width="428"/>
  <unicode hex="090D"/>
  <outline>
    <contour>
      <point x="315" y="852" type="line"/>
      <point x="315" y="802"/>
      <point x="288" y="787"/>
      <point x="220" y="787" type="curve" smooth="yes"/>
      <point x="152" y="787"/>
      <point x="125" y="802"/>
      <point x="125" y="852" type="curve"/>
      <point x="55" y="852" type="line"/>
      <point x="55" y="850" type="line"/>
      <point x="55" y="757"/>
      <point x="113" y="724"/>
      <point x="220" y="724" type="curve" smooth="yes"/>
      <point x="327" y="724"/>
      <point x="385" y="757"/>
      <point x="385" y="850" type="curve"/>
      <point x="385" y="852" type="line"/>
    </contour>
    <contour>
      <point x="352" y="81" type="line"/>
      <point x="325" y="72"/>
      <point x="280" y="62"/>
      <point x="230" y="62" type="curve" smooth="yes"/>
      <point x="162" y="62"/>
      <point x="137" y="90"/>
      <point x="137" y="134" type="curve" smooth="yes"/>
      <point x="137" y="590" type="line"/>
      <point x="298" y="590" type="line"/>
      <point x="298" y="400" type="line" smooth="yes"/>
      <point x="298" y="362"/>
      <point x="286" y="336"/>
      <point x="236" y="336" type="curve" smooth="yes"/>
      <point x="231" y="336"/>
      <point x="224" y="336"/>
      <point x="219" y="337" type="curve"/>
      <point x="219" y="270" type="line"/>
      <point x="226" y="269"/>
      <point x="234" y="269"/>
      <point x="242" y="269" type="curve" smooth="yes"/>
      <point x="335" y="269"/>
      <point x="370" y="322"/>
      <point x="370" y="398" type="curve" smooth="yes"/>
      <point x="370" y="590" type="line"/>
      <point x="454" y="590" type="line"/>
      <point x="454" y="652" type="line"/>
      <point x="-26" y="652" type="line"/>
      <point x="-26" y="590" type="line"/>
      <point x="65" y="590" type="line"/>
      <point x="65" y="133" type="line" smooth="yes"/>
      <point x="65" y="43"/>
      <point x="118" y="-5"/>
      <point x="229" y="-5" type="curve" smooth="yes"/>
      <point x="282" y="-5"/>
      <point x="328" y="5"/>
      <point x="352" y="15" type="curve"/>
    </contour>
  </outline>
</glyph>
<glyph name="dvE" format="1">
  <advance width="428"/>
  <unicode hex="090F"/>
  <outline>
    <contour>
      <point x="356" y="81" type="line"/>
      <point x="328" y="72"/>
      <point x="284" y="62"/>
      <point x="235" y="62" type="curve" smooth="yes"/>
      <point x="161" y="62"/>
      <point x="137" y="90"/>
      <point x="137" y="138" type="curve" smooth="yes"/>
      <point x="137" y="590" type="line"/>
      <point x="298" y="590" type="line"/>
      <point x="298" y="400" type="line" smooth="yes"/>
      <point x="298" y="362"/>
      <point x="286" y="336"/>
      <point x="236" y="336" type="curve" smooth="yes"/>
      <point x="231" y="336"/>
      <point x="224" y="336"/>
      <point x="219" y="337" type="curve"/>
      <point x="219" y="270" type="line"/>
      <point x="226" y="269"/>
      <point x="234" y="269"/>
      <point x="242" y="269" type="curve" smooth="yes"/>
      <point x="335" y="269"/>
      <point x="370" y="322"/>
      <point x="370" y="398" type="curve" smooth="yes"/>
      <point x="370" y="590" type="line"/>
      <point x="454" y="590" type="line"/>
      <point x="454" y="652" type="line"/>
      <point x="-26" y="652" type="line"/>
      <point x="-26" y="590" type="line"/>
      <point x="65" y="590" type="line"/>
      <point x="65" y="138" type="line" smooth="yes"/>
      <point x="65" y="41"/>
      <point x="121" y="-5"/>
      <point x="233" y="-5" type="curve" smooth="yes"/>
      <point x="286" y="-5"/>
      <point x="331" y="5"/>
      <point x="356" y="15" type="curve"/>
    </contour>
  </outline>
</glyph>
<glyph name="dvAI" format="1">
  <advance width="428"/>
  <unicode hex="0910"/>
  <outline>
    <contour>
      <point x="293" y="652" type="line"/>
      <point x="367" y="652" type="line"/>
      <point x="210" y="881" type="line"/>
      <point x="129" y="881" type="line"/>
    </contour>
    <contour>
      <point x="352" y="81" type="line"/>
      <point x="325" y="72"/>
      <point x="280" y="62"/>
      <point x="230" y="62" type="curve" smooth="yes"/>
      <point x="162" y="62"/>
      <point x="137" y="90"/>
      <point x="137" y="134" type="curve" smooth="yes"/>
      <point x="137" y="590" type="line"/>
      <point x="298" y="590" type="line"/>
      <point x="298" y="400" type="line" smooth="yes"/>
      <point x="298" y="362"/>
      <point x="286" y="336"/>
      <point x="236" y="336" type="curve" smooth="yes"/>
      <point x="231" y="336"/>
      <point x="224" y="336"/>
      <point x="219" y="337" type="curve"/>
      <point x="219" y="270" type="line"/>
      <point x="226" y="269"/>
      <point x="234" y="269"/>
      <point x="242" y="269" type="curve" smooth="yes"/>
      <point x="335" y="269"/>
      <point x="370" y="322"/>
      <point x="370" y="398" type="curve" smooth="yes"/>
      <point x="370" y="590" type="line"/>
      <point x="454" y="590" type="line"/>
      <point x="454" y="652" type="line"/>
      <point x="-26" y="652" type="line"/>
      <point x="-26" y="590" type="line"/>
      <point x="65" y="590" type="line"/>
      <point x="65" y="133" type="line" smooth="yes"/>
      <point x="65" y="43"/>
      <point x="118" y="-5"/>
      <point x="229" y="-5" type="curve" smooth="yes"/>
      <point x="282" y="-5"/>
      <point x="328" y="5"/>
      <point x="352" y="15" type="curve"/>
    </contour>
  </outline>
</glyph>
<glyph name="dvOcandra" format="1">
  <advance width="799"/>
  <unicode hex="0911"/>
  <outline>
    <contour>
      <point x="657" y="590" type="line"/>
      <point x="657" y="0" type="line"/>
      <point x="730" y="0" type="line"/>
      <point x="730" y="590" type="line"/>
      <point x="824" y="590" type="line"/>
      <point x="824" y="652" type="line"/>
      <point x="563" y="652" type="line"/>
      <point x="563" y="590" type="line"/>
    </contour>
    <contour>
      <point x="687" y="847" type="line"/>
      <point x="687" y="797"/>
      <point x="659" y="782"/>
      <point x="592" y="782" type="curve" smooth="yes"/>
      <point x="524" y="782"/>
      <point x="497" y="797"/>
      <point x="497" y="847" type="curve"/>
      <point x="427" y="847" type="line"/>
      <point x="427" y="845" type="line"/>
      <point x="427" y="752"/>
      <point x="485" y="719"/>
      <point x="592" y="719" type="curve" smooth="yes"/>
      <point x="699" y="719"/>
      <point x="757" y="751"/>
      <point x="757" y="845" type="curve"/>
      <point x="757" y="847" type="line"/>
    </contour>
    <component base="dvA" xOffset="21"/>
  </outline>
</glyph>
<glyph name="dvKA" format="1">
  <advance width="587"/>
  <unicode hex="0915"/>
  <outline>
    <contour>
      <point x="331" y="652" type="move" name="abvm.bindu"/>
    </contour>
    <contour>
      <point x="331" y="0" type="move" name="blwm.virama"/>
    </contour>
    <contour>
      <point x="331" y="652" type="move" name="abvm.e"/>
    </contour>
    <contour>
      <point x="331" y="0" type="move" name="blwm.u"/>
    </contour>
    <contour>
      <point x="260" y="590" type="line"/>
      <point x="-26" y="590" type="line"/>
      <point x="-26" y="652" type="line"/>
      <point x="612" y="652" type="line"/>
      <point x="612" y="590" type="line"/>
      <point x="331" y="590" type="line"/>
      <point x="331" y="496" type="line"/>
      <point x="346" y="501"/>
      <point x="370" y="505"/>
      <point x="400" y="505" type="curve" smooth="yes"/>
      <point x="495" y="505"/>
      <point x="542" y="460"/>
      <point x="542" y="377" type="curve" smooth="yes"/>
      <point x="542" y="200" type="line" smooth="yes"/>
      <point x="542" y="125"/>
      <point x="507" y="72"/>
      <point x="416" y="72" type="curve" smooth="yes"/>
      <point x="407" y="72"/>
      <point x="398" y="72"/>
      <point x="393" y="73" type="curve"/>
      <point x="393" y="141" type="line"/>
      <point x="398" y="140"/>
      <point x="404" y="140"/>
      <point x="410" y="140" type="curve" smooth="yes"/>
      <point x="461" y="140"/>
      <point x="472" y="166"/>
      <point x="472" y="204" type="curve" smooth="yes"/>
      <point x="472" y="375" type="line" smooth="yes"/>
      <point x="472" y="414"/>
      <point x="454" y="441"/>
      <point x="394" y="441" type="curve" smooth="yes"/>
      <point x="371" y="441"/>
      <point x="349" y="438"/>
      <point x="331" y="432" type="curve"/>
      <point x="331" y="0" type="line"/>
      <point x="260" y="0" type="line"/>
      <point x="260" y="76" type="line"/>
      <point x="245" y="73"/>
      <point x="217" y="67"/>
      <point x="187" y="67" type="curve" smooth="yes"/>
      <point x="91" y="67"/>
      <point x="44" y="110"/>
      <point x="44" y="193" type="curve" smooth="yes"/>
      <point x="44" y="376" type="line" smooth="yes"/>
      <point x="44" y="459"/>
      <point x="91" y="504"/>
      <point x="187" y="504" type="curve" smooth="yes"/>
      <point x="198" y="504"/>
      <point x="210" y="503"/>
      <point x="216" y="501" type="curve"/>
      <point x="216" y="438" type="line"/>
      <point x="210" y="439"/>
      <point x="200" y="440"/>
      <point x="192" y="440" type="curve" smooth="yes"/>
      <point x="132" y="440"/>
      <point x="114" y="414"/>
      <point x="114" y="374" type="curve" smooth="yes"/>
      <point x="114" y="195" type="line" smooth="yes"/>
      <point x="114" y="156"/>
      <point x="132" y="130"/>
      <point x="192" y="130" type="curve" smooth="yes"/>
      <point x="221" y="130"/>
      <point x="246" y="135"/>
      <point x="260" y="139" type="curve"/>
    </contour>
  </outline>
</glyph>
<glyph name="dvGA" format="1">
  <advance width="481"/>
  <unicode hex="0917"/>
  <outline>
    <contour>
      <point x="294" y="590" type="line"/>
      <point x="340" y="590" type="line"/>
      <point x="340" y="0" type="line"/>
      <point x="412" y="0" type="line"/>
      <point x="412" y="590" type="line"/>
      <point x="507" y="590" type="line"/>
      <point x="507" y="652" type="line"/>
      <point x="294" y="652" type="line"/>
    </contour>
    <contour>
      <point x="196" y="590" type="line"/>
      <point x="294" y="590" type="line"/>
      <point x="294" y="652" type="line"/>
      <point x="-26" y="652" type="line"/>
      <point x="-26" y="590" type="line"/>
      <point x="124" y="590" type="line"/>
      <point x="124" y="324" type="line" smooth="yes"/>
      <point x="124" y="286"/>
      <point x="108" y="258"/>
      <point x="56" y="258" type="curve" smooth="yes"/>
      <point x="47" y="258"/>
      <point x="33" y="260"/>
      <point x="27" y="260" type="curve"/>
      <point x="27" y="192" type="line"/>
      <point x="33" y="191"/>
      <point x="54" y="189"/>
      <point x="65" y="189" type="curve" smooth="yes"/>
      <point x="153" y="189"/>
      <point x="196" y="242"/>
      <point x="196" y="321" type="curve"/>
    </contour>
  </outline>
</glyph>
<glyph name="dvNGA" format="1">
  <advance width="458"/>
  <unicode hex="0919"/>
  <outline>
    <contour>
      <point x="339" y="652" type="move" name="abvm.bindu"/>
    </contour>
    <contour>
      <point x="243" y="-5" type="move" name="blwm.virama"/>
    </contour>
    <contour>
      <point x="339" y="652" type="move" name="abvm.e"/>
    </contour>
    <contour>
      <point x="246" y="-60" type="move" name="blwm.u"/>
    </contour>
    <contour>
      <point x="368" y="167" type="line"/>
      <point x="368" y="250"/>
      <point x="320" y="293"/>
      <point x="217" y="293" type="curve" smooth="yes"/>
      <point x="198" y="293" type="line" smooth="yes"/>
      <point x="137" y="293"/>
      <point x="121" y="317"/>
      <point x="121" y="354" type="curve" smooth="yes"/>
      <point x="121" y="379" type="line" smooth="yes"/>
      <point x="121" y="417"/>
      <point x="138" y="440"/>
      <point x="198" y="440" type="curve" smooth="yes"/>
      <point x="339" y="440" type="line"/>
      <point x="339" y="590" type="line"/>
      <point x="484" y="590" type="line"/>
      <point x="484" y="652" type="line"/>
      <point x="-26" y="652" type="line"/>
      <point x="-26" y="590" type="line"/>
      <point x="267" y="590" type="line"/>
      <point x="267" y="505" type="line"/>
      <point x="198" y="505" type="line" smooth="yes"/>
      <point x="97" y="505"/>
      <point x="49" y="465"/>
      <point x="49" y="382" type="curve" smooth="yes"/>
      <point x="49" y="352" type="line" smooth="yes"/>
      <point x="49" y="269"/>
      <point x="99" y="229"/>
      <point x="198" y="229" type="curve" smooth="yes"/>
      <point x="217" y="229" type="line" smooth="yes"/>
      <point x="280" y="229"/>
      <point x="296" y="204"/>
      <point x="296" y="166" type="curve" smooth="yes"/>
      <point x="296" y="127" type="line" smooth="yes"/>
      <point x="296" y="78"/>
      <point x="260" y="60"/>
      <point x="193" y="60" type="curve" smooth="yes"/>
      <point x="143" y="60"/>
      <point x="92" y="66"/>
      <point x="55" y="75" type="curve"/>
      <point x="55" y="9" type="line"/>
      <point x="94" y="0"/>
      <point x="138" y="-7"/>
      <point x="193" y="-7" type="curve" smooth="yes"/>
      <point x="310" y="-7"/>
      <point x="368" y="39"/>
      <point x="368" y="127" type="curve"/>
    </contour>
    <contour>
      <point x="370" y="351" type="curve" smooth="yes"/>
      <point x="370" y="325"/>
      <point x="381" y="306"/>
      <point x="415" y="306" type="curve" smooth="yes"/>
      <point x="448" y="306"/>
      <point x="459" y="325"/>
      <point x="459" y="351" type="curve" smooth="yes"/>
      <point x="459" y="376"/>
      <point x="448" y="396"/>
      <point x="415" y="396" type="curve" smooth="yes"/>
      <point x="381" y="396"/>
      <point x="370" y="376"/>
    </contour>
  </outline>
</glyph>
<glyph name="dvCA" format="1">
  <advance width="465"/>
  <unicode hex="091A"/>
  <outline>
    <contour>
      <point x="159" y="336" type="line"/>
      <point x="159" y="392"/>
      <point x="169" y="420"/>
      <point x="169" y="420" type="curve"/>
      <point x="271" y="420" type="line"/>
      <point x="271" y="482" type="line"/>
      <point x="12" y="482" type="line"/>
      <point x="12" y="418" type="line"/>
      <point x="96" y="418" type="line"/>
      <point x="96" y="418"/>
      <point x="87" y="390"/>
      <point x="87" y="336" type="curve"/>
      <point x="87" y="196" type="line"/>
      <point x="87" y="110"/>
      <point x="133" y="61"/>
      <point x="236" y="61" type="curve"/>
      <point x="271" y="61"/>
      <point x="300" y="66"/>
      <point x="323" y="74" type="curve"/>
      <point x="323" y="0" type="line"/>
      <point x="396" y="0" type="line"/>
      <point x="396" y="590" type="line"/>
      <point x="490" y="590" type="line"/>
      <point x="490" y="652" type="line"/>
      <point x="-26" y="652" type="line"/>
      <point x="-26" y="590" type="line"/>
      <point x="323" y="590" type="line"/>
      <point x="323" y="139" type="line"/>
      <point x="296" y="130"/>
      <point x="274" y="126"/>
      <point x="244" y="126" type="curve"/>
      <point x="182" y="126"/>
      <point x="159" y="150"/>
      <point x="159" y="198" type="curve" smooth="yes"/>
    </contour>
  </outline>
</glyph>
<glyph name="dvCHA" format="1">
  <advance width="511"/>
  <unicode hex="091B"/>
  <outline>
    <contour>
      <point x="386" y="652" type="move" name="abvm.bindu"/>
    </contour>
    <contour>
      <point x="294" y="18" type="move" name="blwm.virama"/>
    </contour>
    <contour>
      <point x="386" y="652" type="move" name="abvm.e"/>
    </contour>
    <contour>
      <point x="289" y="-40" type="move" name="blwm.u"/>
    </contour>
    <contour>
      <point x="62" y="389" type="line"/>
      <point x="62" y="343"/>
      <point x="73" y="309"/>
      <point x="115" y="293" type="curve"/>
      <point x="72" y="279"/>
      <point x="56" y="242"/>
      <point x="56" y="199" type="curve" smooth="yes"/>
      <point x="56" y="165" type="line" smooth="yes"/>
      <point x="56" y="60"/>
      <point x="113" y="18"/>
      <point x="258" y="18" type="curve" smooth="yes"/>
      <point x="404" y="18"/>
      <point x="457" y="61"/>
      <point x="457" y="169" type="curve" smooth="yes"/>
      <point x="457" y="368" type="line" smooth="yes"/>
      <point x="457" y="430"/>
      <point x="437" y="471"/>
      <point x="386" y="485" type="curve"/>
      <point x="386" y="590" type="line"/>
      <point x="537" y="590" type="line"/>
      <point x="537" y="652" type="line"/>
      <point x="-26" y="652" type="line"/>
      <point x="-26" y="590" type="line"/>
      <point x="72" y="590" type="line"/>
      <point x="72" y="590"/>
      <point x="62" y="567"/>
      <point x="62" y="523" type="curve" smooth="yes"/>
    </contour>
    <contour>
      <point x="134" y="523" type="line"/>
      <point x="134" y="566"/>
      <point x="145" y="590"/>
      <point x="145" y="590" type="curve"/>
      <point x="320" y="590" type="line"/>
      <point x="320" y="495" type="line"/>
      <point x="284" y="495"/>
      <point x="257" y="487"/>
      <point x="257" y="487" type="curve"/>
      <point x="257" y="424" type="line"/>
      <point x="257" y="424"/>
      <point x="281" y="432"/>
      <point x="312" y="432" type="curve" smooth="yes"/>
      <point x="373" y="432"/>
      <point x="386" y="406"/>
      <point x="386" y="361" type="curve" smooth="yes"/>
      <point x="386" y="171" type="line" smooth="yes"/>
      <point x="386" y="106"/>
      <point x="363" y="84"/>
      <point x="258" y="84" type="curve" smooth="yes"/>
      <point x="152" y="84"/>
      <point x="129" y="103"/>
      <point x="129" y="167" type="curve" smooth="yes"/>
      <point x="129" y="195" type="line" smooth="yes"/>
      <point x="129" y="238"/>
      <point x="148" y="261"/>
      <point x="212" y="261" type="curve" smooth="yes"/>
      <point x="266" y="261" type="line"/>
      <point x="266" y="326" type="line"/>
      <point x="210" y="326" type="line" smooth="yes"/>
      <point x="147" y="326"/>
      <point x="134" y="352"/>
      <point x="134" y="390" type="curve" smooth="yes"/>
    </contour>
  </outline>
</glyph>
<glyph name="dvJA" format="1">
  <advance width="555"/>
  <unicode hex="091C"/>
  <outline>
    <contour>
      <point x="286" y="353" type="line"/>
      <point x="286" y="397"/>
      <point x="278" y="420"/>
      <point x="278" y="420" type="curve"/>
      <point x="414" y="420" type="line"/>
      <point x="414" y="0" type="line"/>
      <point x="486" y="0" type="line"/>
      <point x="486" y="590" type="line"/>
      <point x="581" y="590" type="line"/>
      <point x="581" y="652" type="line"/>
      <point x="-26" y="652" type="line"/>
      <point x="-26" y="590" type="line"/>
      <point x="414" y="590" type="line"/>
      <point x="414" y="482" type="line"/>
      <point x="96" y="482" type="line"/>
      <point x="96" y="417" type="line"/>
      <point x="205" y="417" type="line"/>
      <point x="205" y="417"/>
      <point x="214" y="393"/>
      <point x="214" y="350" type="curve" smooth="yes"/>
      <point x="214" y="184" type="line" smooth="yes"/>
      <point x="214" y="138"/>
      <point x="189" y="109"/>
      <point x="126" y="109" type="curve" smooth="yes"/>
      <point x="90" y="109"/>
      <point x="63" y="114"/>
      <point x="35" y="121" type="curve"/>
      <point x="35" y="54" type="line"/>
      <point x="61" y="47"/>
      <point x="85" y="43"/>
      <point x="127" y="43" type="curve" smooth="yes"/>
      <point x="231" y="43"/>
      <point x="286" y="93"/>
      <point x="286" y="183" type="curve"/>
    </contour>
  </outline>
</glyph>
<glyph name="dvJHA" format="1">
  <advance width="605"/>
  <unicode hex="091D"/>
  <outline>
    <contour>
      <point x="202" y="251" type="line"/>
      <point x="264" y="251"/>
      <point x="280" y="225"/>
      <point x="280" y="186" type="curve" smooth="yes"/>
      <point x="280" y="146" type="line" smooth="yes"/>
      <point x="280" y="107"/>
      <point x="259" y="81"/>
      <point x="196" y="81" type="curve"/>
      <point x="169" y="81"/>
      <point x="142" y="84"/>
      <point x="120" y="90" type="curve"/>
      <point x="120" y="158" type="line"/>
      <point x="50" y="158" type="line"/>
      <point x="50" y="-62" type="line"/>
      <point x="120" y="-62" type="line"/>
      <point x="120" y="25" type="line"/>
      <point x="142" y="20"/>
      <point x="168" y="16"/>
      <point x="203" y="16" type="curve"/>
      <point x="306" y="16"/>
      <point x="352" y="57"/>
      <point x="352" y="143" type="curve" smooth="yes"/>
      <point x="352" y="186" type="line" smooth="yes"/>
      <point x="352" y="217"/>
      <point x="342" y="241"/>
      <point x="324" y="254" type="curve"/>
      <point x="464" y="254" type="line"/>
      <point x="464" y="0" type="line"/>
      <point x="536" y="0" type="line"/>
      <point x="536" y="590" type="line"/>
      <point x="631" y="590" type="line"/>
      <point x="631" y="652" type="line"/>
      <point x="-26" y="652" type="line"/>
      <point x="-26" y="590" type="line"/>
      <point x="271" y="590" type="line"/>
      <point x="271" y="505" type="line"/>
      <point x="197" y="505" type="line" smooth="yes"/>
      <point x="97" y="505"/>
      <point x="49" y="465"/>
      <point x="49" y="382" type="curve" smooth="yes"/>
      <point x="49" y="374" type="line" smooth="yes"/>
      <point x="49" y="291"/>
      <point x="97" y="251"/>
      <point x="196" y="251" type="curve" smooth="yes"/>
    </contour>
    <contour>
      <point x="195" y="314" type="line"/>
      <point x="136" y="315"/>
      <point x="121" y="338"/>
      <point x="121" y="375" type="curve" smooth="yes"/>
      <point x="121" y="381" type="line" smooth="yes"/>
      <point x="121" y="418"/>
      <point x="137" y="440"/>
      <point x="197" y="440" type="curve" smooth="yes"/>
      <point x="343" y="440" type="line"/>
      <point x="343" y="590" type="line"/>
      <point x="464" y="590" type="line"/>
      <point x="464" y="314" type="line"/>
    </contour>
  </outline>
</glyph>
<glyph name="dvNYA" format="1">
  <advance width="577"/>
  <unicode hex="091E"/>
  <outline>
    <contour>
      <point x="239" y="368" type="line"/>
      <point x="239" y="413"/>
      <point x="220" y="444"/>
      <point x="153" y="444" type="curve" smooth="yes"/>
      <point x="115" y="444"/>
      <point x="88" y="438"/>
      <point x="64" y="429" type="curve"/>
      <point x="64" y="495" type="line"/>
      <point x="85" y="504"/>
      <point x="112" y="511"/>
      <point x="154" y="511" type="curve" smooth="yes"/>
      <point x="265" y="511"/>
      <point x="311" y="457"/>
      <point x="311" y="372" type="curve"/>
      <point x="311" y="310" type="line"/>
      <point x="436" y="310" type="line"/>
      <point x="436" y="590" type="line"/>
      <point x="-26" y="590" type="line"/>
      <point x="-26" y="652" type="line"/>
      <point x="603" y="652" type="line"/>
      <point x="603" y="590" type="line"/>
      <point x="508" y="590" type="line"/>
      <point x="508" y="0" type="line"/>
      <point x="436" y="0" type="line"/>
      <point x="436" y="247" type="line"/>
      <point x="311" y="247" type="line"/>
      <point x="311" y="187" type="line"/>
      <point x="311" y="102"/>
      <point x="265" y="49"/>
      <point x="153" y="49" type="curve" smooth="yes"/>
      <point x="109" y="49"/>
      <point x="79" y="57"/>
      <point x="57" y="65" type="curve"/>
      <point x="57" y="131" type="line"/>
      <point x="79" y="124"/>
      <point x="108" y="115"/>
      <point x="152" y="115" type="curve" smooth="yes"/>
      <point x="220" y="115"/>
      <point x="239" y="146"/>
      <point x="239" y="191" type="curve"/>
    </contour>
  </outline>
</glyph>
